<svg width="63" height="32" viewBox="0 0 63 32" fill="none" xmlns="http://www.w3.org/2000/svg">
<rect width="63" height="32" rx="16" fill="#71A894"/>
<path d="M12.336 22.16C14.912 22.16 16.24 20.512 16.24 18.688C16.24 16.912 15.008 15.152 11.264 14.768L11.744 12.192L16.176 11.936L16.368 10.368L10.416 10.72L9.424 16.032C13.264 16.144 14.416 17.504 14.416 18.768C14.416 19.872 13.664 20.688 12.208 20.688C11.424 20.688 10.592 20.48 9.504 19.856V21.408C10.528 21.968 11.424 22.16 12.336 22.16ZM26.7235 22H28.4835L29.3635 18.976H33.1075L34.0675 22H35.9875L32.2115 10.608L30.2275 10.672L26.7235 22ZM29.7155 17.6L30.8035 13.872C31.0275 13.12 31.1075 12.784 31.1715 12.432H31.2035C31.2515 12.784 31.3315 13.104 31.5715 13.872L32.7555 17.6H29.7155ZM44.7013 17.2V10.64H43.0373V17.168C43.0373 18.832 42.6533 20.656 40.7333 20.656C38.7173 20.656 38.3013 18.848 38.3013 17.04V10.64H36.5573V17.232C36.5573 20.224 37.6613 22.176 40.5893 22.176C43.3093 22.176 44.7013 20.208 44.7013 17.2ZM54.055 12.112L54.151 10.64H45.735V12.112H48.999V22H50.759V12.112H54.055Z" fill="white"/>
</svg>
