<svg width="72" height="32" viewBox="0 0 72 32" fill="none" xmlns="http://www.w3.org/2000/svg">
<rect width="72" height="32" rx="16" fill="#71A894"/>
<path d="M9.456 22H16.112V20.688L13.744 20.608V10.64H12.224L9.104 11.072L9.232 12.4L12.064 12.096V20.608L9.456 20.688V22ZM26.2818 16.224C26.2818 12.176 24.5858 10.48 22.2018 10.48C19.6418 10.48 17.8658 12.4 17.8658 16.416C17.8658 20.464 19.5778 22.16 21.9618 22.16C24.5218 22.16 26.2818 20.24 26.2818 16.224ZM24.5698 16.352C24.5698 19.584 23.4978 20.704 22.0258 20.704C20.5218 20.704 19.5938 19.232 19.5938 16.288C19.5938 13.056 20.6498 11.936 22.1218 11.936C23.6418 11.936 24.5698 13.408 24.5698 16.352ZM35.9973 22H37.7573L38.6373 18.976H42.3813L43.3413 22H45.2613L41.4853 10.608L39.5013 10.672L35.9973 22ZM38.9893 17.6L40.0773 13.872C40.3013 13.12 40.3813 12.784 40.4453 12.432H40.4773C40.5253 12.784 40.6053 13.104 40.8453 13.872L42.0293 17.6H38.9893ZM53.975 17.2V10.64H52.311V17.168C52.311 18.832 51.927 20.656 50.007 20.656C47.991 20.656 47.575 18.848 47.575 17.04V10.64H45.831V17.232C45.831 20.224 46.935 22.176 49.863 22.176C52.583 22.176 53.975 20.208 53.975 17.2ZM63.3288 12.112L63.4248 10.64H55.0088V12.112H58.2728V22H60.0328V12.112H63.3288Z" fill="white"/>
</svg>
