<svg width="137" height="64" viewBox="0 0 137 64" fill="none" xmlns="http://www.w3.org/2000/svg">
<rect x="0.5" width="136" height="64" rx="8" fill="#303031"/>
<path d="M29.3811 38H32.5851L37.2111 25.994H34.2951L30.9831 35.228L27.6531 25.994H24.7371L29.3811 38ZM39.3998 28.028C40.1558 28.028 40.7678 27.416 40.7678 26.66C40.7678 25.904 40.1558 25.292 39.3998 25.292C38.6618 25.292 38.0318 25.904 38.0318 26.66C38.0318 27.416 38.6618 28.028 39.3998 28.028ZM38.2658 38H40.5518V29.306H38.2658V38ZM42.2606 33.644C42.2606 36.434 44.2586 38.216 46.9046 38.216C48.2546 38.216 49.6226 37.802 50.4866 37.01L49.4786 35.534C48.9206 36.074 47.9666 36.398 47.1566 36.398C45.6806 36.398 44.7986 35.48 44.6546 34.382H51.1166V33.878C51.1166 31.034 49.3526 29.09 46.7606 29.09C44.1146 29.09 42.2606 31.124 42.2606 33.644ZM46.7606 30.908C48.2726 30.908 48.8486 32.006 48.9026 32.834H44.6186C44.7266 31.97 45.3386 30.908 46.7606 30.908ZM60.3998 38H62.8298L65.4758 29.306H63.0998L61.4798 35.156L59.5718 29.306H57.5378L55.6298 35.156L54.0098 29.306H51.6338L54.2798 38H56.7278L58.5638 32.078L60.3998 38ZM81.9892 38H84.2932V31.718C84.2932 29.936 83.3392 29.09 81.7372 29.09C80.4052 29.09 79.2532 29.882 78.7492 30.674C78.4252 29.684 77.6152 29.09 76.3372 29.09C75.0052 29.09 73.8532 29.918 73.4932 30.44V29.306H71.2072V38H73.4932V32.15C73.8352 31.664 74.5012 31.124 75.2932 31.124C76.2292 31.124 76.5892 31.7 76.5892 32.51V38H78.8932V32.132C79.2172 31.664 79.8832 31.124 80.6932 31.124C81.6292 31.124 81.9892 31.7 81.9892 32.51V38ZM90.5674 38.216C93.4474 38.216 95.1754 36.128 95.1754 33.644C95.1754 31.178 93.4474 29.09 90.5674 29.09C87.7054 29.09 85.9774 31.178 85.9774 33.644C85.9774 36.128 87.7054 38.216 90.5674 38.216ZM90.5674 36.182C89.1454 36.182 88.3534 35.012 88.3534 33.644C88.3534 32.294 89.1454 31.124 90.5674 31.124C91.9894 31.124 92.7994 32.294 92.7994 33.644C92.7994 35.012 91.9894 36.182 90.5674 36.182ZM96.8713 38H99.1573V32.258C99.5353 31.7 100.543 31.268 101.299 31.268C101.551 31.268 101.767 31.304 101.929 31.34V29.108C100.849 29.108 99.7693 29.72 99.1573 30.494V29.306H96.8713V38ZM102.8 33.644C102.8 36.434 104.798 38.216 107.444 38.216C108.794 38.216 110.162 37.802 111.026 37.01L110.018 35.534C109.46 36.074 108.506 36.398 107.696 36.398C106.22 36.398 105.338 35.48 105.194 34.382H111.656V33.878C111.656 31.034 109.892 29.09 107.3 29.09C104.654 29.09 102.8 31.124 102.8 33.644ZM107.3 30.908C108.812 30.908 109.388 32.006 109.442 32.834H105.158C105.266 31.97 105.878 30.908 107.3 30.908Z" fill="white"/>
</svg>
