<svg width="223" height="64" viewBox="0 0 223 64" fill="none" xmlns="http://www.w3.org/2000/svg">
<rect x="211" y="8" width="12" height="48" rx="6" fill="#F3F0EA"/>
<rect width="219" height="64" rx="8" fill="#71A894"/>
<path d="M31.974 38H34.908L32.208 33.428C33.504 33.122 34.836 31.988 34.836 29.864C34.836 27.632 33.306 25.994 30.804 25.994H25.188V38H27.744V33.698H29.616L31.974 38ZM32.226 29.846C32.226 30.854 31.452 31.502 30.426 31.502H27.744V28.19H30.426C31.452 28.19 32.226 28.838 32.226 29.846ZM35.5975 33.644C35.5975 36.434 37.5955 38.216 40.2415 38.216C41.5915 38.216 42.9595 37.802 43.8235 37.01L42.8155 35.534C42.2575 36.074 41.3035 36.398 40.4935 36.398C39.0175 36.398 38.1355 35.48 37.9915 34.382H44.4535V33.878C44.4535 31.034 42.6895 29.09 40.0975 29.09C37.4515 29.09 35.5975 31.124 35.5975 33.644ZM40.0975 30.908C41.6095 30.908 42.1855 32.006 42.2395 32.834H37.9555C38.0635 31.97 38.6755 30.908 40.0975 30.908ZM54.3667 41.312V29.306H52.0627V30.404C51.4147 29.558 50.4427 29.09 49.3807 29.09C47.1667 29.09 45.5467 30.746 45.5467 33.644C45.5467 36.542 47.1667 38.216 49.3807 38.216C50.4247 38.216 51.3607 37.784 52.0627 36.884V41.312H54.3667ZM52.0627 35.192C51.7027 35.732 50.8567 36.182 50.1007 36.182C48.8047 36.182 47.9047 35.156 47.9047 33.644C47.9047 32.15 48.8047 31.124 50.1007 31.124C50.8567 31.124 51.6847 31.556 52.0627 32.114V35.192ZM62.502 38H64.788V29.306H62.502V35.192C62.106 35.696 61.404 36.182 60.522 36.182C59.55 36.182 58.92 35.786 58.92 34.58V29.306H56.634V35.48C56.634 37.172 57.534 38.216 59.442 38.216C60.864 38.216 61.908 37.568 62.502 36.902V38ZM66.4998 33.644C66.4998 36.434 68.4978 38.216 71.1438 38.216C72.4938 38.216 73.8618 37.802 74.7258 37.01L73.7178 35.534C73.1598 36.074 72.2058 36.398 71.3958 36.398C69.9198 36.398 69.0378 35.48 68.8938 34.382H75.3558V33.878C75.3558 31.034 73.5918 29.09 70.9998 29.09C68.3538 29.09 66.4998 31.124 66.4998 33.644ZM70.9998 30.908C72.5118 30.908 73.0878 32.006 73.1418 32.834H68.8578C68.9658 31.97 69.5778 30.908 70.9998 30.908ZM76.251 36.866C77.169 37.712 78.627 38.216 80.139 38.216C82.551 38.216 83.901 37.01 83.901 35.426C83.901 33.266 81.903 32.87 80.409 32.582C79.437 32.384 78.753 32.186 78.753 31.646C78.753 31.142 79.293 30.836 80.121 30.836C81.183 30.836 82.173 31.286 82.695 31.844L83.613 30.278C82.749 29.594 81.579 29.09 80.103 29.09C77.817 29.09 76.539 30.368 76.539 31.826C76.539 33.896 78.465 34.256 79.959 34.544C80.949 34.742 81.705 34.958 81.705 35.57C81.705 36.11 81.237 36.452 80.247 36.452C79.167 36.452 77.871 35.858 77.241 35.264L76.251 36.866ZM88.5012 38.216C89.4552 38.216 90.0672 37.964 90.4092 37.658L89.9232 35.93C89.7972 36.056 89.4732 36.182 89.1312 36.182C88.6272 36.182 88.3392 35.768 88.3392 35.228V31.304H90.1032V29.306H88.3392V26.93H86.0352V29.306H84.5952V31.304H86.0352V35.84C86.0352 37.388 86.8992 38.216 88.5012 38.216ZM95.7147 33.644C95.7147 36.434 97.7127 38.216 100.359 38.216C101.709 38.216 103.077 37.802 103.941 37.01L102.933 35.534C102.375 36.074 101.421 36.398 100.611 36.398C99.1347 36.398 98.2527 35.48 98.1087 34.382H104.571V33.878C104.571 31.034 102.807 29.09 100.215 29.09C97.5687 29.09 95.7147 31.124 95.7147 33.644ZM100.215 30.908C101.727 30.908 102.303 32.006 102.357 32.834H98.0727C98.1807 31.97 98.7927 30.908 100.215 30.908ZM111.442 38H113.728V32.384C113.728 29.882 111.91 29.09 109.93 29.09C108.562 29.09 107.194 29.522 106.132 30.458L106.996 31.988C107.734 31.304 108.598 30.962 109.534 30.962C110.686 30.962 111.442 31.538 111.442 32.42V33.626C110.866 32.924 109.84 32.564 108.688 32.564C107.302 32.564 105.664 33.302 105.664 35.336C105.664 37.28 107.302 38.216 108.688 38.216C109.822 38.216 110.848 37.802 111.442 37.1V38ZM111.442 35.912C111.064 36.416 110.344 36.668 109.606 36.668C108.706 36.668 107.968 36.2 107.968 35.39C107.968 34.544 108.706 34.076 109.606 34.076C110.344 34.076 111.064 34.328 111.442 34.832V35.912ZM115.995 38H118.281V32.258C118.659 31.7 119.667 31.268 120.423 31.268C120.675 31.268 120.891 31.304 121.053 31.34V29.108C119.973 29.108 118.893 29.72 118.281 30.494V29.306H115.995V38ZM122.482 38H124.768V25.994H122.482V38ZM127.07 39.35L126.728 41.402C127.016 41.474 127.592 41.528 127.862 41.528C129.356 41.492 130.508 41.06 131.156 39.422L135.242 29.306H132.776L130.508 35.354L128.24 29.306H125.792L129.32 38.126L128.996 38.864C128.78 39.332 128.384 39.494 127.79 39.494C127.574 39.494 127.268 39.44 127.07 39.35ZM146.088 38H148.374V32.384C148.374 29.882 146.556 29.09 144.576 29.09C143.208 29.09 141.84 29.522 140.778 30.458L141.642 31.988C142.38 31.304 143.244 30.962 144.18 30.962C145.332 30.962 146.088 31.538 146.088 32.42V33.626C145.512 32.924 144.486 32.564 143.334 32.564C141.948 32.564 140.31 33.302 140.31 35.336C140.31 37.28 141.948 38.216 143.334 38.216C144.468 38.216 145.494 37.802 146.088 37.1V38ZM146.088 35.912C145.71 36.416 144.99 36.668 144.252 36.668C143.352 36.668 142.614 36.2 142.614 35.39C142.614 34.544 143.352 34.076 144.252 34.076C144.99 34.076 145.71 34.328 146.088 34.832V35.912ZM150.084 33.644C150.084 36.326 152.01 38.216 154.692 38.216C156.474 38.216 157.554 37.442 158.13 36.632L156.636 35.246C156.222 35.822 155.592 36.182 154.8 36.182C153.414 36.182 152.442 35.156 152.442 33.644C152.442 32.132 153.414 31.124 154.8 31.124C155.592 31.124 156.222 31.448 156.636 32.06L158.13 30.656C157.554 29.864 156.474 29.09 154.692 29.09C152.01 29.09 150.084 30.98 150.084 33.644ZM159.066 33.644C159.066 36.326 160.992 38.216 163.674 38.216C165.456 38.216 166.536 37.442 167.112 36.632L165.618 35.246C165.204 35.822 164.574 36.182 163.782 36.182C162.396 36.182 161.424 35.156 161.424 33.644C161.424 32.132 162.396 31.124 163.782 31.124C164.574 31.124 165.204 31.448 165.618 32.06L167.112 30.656C166.536 29.864 165.456 29.09 163.674 29.09C160.992 29.09 159.066 30.98 159.066 33.644ZM168.049 33.644C168.049 36.434 170.047 38.216 172.693 38.216C174.043 38.216 175.411 37.802 176.275 37.01L175.267 35.534C174.709 36.074 173.755 36.398 172.945 36.398C171.469 36.398 170.587 35.48 170.443 34.382H176.905V33.878C176.905 31.034 175.141 29.09 172.549 29.09C169.903 29.09 168.049 31.124 168.049 33.644ZM172.549 30.908C174.061 30.908 174.637 32.006 174.691 32.834H170.407C170.515 31.97 171.127 30.908 172.549 30.908ZM177.8 36.866C178.718 37.712 180.176 38.216 181.688 38.216C184.1 38.216 185.45 37.01 185.45 35.426C185.45 33.266 183.452 32.87 181.958 32.582C180.986 32.384 180.302 32.186 180.302 31.646C180.302 31.142 180.842 30.836 181.67 30.836C182.732 30.836 183.722 31.286 184.244 31.844L185.162 30.278C184.298 29.594 183.128 29.09 181.652 29.09C179.366 29.09 178.088 30.368 178.088 31.826C178.088 33.896 180.014 34.256 181.508 34.544C182.498 34.742 183.254 34.958 183.254 35.57C183.254 36.11 182.786 36.452 181.796 36.452C180.716 36.452 179.42 35.858 178.79 35.264L177.8 36.866ZM186.378 36.866C187.296 37.712 188.754 38.216 190.266 38.216C192.678 38.216 194.028 37.01 194.028 35.426C194.028 33.266 192.03 32.87 190.536 32.582C189.564 32.384 188.88 32.186 188.88 31.646C188.88 31.142 189.42 30.836 190.248 30.836C191.31 30.836 192.3 31.286 192.822 31.844L193.74 30.278C192.876 29.594 191.706 29.09 190.23 29.09C187.944 29.09 186.666 30.368 186.666 31.826C186.666 33.896 188.592 34.256 190.086 34.544C191.076 34.742 191.832 34.958 191.832 35.57C191.832 36.11 191.364 36.452 190.374 36.452C189.294 36.452 187.998 35.858 187.368 35.264L186.378 36.866Z" fill="white"/>
</svg>
