<svg width="443" height="256" viewBox="0 0 443 256" fill="none" xmlns="http://www.w3.org/2000/svg">
<g filter="url(#filter0_d_59_11)">
<rect x="8" y="6" width="427" height="240" rx="16" fill="white"/>
<path d="M33.808 112.032L35.76 111.968L36.848 106.144L37.984 112.032L39.904 111.968L41.504 100.64H40.048L38.88 110.208H38.848L37.088 100.64H35.696L36.224 103.632L34.96 110.208H34.928L33.568 100.64H32.08L33.808 112.032ZM49.6738 111.552L49.7378 110.304C48.6658 110.704 47.7858 110.832 47.0498 110.832C45.1138 110.832 43.8338 109.856 43.8498 108.064H49.6258C49.9298 105.328 48.4898 103.776 46.2978 103.776C43.8498 103.776 42.2338 105.408 42.2338 107.872C42.2338 110.384 43.8018 112.192 46.8578 112.16C47.8498 112.144 48.8098 111.952 49.6738 111.552ZM43.8818 106.976C43.9778 105.632 44.9858 104.96 46.0578 104.96C47.2578 104.96 48.0898 105.696 48.0578 106.96L43.8818 106.976ZM54.4195 104.72C56.1475 103.152 56.4035 102.048 56.4035 101.424C56.4035 100.576 55.9395 99.904 55.1395 99.904C54.7395 99.904 54.3235 100.128 54.0835 100.64C54.5635 101.072 54.7555 101.44 54.7555 101.856C54.7555 102.4 54.4675 103.12 53.4915 104.112L54.4195 104.72ZM68.2053 105.424L68.3653 103.952C67.9173 103.84 67.4213 103.792 67.0373 103.792C66.0613 103.792 65.1333 104.048 64.3493 105.232L64.3333 103.872L62.7973 104.032H60.7173V105.312H62.7973V112H64.4453V106.528C65.2293 105.52 66.0773 105.264 66.8773 105.264C67.3253 105.264 67.7093 105.312 68.2053 105.424ZM77.495 111.552L77.559 110.304C76.487 110.704 75.607 110.832 74.871 110.832C72.935 110.832 71.655 109.856 71.671 108.064H77.447C77.751 105.328 76.311 103.776 74.119 103.776C71.671 103.776 70.055 105.408 70.055 107.872C70.055 110.384 71.623 112.192 74.679 112.16C75.671 112.144 76.631 111.952 77.495 111.552ZM71.703 106.976C71.799 105.632 72.807 104.96 73.879 104.96C75.079 104.96 75.911 105.696 75.879 106.96L71.703 106.976ZM88.4425 112H96.2345V110.704H93.2585V99.648L91.6265 99.776H88.8585V101.056H91.6265V110.704H88.4425V112ZM105.732 107.792C105.732 105.248 104.116 103.776 101.844 103.776C99.4923 103.776 97.6843 105.28 97.6843 107.952C97.6843 110.672 99.5563 112.16 101.668 112.16C103.844 112.16 105.732 110.672 105.732 107.792ZM104.036 107.936C104.036 109.744 103.108 110.848 101.796 110.848H101.684C100.308 110.848 99.3803 109.584 99.3803 107.856C99.3803 105.984 100.388 105.104 101.7 105.104C103.172 105.104 104.036 106.24 104.036 107.936ZM115.006 107.792C115.006 105.248 113.39 103.776 111.118 103.776C108.766 103.776 106.958 105.28 106.958 107.952C106.958 110.672 108.83 112.16 110.942 112.16C113.118 112.16 115.006 110.672 115.006 107.792ZM113.31 107.936C113.31 109.744 112.382 110.848 111.07 110.848H110.958C109.582 110.848 108.654 109.584 108.654 107.856C108.654 105.984 109.662 105.104 110.974 105.104C112.446 105.104 113.31 106.24 113.31 107.936ZM116.84 112H118.488V99.648L116.84 99.776V112ZM122.328 112H124.392L120.68 107.664L124.2 103.936H122.232L118.776 107.744L122.328 112ZM130.61 101.216C130.61 100.576 130.194 100.112 129.57 100.112C128.898 100.112 128.482 100.576 128.482 101.152C128.482 101.792 128.914 102.256 129.522 102.256C130.162 102.256 130.61 101.824 130.61 101.216ZM125.538 112H133.33V110.704H130.354V103.92L128.722 104.032H125.954V105.312H128.722V110.704H125.538V112ZM140.635 112H142.283V107.136C142.283 105.072 141.387 103.792 139.451 103.792C138.491 103.792 137.643 104.08 136.907 104.912L136.859 103.872L135.371 104.016V112H137.019V106.048C137.643 105.44 138.315 105.2 138.971 105.2C140.107 105.2 140.635 105.968 140.635 107.472V112ZM152.405 105.392L152.485 104.256H149.717C149.173 103.936 148.469 103.76 147.685 103.76C145.669 103.76 144.245 105.104 144.245 106.896C144.245 108.304 144.965 109.248 145.973 109.68C145.461 110.016 145.157 110.512 145.157 111.008C145.157 111.424 145.349 111.776 145.733 112.064C144.133 112.368 143.557 113.216 143.557 114.112C143.557 115.136 144.597 116.352 147.237 116.352C150.741 116.352 152.117 114.4 152.117 113.232C152.117 111.824 151.013 111.344 149.253 111.296L148.341 111.28C147.045 111.248 146.613 110.896 146.613 110.464C146.613 110.288 146.693 110.096 146.853 109.936C147.093 110 147.381 110.032 147.653 110.032C149.861 110.032 151.141 108.608 151.141 106.896C151.141 106.336 150.997 105.792 150.709 105.392H152.405ZM149.605 106.896C149.605 108.08 148.869 108.912 147.653 108.912C146.757 108.912 145.813 108.32 145.813 106.912C145.813 105.648 146.549 104.848 147.717 104.848C148.629 104.848 149.605 105.472 149.605 106.896ZM150.581 113.568C150.581 114.224 149.797 115.2 147.525 115.2C145.765 115.2 145.029 114.528 145.029 113.856C145.029 113.296 145.461 112.752 146.629 112.496C146.965 112.624 147.413 112.688 147.973 112.704L148.837 112.736C150.117 112.752 150.581 113.008 150.581 113.568ZM170.985 101.088L171.097 99.824C170.441 99.648 169.737 99.6 169.193 99.6C166.521 99.6 165.065 100.816 165.065 103.2V104.128L163.017 104.272V105.424H165.065V112H166.713V105.424H169.881L169.977 104.128H166.713V103.072C166.713 101.488 167.545 100.944 169.273 100.944C169.641 100.944 170.265 100.976 170.985 101.088ZM179.922 107.792C179.922 105.248 178.306 103.776 176.034 103.776C173.682 103.776 171.874 105.28 171.874 107.952C171.874 110.672 173.746 112.16 175.858 112.16C178.034 112.16 179.922 110.672 179.922 107.792ZM178.226 107.936C178.226 109.744 177.298 110.848 175.986 110.848H175.874C174.498 110.848 173.57 109.584 173.57 107.856C173.57 105.984 174.578 105.104 175.89 105.104C177.362 105.104 178.226 106.24 178.226 107.936ZM188.764 105.424L188.924 103.952C188.476 103.84 187.98 103.792 187.596 103.792C186.62 103.792 185.692 104.048 184.908 105.232L184.892 103.872L183.356 104.032H181.276V105.312H183.356V112H185.004V106.528C185.788 105.52 186.636 105.264 187.436 105.264C187.884 105.264 188.268 105.312 188.764 105.424ZM207.056 109.552C207.056 108.528 206.56 107.728 204.64 107.36L203.632 107.152C202.272 106.88 201.968 106.592 201.968 106.096C201.968 105.568 202.512 105.072 203.984 105.072C204.704 105.072 205.568 105.2 206.496 105.488L206.608 104.24C205.824 103.936 204.848 103.792 203.968 103.792C201.312 103.792 200.32 105.072 200.32 106.208C200.32 107.232 200.912 108.032 202.64 108.368L203.616 108.576C205.136 108.88 205.344 109.216 205.344 109.68C205.344 110.256 204.752 110.848 203.2 110.848C202.336 110.848 201.472 110.688 200.304 110.24L200.352 111.552C201.232 111.952 202.288 112.144 203.248 112.144C206.08 112.144 207.056 110.752 207.056 109.552ZM217.017 107.792C217.017 105.248 215.401 103.776 213.129 103.776C210.777 103.776 208.969 105.28 208.969 107.952C208.969 110.672 210.841 112.16 212.953 112.16C215.129 112.16 217.017 110.672 217.017 107.792ZM215.321 107.936C215.321 109.744 214.393 110.848 213.081 110.848H212.969C211.593 110.848 210.665 109.584 210.665 107.856C210.665 105.984 211.673 105.104 212.985 105.104C214.457 105.104 215.321 106.24 215.321 107.936ZM224.883 112H226.451V107.168C226.451 105.696 226.243 103.792 224.579 103.792C223.891 103.792 223.267 104.144 222.691 105.072C222.499 104.256 221.987 103.792 221.299 103.792C220.691 103.792 220.051 104.08 219.571 104.912L219.507 103.872L218.131 104.016V112H219.699V106C220.019 105.408 220.371 105.2 220.691 105.2C221.539 105.2 221.587 106.576 221.587 107.344V112H222.995V107.504C222.995 106.976 222.979 106.464 222.931 106.048C223.283 105.408 223.635 105.2 223.971 105.2C224.643 105.2 224.883 105.968 224.883 107.136V112ZM235.149 111.552L235.213 110.304C234.141 110.704 233.261 110.832 232.525 110.832C230.589 110.832 229.309 109.856 229.325 108.064H235.101C235.405 105.328 233.965 103.776 231.773 103.776C229.325 103.776 227.709 105.408 227.709 107.872C227.709 110.384 229.277 112.192 232.333 112.16C233.325 112.144 234.285 111.952 235.149 111.552ZM229.357 106.976C229.453 105.632 230.461 104.96 231.533 104.96C232.733 104.96 233.565 105.696 233.533 106.96L229.357 106.976ZM244.839 107.792C244.839 105.248 243.223 103.776 240.951 103.776C238.599 103.776 236.791 105.28 236.791 107.952C236.791 110.672 238.663 112.16 240.775 112.16C242.951 112.16 244.839 110.672 244.839 107.792ZM243.143 107.936C243.143 109.744 242.215 110.848 240.903 110.848H240.791C239.415 110.848 238.487 109.584 238.487 107.856C238.487 105.984 239.495 105.104 240.807 105.104C242.279 105.104 243.143 106.24 243.143 107.936ZM251.92 112H253.568V107.136C253.568 105.072 252.672 103.792 250.736 103.792C249.776 103.792 248.928 104.08 248.192 104.912L248.144 103.872L246.656 104.016V112H248.304V106.048C248.928 105.44 249.6 105.2 250.256 105.2C251.392 105.2 251.92 105.968 251.92 107.472V112ZM262.97 111.552L263.034 110.304C261.962 110.704 261.082 110.832 260.346 110.832C258.41 110.832 257.13 109.856 257.146 108.064H262.922C263.226 105.328 261.786 103.776 259.594 103.776C257.146 103.776 255.53 105.408 255.53 107.872C255.53 110.384 257.098 112.192 260.154 112.16C261.146 112.144 262.106 111.952 262.97 111.552ZM257.178 106.976C257.274 105.632 258.282 104.96 259.354 104.96C260.554 104.96 261.386 105.696 261.354 106.96L257.178 106.976ZM278.989 101.216C278.989 100.576 278.573 100.112 277.949 100.112C277.277 100.112 276.861 100.576 276.861 101.152C276.861 101.792 277.293 102.256 277.901 102.256C278.541 102.256 278.989 101.824 278.989 101.216ZM273.917 112H281.709V110.704H278.733V103.92L277.101 104.032H274.333V105.312H277.101V110.704H273.917V112ZM289.015 112H290.663V107.136C290.663 105.072 289.767 103.792 287.831 103.792C286.871 103.792 286.023 104.08 285.287 104.912L285.239 103.872L283.751 104.016V112H285.399V106.048C286.023 105.44 286.695 105.2 287.351 105.2C288.487 105.2 289.015 105.968 289.015 107.472V112ZM299.681 111.776L299.697 110.512C298.945 110.72 298.369 110.784 297.953 110.784C297.025 110.784 296.081 110.48 296.081 109.296V105.424H299.233L299.329 104.128H296.081V102.448L294.753 102.464L294.465 104.128L292.801 104.288V105.424H294.433V109.472C294.433 111.568 295.873 112.144 297.681 112.144C298.209 112.144 298.977 112.048 299.681 111.776ZM309.339 111.552L309.403 110.304C308.331 110.704 307.451 110.832 306.715 110.832C304.779 110.832 303.499 109.856 303.515 108.064H309.291C309.595 105.328 308.155 103.776 305.963 103.776C303.515 103.776 301.899 105.408 301.899 107.872C301.899 110.384 303.467 112.192 306.523 112.16C307.515 112.144 308.475 111.952 309.339 111.552ZM303.547 106.976C303.643 105.632 304.651 104.96 305.723 104.96C306.923 104.96 307.755 105.696 307.723 106.96L303.547 106.976ZM318.596 105.424L318.756 103.952C318.308 103.84 317.812 103.792 317.428 103.792C316.452 103.792 315.524 104.048 314.74 105.232L314.724 103.872L313.188 104.032H311.108V105.312H313.188V112H314.836V106.528C315.62 105.52 316.468 105.264 317.268 105.264C317.716 105.264 318.1 105.312 318.596 105.424ZM327.886 111.552L327.95 110.304C326.878 110.704 325.998 110.832 325.262 110.832C323.326 110.832 322.046 109.856 322.062 108.064H327.838C328.142 105.328 326.702 103.776 324.51 103.776C322.062 103.776 320.446 105.408 320.446 107.872C320.446 110.384 322.014 112.192 325.07 112.16C326.062 112.144 327.022 111.952 327.886 111.552ZM322.094 106.976C322.19 105.632 323.198 104.96 324.27 104.96C325.47 104.96 326.302 105.696 326.27 106.96L322.094 106.976ZM336.888 109.552C336.888 108.528 336.392 107.728 334.472 107.36L333.464 107.152C332.104 106.88 331.8 106.592 331.8 106.096C331.8 105.568 332.344 105.072 333.816 105.072C334.536 105.072 335.4 105.2 336.328 105.488L336.44 104.24C335.656 103.936 334.68 103.792 333.8 103.792C331.144 103.792 330.152 105.072 330.152 106.208C330.152 107.232 330.744 108.032 332.472 108.368L333.448 108.576C334.968 108.88 335.176 109.216 335.176 109.68C335.176 110.256 334.584 110.848 333.032 110.848C332.168 110.848 331.304 110.688 330.136 110.24L330.184 111.552C331.064 111.952 332.12 112.144 333.08 112.144C335.912 112.144 336.888 110.752 336.888 109.552ZM346.05 111.776L346.066 110.512C345.314 110.72 344.738 110.784 344.322 110.784C343.394 110.784 342.45 110.48 342.45 109.296V105.424H345.602L345.698 104.128H342.45V102.448L341.122 102.464L340.834 104.128L339.17 104.288V105.424H340.802V109.472C340.802 111.568 342.242 112.144 344.05 112.144C344.578 112.144 345.346 112.048 346.05 111.776ZM355.707 111.552L355.771 110.304C354.699 110.704 353.819 110.832 353.083 110.832C351.147 110.832 349.867 109.856 349.883 108.064H355.659C355.963 105.328 354.523 103.776 352.331 103.776C349.883 103.776 348.267 105.408 348.267 107.872C348.267 110.384 349.835 112.192 352.891 112.16C353.883 112.144 354.843 111.952 355.707 111.552ZM349.915 106.976C350.011 105.632 351.019 104.96 352.091 104.96C353.291 104.96 354.123 105.696 354.091 106.96L349.915 106.976ZM363.445 112.08L364.949 111.936V99.632L363.301 99.776V103.984C362.853 103.856 362.341 103.792 361.845 103.792C359.093 103.792 357.461 105.536 357.461 108.16C357.461 110.8 358.981 112.176 360.869 112.176C361.781 112.176 362.661 111.888 363.381 111.056L363.445 112.08ZM363.301 105.36V109.888C362.645 110.576 361.957 110.8 361.285 110.8C360.197 110.8 359.141 109.936 359.141 107.952C359.141 106.112 360.181 105.104 361.797 105.104C362.213 105.104 362.757 105.168 363.301 105.36ZM381.001 101.216C381.001 100.576 380.585 100.112 379.961 100.112C379.289 100.112 378.873 100.576 378.873 101.152C378.873 101.792 379.305 102.256 379.913 102.256C380.553 102.256 381.001 101.824 381.001 101.216ZM375.929 112H383.721V110.704H380.745V103.92L379.113 104.032H376.345V105.312H379.113V110.704H375.929V112ZM391.026 112H392.674V107.136C392.674 105.072 391.778 103.792 389.842 103.792C388.882 103.792 388.034 104.08 387.298 104.912L387.25 103.872L385.762 104.016V112H387.41V106.048C388.034 105.44 388.706 105.2 389.362 105.2C390.498 105.2 391.026 105.968 391.026 107.472V112ZM40.704 131.76C40.704 129.152 39.168 127.792 37.296 127.792C36.384 127.792 35.472 128.096 34.8 128.928C34.816 128.768 34.864 128.4 34.864 127.76V123.648L33.216 123.776V134.112C33.216 135.008 33.136 135.472 33.104 135.68C34.08 136 35.264 136.176 36.176 136.176C39.088 136.176 40.704 134.432 40.704 131.76ZM38.992 131.984C38.992 133.856 37.984 134.88 36.4 134.88C35.92 134.88 35.36 134.8 34.816 134.624C34.864 134.368 34.864 134.096 34.864 133.68V130.064C35.536 129.392 36.208 129.168 36.88 129.168C37.952 129.168 38.992 130.032 38.992 131.984ZM45.4338 136.16C46.3938 136.16 47.2418 135.872 47.9938 135.04L48.0258 136.08L49.5298 135.936V127.872L47.8818 128.016V133.904C47.2418 134.512 46.5538 134.752 45.9138 134.752C44.7938 134.752 44.2498 133.984 44.2498 132.48V127.872L42.6178 128.016V132.816C42.6178 134.88 43.5138 136.16 45.4338 136.16ZM58.6755 133.552C58.6755 132.528 58.1795 131.728 56.2595 131.36L55.2515 131.152C53.8915 130.88 53.5875 130.592 53.5875 130.096C53.5875 129.568 54.1315 129.072 55.6035 129.072C56.3235 129.072 57.1875 129.2 58.1155 129.488L58.2275 128.24C57.4435 127.936 56.4675 127.792 55.5875 127.792C52.9315 127.792 51.9395 129.072 51.9395 130.208C51.9395 131.232 52.5315 132.032 54.2595 132.368L55.2355 132.576C56.7555 132.88 56.9635 133.216 56.9635 133.68C56.9635 134.256 56.3715 134.848 54.8195 134.848C53.9555 134.848 53.0915 134.688 51.9235 134.24L51.9715 135.552C52.8515 135.952 53.9075 136.144 54.8675 136.144C57.6995 136.144 58.6755 134.752 58.6755 133.552ZM65.6933 125.216C65.6933 124.576 65.2773 124.112 64.6533 124.112C63.9813 124.112 63.5653 124.576 63.5653 125.152C63.5653 125.792 63.9973 126.256 64.6053 126.256C65.2453 126.256 65.6933 125.824 65.6933 125.216ZM60.6213 136H68.4133V134.704H65.4373V127.92L63.8053 128.032H61.0373V129.312H63.8053V134.704H60.6213V136ZM75.719 136H77.367V131.136C77.367 129.072 76.471 127.792 74.535 127.792C73.575 127.792 72.727 128.08 71.991 128.912L71.943 127.872L70.455 128.016V136H72.103V130.048C72.727 129.44 73.399 129.2 74.055 129.2C75.191 129.2 75.719 129.968 75.719 131.472V136ZM86.7688 135.552L86.8328 134.304C85.7608 134.704 84.8808 134.832 84.1448 134.832C82.2088 134.832 80.9288 133.856 80.9448 132.064H86.7208C87.0248 129.328 85.5848 127.776 83.3928 127.776C80.9448 127.776 79.3288 129.408 79.3288 131.872C79.3288 134.384 80.8968 136.192 83.9528 136.16C84.9448 136.144 85.9048 135.952 86.7688 135.552ZM80.9768 130.976C81.0728 129.632 82.0808 128.96 83.1528 128.96C84.3528 128.96 85.1848 129.696 85.1528 130.96L80.9768 130.976ZM95.7705 133.552C95.7705 132.528 95.2745 131.728 93.3545 131.36L92.3465 131.152C90.9865 130.88 90.6825 130.592 90.6825 130.096C90.6825 129.568 91.2265 129.072 92.6985 129.072C93.4185 129.072 94.2825 129.2 95.2105 129.488L95.3225 128.24C94.5385 127.936 93.5625 127.792 92.6825 127.792C90.0265 127.792 89.0345 129.072 89.0345 130.208C89.0345 131.232 89.6265 132.032 91.3545 132.368L92.3305 132.576C93.8505 132.88 94.0585 133.216 94.0585 133.68C94.0585 134.256 93.4665 134.848 91.9145 134.848C91.0505 134.848 90.1865 134.688 89.0185 134.24L89.0665 135.552C89.9465 135.952 91.0025 136.144 91.9625 136.144C94.7945 136.144 95.7705 134.752 95.7705 133.552ZM105.044 133.552C105.044 132.528 104.548 131.728 102.628 131.36L101.62 131.152C100.26 130.88 99.9563 130.592 99.9563 130.096C99.9563 129.568 100.5 129.072 101.972 129.072C102.692 129.072 103.556 129.2 104.484 129.488L104.596 128.24C103.812 127.936 102.836 127.792 101.956 127.792C99.3003 127.792 98.3083 129.072 98.3083 130.208C98.3083 131.232 98.9003 132.032 100.628 132.368L101.604 132.576C103.124 132.88 103.332 133.216 103.332 133.68C103.332 134.256 102.74 134.848 101.188 134.848C100.324 134.848 99.4603 134.688 98.2923 134.24L98.3403 135.552C99.2203 135.952 100.276 136.144 101.236 136.144C104.068 136.144 105.044 134.752 105.044 133.552ZM123.48 135.776L123.496 134.512C122.744 134.72 122.168 134.784 121.752 134.784C120.824 134.784 119.88 134.48 119.88 133.296V129.424H123.032L123.128 128.128H119.88V126.448L118.552 126.464L118.264 128.128L116.6 128.288V129.424H118.232V133.472C118.232 135.568 119.672 136.144 121.48 136.144C122.008 136.144 122.776 136.048 123.48 135.776ZM126.098 136H127.746V130.048C128.37 129.44 129.058 129.2 129.698 129.2C130.834 129.2 131.362 129.968 131.362 131.472V136H133.01V131.136C133.01 129.072 132.114 127.792 130.178 127.792C129.218 127.792 128.386 128.08 127.682 128.848C127.73 128.544 127.746 128.192 127.746 127.632V123.648L126.098 123.776V136ZM142.411 135.552L142.475 134.304C141.403 134.704 140.523 134.832 139.787 134.832C137.851 134.832 136.571 133.856 136.587 132.064H142.363C142.667 129.328 141.227 127.776 139.035 127.776C136.587 127.776 134.971 129.408 134.971 131.872C134.971 134.384 136.539 136.192 139.595 136.16C140.587 136.144 141.547 135.952 142.411 135.552ZM136.619 130.976C136.715 129.632 137.723 128.96 138.795 128.96C139.995 128.96 140.827 129.696 140.795 130.96L136.619 130.976ZM152.101 131.792C152.101 129.248 150.485 127.776 148.213 127.776C145.861 127.776 144.053 129.28 144.053 131.952C144.053 134.672 145.925 136.16 148.037 136.16C150.213 136.16 152.101 134.672 152.101 131.792ZM150.405 131.936C150.405 133.744 149.477 134.848 148.165 134.848H148.053C146.677 134.848 145.749 133.584 145.749 131.856C145.749 129.984 146.757 129.104 148.069 129.104C149.541 129.104 150.405 130.24 150.405 131.936ZM160.943 129.424L161.103 127.952C160.655 127.84 160.159 127.792 159.775 127.792C158.799 127.792 157.871 128.048 157.087 129.232L157.071 127.872L155.535 128.032H153.455V129.312H155.535V136H157.183V130.528C157.967 129.52 158.815 129.264 159.615 129.264C160.063 129.264 160.447 129.312 160.943 129.424ZM170.761 127.936H169.129C168.761 130.512 168.153 133.12 166.857 135.264C165.513 132.272 164.041 127.936 164.041 127.936H162.185C162.185 127.936 163.945 132.8 165.785 136.704C165.097 137.504 164.089 138.192 162.313 138.832L162.905 140.192C164.601 139.6 166.009 138.784 167.049 137.6C169.305 135.104 170.345 131.072 170.761 127.936ZM189.34 136.032L189.404 135.024C188.044 135.104 188.06 134.624 188.06 133.744V130.784C188.06 128.752 187.052 127.792 184.812 127.792C183.916 127.792 182.748 128.032 181.9 128.544L182.012 129.76C183.052 129.264 183.9 129.12 184.636 129.12C186.044 129.12 186.444 129.776 186.444 130.864V131.264C182.46 131.232 181.34 132.704 181.34 134C181.34 135.376 182.46 136.176 184.012 136.176C185.004 136.176 185.9 135.904 186.652 135.184C186.876 135.904 187.516 136.144 188.3 136.144C188.652 136.144 188.972 136.112 189.34 136.032ZM186.444 132.4V134.208C185.804 134.704 185.116 134.928 184.444 134.928C183.42 134.928 182.892 134.496 182.892 133.84C182.892 133.136 183.756 132.272 186.444 132.4ZM196.278 136H197.926V131.136C197.926 129.072 197.03 127.792 195.094 127.792C194.134 127.792 193.286 128.08 192.55 128.912L192.502 127.872L191.014 128.016V136H192.662V130.048C193.286 129.44 193.958 129.2 194.614 129.2C195.75 129.2 196.278 129.968 196.278 131.472V136ZM205.792 136.08L207.296 135.936V123.632L205.648 123.776V127.984C205.2 127.856 204.688 127.792 204.192 127.792C201.44 127.792 199.808 129.536 199.808 132.16C199.808 134.8 201.328 136.176 203.216 136.176C204.128 136.176 205.008 135.888 205.728 135.056L205.792 136.08ZM205.648 129.36V133.888C204.992 134.576 204.304 134.8 203.632 134.8C202.544 134.8 201.488 133.936 201.488 131.952C201.488 130.112 202.528 129.104 204.144 129.104C204.56 129.104 205.104 129.168 205.648 129.36ZM225.859 129.424L226.019 127.952C225.571 127.84 225.075 127.792 224.691 127.792C223.715 127.792 222.787 128.048 222.003 129.232L221.987 127.872L220.451 128.032H218.371V129.312H220.451V136H222.099V130.528C222.883 129.52 223.731 129.264 224.531 129.264C224.979 129.264 225.363 129.312 225.859 129.424ZM235.149 135.552L235.213 134.304C234.141 134.704 233.261 134.832 232.525 134.832C230.589 134.832 229.309 133.856 229.325 132.064H235.101C235.405 129.328 233.965 127.776 231.773 127.776C229.325 127.776 227.709 129.408 227.709 131.872C227.709 134.384 229.277 136.192 232.333 136.16C233.325 136.144 234.285 135.952 235.149 135.552ZM229.357 130.976C229.453 129.632 230.461 128.96 231.533 128.96C232.733 128.96 233.565 129.696 233.533 130.96L229.357 130.976ZM244.151 133.552C244.151 132.528 243.655 131.728 241.735 131.36L240.727 131.152C239.367 130.88 239.063 130.592 239.063 130.096C239.063 129.568 239.607 129.072 241.079 129.072C241.799 129.072 242.663 129.2 243.591 129.488L243.703 128.24C242.919 127.936 241.943 127.792 241.063 127.792C238.407 127.792 237.415 129.072 237.415 130.208C237.415 131.232 238.007 132.032 239.735 132.368L240.711 132.576C242.231 132.88 242.439 133.216 242.439 133.68C242.439 134.256 241.847 134.848 240.295 134.848C239.431 134.848 238.567 134.688 237.399 134.24L237.447 135.552C238.327 135.952 239.383 136.144 240.343 136.144C243.175 136.144 244.151 134.752 244.151 133.552ZM253.696 135.552L253.76 134.304C252.688 134.704 251.808 134.832 251.072 134.832C249.136 134.832 247.856 133.856 247.872 132.064H253.648C253.952 129.328 252.512 127.776 250.32 127.776C247.872 127.776 246.256 129.408 246.256 131.872C246.256 134.384 247.824 136.192 250.88 136.16C251.872 136.144 252.832 135.952 253.696 135.552ZM247.904 130.976C248 129.632 249.008 128.96 250.08 128.96C251.28 128.96 252.112 129.696 252.08 130.96L247.904 130.976ZM263.53 136.032L263.594 135.024C262.234 135.104 262.25 134.624 262.25 133.744V130.784C262.25 128.752 261.242 127.792 259.002 127.792C258.106 127.792 256.938 128.032 256.09 128.544L256.202 129.76C257.242 129.264 258.09 129.12 258.826 129.12C260.234 129.12 260.634 129.776 260.634 130.864V131.264C256.65 131.232 255.53 132.704 255.53 134C255.53 135.376 256.65 136.176 258.202 136.176C259.194 136.176 260.09 135.904 260.842 135.184C261.066 135.904 261.706 136.144 262.49 136.144C262.842 136.144 263.162 136.112 263.53 136.032ZM260.634 132.4V134.208C259.994 134.704 259.306 134.928 258.634 134.928C257.61 134.928 257.082 134.496 257.082 133.84C257.082 133.136 257.946 132.272 260.634 132.4ZM272.228 129.424L272.388 127.952C271.94 127.84 271.444 127.792 271.06 127.792C270.084 127.792 269.156 128.048 268.372 129.232L268.356 127.872L266.82 128.032H264.74V129.312H266.82V136H268.468V130.528C269.252 129.52 270.1 129.264 270.9 129.264C271.348 129.264 271.732 129.312 272.228 129.424ZM281.341 135.632L281.373 134.272C280.381 134.656 279.629 134.752 279.021 134.752C277.309 134.752 275.997 133.856 275.997 131.84C275.997 129.904 277.229 129.168 278.877 129.168C279.437 129.168 280.157 129.232 281.069 129.536L281.213 128.176C280.413 127.888 279.485 127.792 278.797 127.792C276.205 127.792 274.301 129.136 274.301 132.048C274.301 134.576 275.965 136.144 278.797 136.144C279.485 136.144 280.493 136.016 281.341 135.632ZM283.751 136H285.399V130.048C286.023 129.44 286.711 129.2 287.351 129.2C288.487 129.2 289.015 129.968 289.015 131.472V136H290.663V131.136C290.663 129.072 289.767 127.792 287.831 127.792C286.871 127.792 286.039 128.08 285.335 128.848C285.383 128.544 285.399 128.192 285.399 127.632V123.648L283.751 123.776V136ZM308.955 135.776L308.971 134.512C308.219 134.72 307.643 134.784 307.227 134.784C306.299 134.784 305.355 134.48 305.355 133.296V129.424H308.507L308.603 128.128H305.355V126.448L304.027 126.464L303.739 128.128L302.075 128.288V129.424H303.707V133.472C303.707 135.568 305.147 136.144 306.955 136.144C307.483 136.144 308.251 136.048 308.955 135.776ZM311.572 136H313.22V130.048C313.844 129.44 314.532 129.2 315.172 129.2C316.308 129.2 316.836 129.968 316.836 131.472V136H318.484V131.136C318.484 129.072 317.588 127.792 315.652 127.792C314.692 127.792 313.86 128.08 313.156 128.848C313.204 128.544 313.22 128.192 313.22 127.632V123.648L311.572 123.776V136ZM328.446 136.032L328.51 135.024C327.15 135.104 327.166 134.624 327.166 133.744V130.784C327.166 128.752 326.158 127.792 323.918 127.792C323.022 127.792 321.854 128.032 321.006 128.544L321.118 129.76C322.158 129.264 323.006 129.12 323.742 129.12C325.15 129.12 325.55 129.776 325.55 130.864V131.264C321.566 131.232 320.446 132.704 320.446 134C320.446 135.376 321.566 136.176 323.118 136.176C324.11 136.176 325.006 135.904 325.758 135.184C325.982 135.904 326.622 136.144 327.406 136.144C327.758 136.144 328.078 136.112 328.446 136.032ZM325.55 132.4V134.208C324.91 134.704 324.222 134.928 323.55 134.928C322.526 134.928 321.998 134.496 321.998 133.84C321.998 133.136 322.862 132.272 325.55 132.4ZM336.776 135.776L336.792 134.512C336.04 134.72 335.464 134.784 335.048 134.784C334.12 134.784 333.176 134.48 333.176 133.296V129.424H336.328L336.424 128.128H333.176V126.448L331.848 126.464L331.56 128.128L329.896 128.288V129.424H331.528V133.472C331.528 135.568 332.968 136.144 334.776 136.144C335.304 136.144 336.072 136.048 336.776 135.776ZM341.906 128.72C343.634 127.152 343.89 126.048 343.89 125.424C343.89 124.576 343.426 123.904 342.626 123.904C342.226 123.904 341.81 124.128 341.57 124.64C342.05 125.072 342.242 125.44 342.242 125.856C342.242 126.4 341.954 127.12 340.978 128.112L341.906 128.72ZM348.107 136H355.899V134.704H352.923V123.648L351.291 123.776H348.523V125.056H351.291V134.704H348.107V136ZM357.381 136H365.173V134.704H362.197V123.648L360.565 123.776H357.797V125.056H360.565V134.704H357.381V136ZM33.36 160H35.008V154.048C35.632 153.44 36.32 153.2 36.96 153.2C38.096 153.2 38.624 153.968 38.624 155.472V160H40.272V155.136C40.272 153.072 39.376 151.792 37.44 151.792C36.48 151.792 35.648 152.08 34.944 152.848C34.992 152.544 35.008 152.192 35.008 151.632V147.648L33.36 147.776V160ZM49.6738 159.552L49.7378 158.304C48.6658 158.704 47.7858 158.832 47.0498 158.832C45.1138 158.832 43.8338 157.856 43.8498 156.064H49.6258C49.9298 153.328 48.4898 151.776 46.2978 151.776C43.8498 151.776 42.2338 153.408 42.2338 155.872C42.2338 158.384 43.8018 160.192 46.8578 160.16C47.8498 160.144 48.8098 159.952 49.6738 159.552ZM43.8818 154.976C43.9778 153.632 44.9858 152.96 46.0578 152.96C47.2578 152.96 48.0898 153.696 48.0578 154.96L43.8818 154.976ZM51.3475 160H59.1395V158.704H56.1635V147.648L54.5315 147.776H51.7635V149.056H54.5315V158.704H51.3475V160ZM61.0533 164H62.7013V160.016C63.0853 160.128 63.5653 160.176 64.0293 160.176C66.9413 160.176 68.5413 158.432 68.5413 155.76C68.5413 153.152 67.0213 151.792 65.1333 151.792C64.2213 151.792 63.2933 152.096 62.6053 152.96L62.5573 151.872L61.0533 152.016V164ZM64.2373 158.88C63.7573 158.88 63.2133 158.8 62.7013 158.592V154.064C63.3733 153.392 64.0613 153.168 64.7173 153.168C65.8053 153.168 66.8613 154.032 66.8613 155.984C66.8613 157.856 65.8373 158.88 64.2373 158.88ZM82.5288 160.16C83.4888 160.16 84.3368 159.872 85.0888 159.04L85.1208 160.08L86.6248 159.936V151.872L84.9768 152.016V157.904C84.3368 158.512 83.6488 158.752 83.0088 158.752C81.8888 158.752 81.3448 157.984 81.3448 156.48V151.872L79.7128 152.016V156.816C79.7128 158.88 80.6088 160.16 82.5288 160.16ZM95.7705 157.552C95.7705 156.528 95.2745 155.728 93.3545 155.36L92.3465 155.152C90.9865 154.88 90.6825 154.592 90.6825 154.096C90.6825 153.568 91.2265 153.072 92.6985 153.072C93.4185 153.072 94.2825 153.2 95.2105 153.488L95.3225 152.24C94.5385 151.936 93.5625 151.792 92.6825 151.792C90.0265 151.792 89.0345 153.072 89.0345 154.208C89.0345 155.232 89.6265 156.032 91.3545 156.368L92.3305 156.576C93.8505 156.88 94.0585 157.216 94.0585 157.68C94.0585 158.256 93.4665 158.848 91.9145 158.848C91.0505 158.848 90.1865 158.688 89.0185 158.24L89.0665 159.552C89.9465 159.952 91.0025 160.144 91.9625 160.144C94.7945 160.144 95.7705 158.752 95.7705 157.552ZM114.894 155.76C114.894 153.152 113.358 151.792 111.486 151.792C110.574 151.792 109.662 152.096 108.99 152.928C109.006 152.768 109.054 152.4 109.054 151.76V147.648L107.406 147.776V158.112C107.406 159.008 107.326 159.472 107.294 159.68C108.27 160 109.454 160.176 110.366 160.176C113.278 160.176 114.894 158.432 114.894 155.76ZM113.182 155.984C113.182 157.856 112.174 158.88 110.59 158.88C110.11 158.88 109.55 158.8 109.006 158.624C109.054 158.368 109.054 158.096 109.054 157.68V154.064C109.726 153.392 110.398 153.168 111.07 153.168C112.142 153.168 113.182 154.032 113.182 155.984ZM123.848 153.424L124.008 151.952C123.56 151.84 123.064 151.792 122.68 151.792C121.704 151.792 120.776 152.048 119.992 153.232L119.976 151.872L118.44 152.032H116.36V153.312H118.44V160H120.088V154.528C120.872 153.52 121.72 153.264 122.52 153.264C122.968 153.264 123.352 153.312 123.848 153.424ZM130.61 149.216C130.61 148.576 130.194 148.112 129.57 148.112C128.898 148.112 128.482 148.576 128.482 149.152C128.482 149.792 128.914 150.256 129.522 150.256C130.162 150.256 130.61 149.824 130.61 149.216ZM125.538 160H133.33V158.704H130.354V151.92L128.722 152.032H125.954V153.312H128.722V158.704H125.538V160ZM140.875 160.08L142.379 159.936V147.632L140.731 147.776V151.984C140.283 151.856 139.771 151.792 139.275 151.792C136.523 151.792 134.891 153.536 134.891 156.16C134.891 158.8 136.411 160.176 138.299 160.176C139.211 160.176 140.091 159.888 140.811 159.056L140.875 160.08ZM140.731 153.36V157.888C140.075 158.576 139.387 158.8 138.715 158.8C137.627 158.8 136.571 157.936 136.571 155.952C136.571 154.112 137.611 153.104 139.227 153.104C139.643 153.104 140.187 153.168 140.731 153.36ZM152.405 153.392L152.485 152.256H149.717C149.173 151.936 148.469 151.76 147.685 151.76C145.669 151.76 144.245 153.104 144.245 154.896C144.245 156.304 144.965 157.248 145.973 157.68C145.461 158.016 145.157 158.512 145.157 159.008C145.157 159.424 145.349 159.776 145.733 160.064C144.133 160.368 143.557 161.216 143.557 162.112C143.557 163.136 144.597 164.352 147.237 164.352C150.741 164.352 152.117 162.4 152.117 161.232C152.117 159.824 151.013 159.344 149.253 159.296L148.341 159.28C147.045 159.248 146.613 158.896 146.613 158.464C146.613 158.288 146.693 158.096 146.853 157.936C147.093 158 147.381 158.032 147.653 158.032C149.861 158.032 151.141 156.608 151.141 154.896C151.141 154.336 150.997 153.792 150.709 153.392H152.405ZM149.605 154.896C149.605 156.08 148.869 156.912 147.653 156.912C146.757 156.912 145.813 156.32 145.813 154.912C145.813 153.648 146.549 152.848 147.717 152.848C148.629 152.848 149.605 153.472 149.605 154.896ZM150.581 161.568C150.581 162.224 149.797 163.2 147.525 163.2C145.765 163.2 145.029 162.528 145.029 161.856C145.029 161.296 145.461 160.752 146.629 160.496C146.965 160.624 147.413 160.688 147.973 160.704L148.837 160.736C150.117 160.752 150.581 161.008 150.581 161.568ZM160.959 159.552L161.023 158.304C159.951 158.704 159.071 158.832 158.335 158.832C156.399 158.832 155.119 157.856 155.135 156.064H160.911C161.215 153.328 159.775 151.776 157.583 151.776C155.135 151.776 153.519 153.408 153.519 155.872C153.519 158.384 155.087 160.192 158.143 160.16C159.135 160.144 160.095 159.952 160.959 159.552ZM155.167 154.976C155.263 153.632 156.271 152.96 157.343 152.96C158.543 152.96 159.375 153.696 159.343 154.96L155.167 154.976ZM179.122 159.776L179.138 158.512C178.386 158.72 177.81 158.784 177.394 158.784C176.466 158.784 175.522 158.48 175.522 157.296V153.424H178.674L178.77 152.128H175.522V150.448L174.194 150.464L173.906 152.128L172.242 152.288V153.424H173.874V157.472C173.874 159.568 175.314 160.144 177.122 160.144C177.65 160.144 178.418 160.048 179.122 159.776ZM181.74 160H183.388V154.048C184.012 153.44 184.7 153.2 185.34 153.2C186.476 153.2 187.004 153.968 187.004 155.472V160H188.652V155.136C188.652 153.072 187.756 151.792 185.82 151.792C184.86 151.792 184.028 152.08 183.324 152.848C183.372 152.544 183.388 152.192 183.388 151.632V147.648L181.74 147.776V160ZM198.054 159.552L198.118 158.304C197.046 158.704 196.166 158.832 195.43 158.832C193.494 158.832 192.214 157.856 192.23 156.064H198.006C198.31 153.328 196.87 151.776 194.678 151.776C192.23 151.776 190.614 153.408 190.614 155.872C190.614 158.384 192.182 160.192 195.238 160.16C196.23 160.144 197.19 159.952 198.054 159.552ZM192.262 154.976C192.358 153.632 193.366 152.96 194.438 152.96C195.638 152.96 196.47 153.696 196.438 154.96L192.262 154.976ZM217.321 153.392L217.401 152.256H214.633C214.089 151.936 213.385 151.76 212.601 151.76C210.585 151.76 209.161 153.104 209.161 154.896C209.161 156.304 209.881 157.248 210.889 157.68C210.377 158.016 210.073 158.512 210.073 159.008C210.073 159.424 210.265 159.776 210.649 160.064C209.049 160.368 208.473 161.216 208.473 162.112C208.473 163.136 209.513 164.352 212.153 164.352C215.657 164.352 217.033 162.4 217.033 161.232C217.033 159.824 215.929 159.344 214.169 159.296L213.257 159.28C211.961 159.248 211.529 158.896 211.529 158.464C211.529 158.288 211.609 158.096 211.769 157.936C212.009 158 212.297 158.032 212.569 158.032C214.777 158.032 216.057 156.608 216.057 154.896C216.057 154.336 215.913 153.792 215.625 153.392H217.321ZM214.521 154.896C214.521 156.08 213.785 156.912 212.569 156.912C211.673 156.912 210.729 156.32 210.729 154.912C210.729 153.648 211.465 152.848 212.633 152.848C213.545 152.848 214.521 153.472 214.521 154.896ZM215.497 161.568C215.497 162.224 214.713 163.2 212.441 163.2C210.681 163.2 209.945 162.528 209.945 161.856C209.945 161.296 210.377 160.752 211.545 160.496C211.881 160.624 212.329 160.688 212.889 160.704L213.753 160.736C215.033 160.752 215.497 161.008 215.497 161.568ZM226.435 160.032L226.499 159.024C225.139 159.104 225.155 158.624 225.155 157.744V154.784C225.155 152.752 224.147 151.792 221.907 151.792C221.011 151.792 219.843 152.032 218.995 152.544L219.107 153.76C220.147 153.264 220.995 153.12 221.731 153.12C223.139 153.12 223.539 153.776 223.539 154.864V155.264C219.555 155.232 218.435 156.704 218.435 158C218.435 159.376 219.555 160.176 221.107 160.176C222.099 160.176 222.995 159.904 223.747 159.184C223.971 159.904 224.611 160.144 225.395 160.144C225.747 160.144 226.067 160.112 226.435 160.032ZM223.539 156.4V158.208C222.899 158.704 222.211 158.928 221.539 158.928C220.515 158.928 219.987 158.496 219.987 157.84C219.987 157.136 220.851 156.272 223.539 156.4ZM227.981 164H229.629V160.016C230.013 160.128 230.493 160.176 230.957 160.176C233.869 160.176 235.469 158.432 235.469 155.76C235.469 153.152 233.949 151.792 232.061 151.792C231.149 151.792 230.221 152.096 229.533 152.96L229.485 151.872L227.981 152.016V164ZM231.165 158.88C230.685 158.88 230.141 158.8 229.629 158.592V154.064C230.301 153.392 230.989 153.168 231.645 153.168C232.733 153.168 233.789 154.032 233.789 155.984C233.789 157.856 232.765 158.88 231.165 158.88ZM254 155.76C254 153.152 252.464 151.792 250.592 151.792C249.68 151.792 248.768 152.096 248.096 152.928C248.112 152.768 248.16 152.4 248.16 151.76V147.648L246.512 147.776V158.112C246.512 159.008 246.432 159.472 246.4 159.68C247.376 160 248.56 160.176 249.472 160.176C252.384 160.176 254 158.432 254 155.76ZM252.288 155.984C252.288 157.856 251.28 158.88 249.696 158.88C249.216 158.88 248.656 158.8 248.112 158.624C248.16 158.368 248.16 158.096 248.16 157.68V154.064C248.832 153.392 249.504 153.168 250.176 153.168C251.248 153.168 252.288 154.032 252.288 155.984ZM262.97 159.552L263.034 158.304C261.962 158.704 261.082 158.832 260.346 158.832C258.41 158.832 257.13 157.856 257.146 156.064H262.922C263.226 153.328 261.786 151.776 259.594 151.776C257.146 151.776 255.53 153.408 255.53 155.872C255.53 158.384 257.098 160.192 260.154 160.16C261.146 160.144 262.106 159.952 262.97 159.552ZM257.178 154.976C257.274 153.632 258.282 152.96 259.354 152.96C260.554 152.96 261.386 153.696 261.354 154.96L257.178 154.976ZM271.86 159.776L271.876 158.512C271.124 158.72 270.548 158.784 270.132 158.784C269.204 158.784 268.26 158.48 268.26 157.296V153.424H271.412L271.508 152.128H268.26V150.448L266.932 150.464L266.644 152.128L264.98 152.288V153.424H266.612V157.472C266.612 159.568 268.052 160.144 269.86 160.144C270.388 160.144 271.156 160.048 271.86 159.776ZM274.813 160.032L276.701 159.968L277.933 155.12L279.053 160.032L280.957 159.968L282.669 151.936H281.149L279.917 158.416H279.885L278.733 153.44H277.181L275.965 158.416H275.933L274.749 151.936H273.165L274.813 160.032ZM290.791 159.552L290.855 158.304C289.783 158.704 288.903 158.832 288.167 158.832C286.231 158.832 284.951 157.856 284.967 156.064H290.743C291.047 153.328 289.607 151.776 287.415 151.776C284.967 151.776 283.351 153.408 283.351 155.872C283.351 158.384 284.919 160.192 287.975 160.16C288.967 160.144 289.927 159.952 290.791 159.552ZM284.999 154.976C285.095 153.632 286.103 152.96 287.175 152.96C288.375 152.96 289.207 153.696 289.175 154.96L284.999 154.976ZM300.065 159.552L300.129 158.304C299.057 158.704 298.177 158.832 297.441 158.832C295.505 158.832 294.225 157.856 294.241 156.064H300.017C300.321 153.328 298.881 151.776 296.689 151.776C294.241 151.776 292.625 153.408 292.625 155.872C292.625 158.384 294.193 160.192 297.249 160.16C298.241 160.144 299.201 159.952 300.065 159.552ZM294.273 154.976C294.369 153.632 295.377 152.96 296.449 152.96C297.649 152.96 298.481 153.696 298.449 154.96L294.273 154.976ZM307.563 160H309.211V155.136C309.211 153.072 308.315 151.792 306.379 151.792C305.419 151.792 304.571 152.08 303.835 152.912L303.787 151.872L302.299 152.016V160H303.947V154.048C304.571 153.44 305.243 153.2 305.899 153.2C307.035 153.2 307.563 153.968 307.563 155.472V160ZM328.302 155.792C328.302 153.248 326.686 151.776 324.414 151.776C322.062 151.776 320.254 153.28 320.254 155.952C320.254 158.672 322.126 160.16 324.238 160.16C326.414 160.16 328.302 158.672 328.302 155.792ZM326.606 155.936C326.606 157.744 325.678 158.848 324.366 158.848H324.254C322.878 158.848 321.95 157.584 321.95 155.856C321.95 153.984 322.958 153.104 324.27 153.104C325.742 153.104 326.606 154.24 326.606 155.936ZM332.92 160.16C333.88 160.16 334.728 159.872 335.48 159.04L335.512 160.08L337.016 159.936V151.872L335.368 152.016V157.904C334.728 158.512 334.04 158.752 333.4 158.752C332.28 158.752 331.736 157.984 331.736 156.48V151.872L330.104 152.016V156.816C330.104 158.88 331 160.16 332.92 160.16ZM346.418 153.424L346.578 151.952C346.13 151.84 345.634 151.792 345.25 151.792C344.274 151.792 343.346 152.048 342.562 153.232L342.546 151.872L341.01 152.032H338.93V153.312H341.01V160H342.658V154.528C343.442 153.52 344.29 153.264 345.09 153.264C345.538 153.264 345.922 153.312 346.418 153.424ZM364.709 157.552C364.709 156.528 364.213 155.728 362.293 155.36L361.285 155.152C359.925 154.88 359.621 154.592 359.621 154.096C359.621 153.568 360.165 153.072 361.637 153.072C362.357 153.072 363.221 153.2 364.149 153.488L364.261 152.24C363.477 151.936 362.501 151.792 361.621 151.792C358.965 151.792 357.973 153.072 357.973 154.208C357.973 155.232 358.565 156.032 360.293 156.368L361.269 156.576C362.789 156.88 362.997 157.216 362.997 157.68C362.997 158.256 362.405 158.848 360.853 158.848C359.989 158.848 359.125 158.688 357.957 158.24L358.005 159.552C358.885 159.952 359.941 160.144 360.901 160.144C363.733 160.144 364.709 158.752 364.709 157.552ZM371.791 159.056C371.791 158.336 371.359 157.888 370.687 157.888C369.967 157.888 369.519 158.336 369.519 158.992C369.519 159.712 369.967 160.16 370.623 160.16C371.327 160.16 371.791 159.728 371.791 159.056ZM381.065 159.056C381.065 158.336 380.633 157.888 379.961 157.888C379.241 157.888 378.793 158.336 378.793 158.992C378.793 159.712 379.241 160.16 379.897 160.16C380.601 160.16 381.065 159.728 381.065 159.056ZM390.338 159.056C390.338 158.336 389.906 157.888 389.234 157.888C388.514 157.888 388.066 158.336 388.066 158.992C388.066 159.712 388.514 160.16 389.17 160.16C389.874 160.16 390.338 159.728 390.338 159.056Z" fill="#303031"/>
<path d="M271.718 212H273.702L274.518 209.168H278.006L278.854 212H281.046L277.398 200.608L275.126 200.672L271.718 212ZM274.87 207.632L275.846 204.128C276.054 203.392 276.134 203.072 276.182 202.672H276.214C276.278 203.072 276.358 203.392 276.566 204.128L277.654 207.632H274.87ZM281.999 216H283.871V212.032C284.223 212.128 284.655 212.176 285.055 212.176C288.047 212.176 289.647 210.4 289.647 207.744C289.647 205.152 288.143 203.76 286.255 203.76C285.359 203.76 284.463 204.048 283.759 204.944L283.695 203.84L281.999 204V216ZM285.327 210.704C284.863 210.704 284.351 210.64 283.871 210.464V206.128C284.479 205.52 285.135 205.312 285.743 205.312C286.751 205.312 287.711 206.16 287.711 208C287.711 209.744 286.783 210.704 285.327 210.704ZM291.273 216H293.145V212.032C293.497 212.128 293.929 212.176 294.329 212.176C297.321 212.176 298.921 210.4 298.921 207.744C298.921 205.152 297.417 203.76 295.529 203.76C294.633 203.76 293.737 204.048 293.033 204.944L292.969 203.84L291.273 204V216ZM294.601 210.704C294.137 210.704 293.625 210.64 293.145 210.464V206.128C293.753 205.52 294.409 205.312 295.017 205.312C296.025 205.312 296.985 206.16 296.985 208C296.985 209.744 296.057 210.704 294.601 210.704ZM300.163 212H308.019V210.544H305.139V199.616L303.251 199.76H300.579V201.184H303.251V210.544H300.163V212ZM317.693 203.92H315.837C315.501 206.4 314.973 208.944 313.725 211.024C312.477 208.144 311.069 203.92 311.069 203.92H308.957C308.957 203.92 310.669 208.72 312.493 212.64C311.837 213.392 310.845 214.032 309.085 214.656L309.773 216.176C311.421 215.632 312.797 214.88 313.869 213.744C316.269 211.28 317.293 207.104 317.693 203.92ZM335.984 207.744C335.984 205.152 334.48 203.76 332.624 203.76C331.728 203.76 330.832 204.048 330.16 204.896C330.192 204.688 330.224 204.304 330.224 203.68V199.616L328.352 199.76V210.112C328.352 210.944 328.272 211.392 328.24 211.664C329.264 212 330.544 212.176 331.408 212.176C334.4 212.176 335.984 210.4 335.984 207.744ZM334.064 208C334.064 209.744 333.12 210.704 331.68 210.704C331.216 210.704 330.688 210.64 330.192 210.48C330.224 210.224 330.224 209.968 330.224 209.6V206.128C330.832 205.52 331.472 205.312 332.08 205.312C333.104 205.312 334.064 206.16 334.064 208ZM345.514 203.92H343.658C343.322 206.4 342.794 208.944 341.546 211.024C340.298 208.144 338.89 203.92 338.89 203.92H336.778C336.778 203.92 338.49 208.72 340.314 212.64C339.658 213.392 338.666 214.032 336.906 214.656L337.594 216.176C339.242 215.632 340.618 214.88 341.69 213.744C344.09 211.28 345.114 207.104 345.514 203.92ZM355.453 212H357.165L357.325 204.992C357.341 204.208 357.357 203.552 357.341 203.088H357.373C357.501 203.744 357.645 204.384 357.821 205.024L358.957 208.8H360.589L361.661 205.056C361.853 204.256 361.981 203.648 362.077 203.088H362.109C362.125 203.632 362.157 204.304 362.173 205.008L362.365 212H364.221L363.901 200.64H361.389L359.805 206.496L358.237 200.64H355.709L355.453 212ZM373.303 212.048L373.383 210.912C372.071 210.976 372.071 210.496 372.071 209.68V206.832C372.071 204.72 371.063 203.776 368.759 203.776C367.831 203.776 366.615 204.016 365.767 204.528L365.895 205.888C366.967 205.392 367.831 205.248 368.551 205.248C369.831 205.248 370.247 205.84 370.247 206.848V207.216C366.279 207.2 365.207 208.656 365.207 209.968C365.207 211.376 366.311 212.176 367.863 212.176C368.839 212.176 369.735 211.904 370.503 211.2C370.775 211.952 371.431 212.16 372.199 212.16C372.567 212.16 372.903 212.112 373.303 212.048ZM370.247 208.448V210.144C369.655 210.576 369.015 210.8 368.391 210.8C367.431 210.8 366.951 210.368 366.951 209.776C366.951 209.136 367.703 208.352 370.247 208.448ZM382.609 203.92H380.753C380.417 206.4 379.889 208.944 378.641 211.024C377.393 208.144 375.985 203.92 375.985 203.92H373.873C373.873 203.92 375.585 208.72 377.409 212.64C376.753 213.392 375.761 214.032 374.001 214.656L374.689 216.176C376.337 215.632 377.713 214.88 378.785 213.744C381.185 211.28 382.209 207.104 382.609 203.92ZM393.508 212H400.372V210.528L398.004 210.432V200.64H396.276L393.172 201.056L393.3 202.56L396.1 202.272V210.432L393.508 210.528V212ZM405.758 212.16C408.382 212.16 409.742 210.48 409.742 208.624C409.742 206.896 408.574 205.104 404.83 204.72L405.262 202.368L409.63 202.128L409.838 200.384L403.758 200.72L402.766 206.128C406.654 206.224 407.678 207.552 407.678 208.704C407.678 209.728 406.99 210.512 405.566 210.512C404.798 210.512 403.998 210.304 402.862 209.696V211.408C403.886 211.968 404.814 212.16 405.758 212.16Z" fill="#303031"/>
<path d="M33.332 48H41.468V45.84H38.732V37.398H41.468V35.22H33.332V37.398H36.14V45.84H33.332V48ZM49.867 48.09L52.081 47.91V33.996L49.633 34.194V38.874C49.165 38.748 48.661 38.712 48.211 38.712C45.061 38.712 43.243 40.728 43.243 43.626C43.243 46.614 44.899 48.198 46.987 48.198C47.959 48.198 48.895 47.892 49.759 46.974L49.867 48.09ZM49.633 40.818V45.39C49.021 45.966 48.373 46.2 47.743 46.2C46.681 46.2 45.745 45.282 45.745 43.302C45.745 41.592 46.663 40.602 48.193 40.602C48.553 40.602 49.057 40.638 49.633 40.818ZM62.4239 47.514L62.4959 45.75C61.3259 46.146 60.2999 46.272 59.4719 46.272C57.4919 46.272 56.2499 45.426 56.2139 43.842H62.3339C62.8379 40.602 61.2179 38.694 58.5719 38.694C55.6739 38.694 53.8019 40.602 53.8019 43.374C53.8019 46.038 55.3859 48.198 59.1299 48.18C60.2279 48.18 61.3979 47.964 62.4239 47.514ZM56.2319 42.33C56.3039 40.98 57.2579 40.386 58.2479 40.386C59.3999 40.386 60.1559 41.088 60.1019 42.294L56.2319 42.33ZM73.4689 48.054L73.5589 46.596C72.1549 46.668 72.1729 46.128 72.1729 45.3V42.276C72.1729 39.774 70.9849 38.712 68.3209 38.712C67.2589 38.712 65.8009 39.018 64.8469 39.594L65.0089 41.304C66.2509 40.746 67.2409 40.602 68.0329 40.602C69.3109 40.602 69.7969 41.16 69.7969 42.204V42.528C65.3689 42.546 64.1989 44.184 64.1989 45.66C64.1989 47.28 65.4589 48.198 67.1869 48.198C68.2669 48.198 69.2389 47.892 70.1209 47.118C70.4989 48.018 71.3089 48.18 72.1189 48.18C72.5869 48.18 72.9649 48.126 73.4689 48.054ZM69.7969 44.094V45.84C69.2029 46.236 68.5369 46.434 67.9249 46.434C66.8989 46.434 66.4309 46.002 66.4309 45.408C66.4309 44.778 67.1329 43.986 69.7969 44.094ZM82.9299 47.694L82.9479 45.894C82.1019 46.11 81.4899 46.146 81.0399 46.146C80.0139 46.146 79.0779 45.84 79.0779 44.688V40.962H82.4619L82.5699 39.09H79.0779V37.074L77.0799 37.092L76.7379 39.09L74.8119 39.288V40.962H76.6299V44.958C76.6299 47.532 78.3759 48.162 80.4819 48.162C81.1479 48.162 82.0839 48.018 82.9299 47.694ZM93.7228 47.514L93.7948 45.75C92.6248 46.146 91.5988 46.272 90.7708 46.272C88.7908 46.272 87.5488 45.426 87.5128 43.842H93.6328C94.1368 40.602 92.5168 38.694 89.8708 38.694C86.9728 38.694 85.1008 40.602 85.1008 43.374C85.1008 46.038 86.6848 48.198 90.4288 48.18C91.5268 48.18 92.6968 47.964 93.7228 47.514ZM87.5308 42.33C87.6028 40.98 88.5568 40.386 89.5468 40.386C90.6988 40.386 91.4548 41.088 91.4008 42.294L87.5308 42.33ZM115.201 48.054L115.291 46.596C113.887 46.668 113.905 46.128 113.905 45.3V42.276C113.905 39.774 112.717 38.712 110.053 38.712C108.991 38.712 107.533 39.018 106.579 39.594L106.741 41.304C107.983 40.746 108.973 40.602 109.765 40.602C111.043 40.602 111.529 41.16 111.529 42.204V42.528C107.101 42.546 105.931 44.184 105.931 45.66C105.931 47.28 107.191 48.198 108.919 48.198C109.999 48.198 110.971 47.892 111.853 47.118C112.231 48.018 113.041 48.18 113.851 48.18C114.319 48.18 114.697 48.126 115.201 48.054ZM111.529 44.094V45.84C110.935 46.236 110.269 46.434 109.657 46.434C108.631 46.434 108.163 46.002 108.163 45.408C108.163 44.778 108.865 43.986 111.529 44.094ZM126.725 48H135.653V46.146H132.521V34.014L130.073 34.194H127.175V36.03H130.073V46.146H126.725V48ZM143.206 35.796C143.206 34.914 142.63 34.302 141.748 34.302C140.83 34.302 140.254 34.914 140.254 35.742C140.254 36.624 140.848 37.254 141.712 37.254C142.612 37.254 143.206 36.642 143.206 35.796ZM137.158 48H146.086V46.146H142.954V38.856L140.506 39.018H137.608V40.854H140.506V46.146H137.158V48ZM156.087 45.12C156.087 43.932 155.547 43.032 153.387 42.6L152.361 42.384C150.939 42.096 150.633 41.844 150.633 41.394C150.633 40.944 151.083 40.53 152.595 40.53C153.387 40.53 154.269 40.656 155.367 40.944L155.529 39.18C154.629 38.856 153.477 38.694 152.541 38.694C149.409 38.694 148.203 40.188 148.203 41.574C148.203 42.726 148.851 43.716 150.831 44.13L151.821 44.328C153.369 44.652 153.567 44.94 153.567 45.354C153.567 45.84 153.063 46.308 151.443 46.308C150.561 46.308 149.625 46.146 148.275 45.696L148.311 47.55C149.355 47.964 150.579 48.162 151.569 48.162C154.971 48.162 156.087 46.524 156.087 45.12ZM166.394 47.694L166.412 45.894C165.566 46.11 164.954 46.146 164.504 46.146C163.478 46.146 162.542 45.84 162.542 44.688V40.962H165.926L166.034 39.09H162.542V37.074L160.544 37.092L160.202 39.09L158.276 39.288V40.962H160.094V44.958C160.094 47.532 161.84 48.162 163.946 48.162C164.612 48.162 165.548 48.018 166.394 47.694ZM188.106 43.23C188.106 40.224 186.162 38.694 183.606 38.694C181.05 38.694 178.818 40.26 178.818 43.482C178.818 46.776 181.266 48.18 183.408 48.18C185.82 48.18 188.106 46.65 188.106 43.23ZM185.604 43.5C185.604 45.372 184.704 46.272 183.57 46.272H183.462C182.292 46.272 181.32 45.228 181.32 43.338C181.32 41.214 182.436 40.602 183.426 40.602C184.722 40.602 185.604 41.628 185.604 43.5ZM198.863 36.084L199.043 34.23C198.323 34.05 197.495 33.996 196.865 33.996C193.553 33.996 191.897 35.436 191.897 38.262V39.09L189.593 39.252V40.962H191.897V48H194.345V40.962H197.657L197.783 39.09H194.345V38.046C194.345 36.48 195.155 35.94 197.009 35.94C197.423 35.94 198.089 35.976 198.863 36.084ZM219.728 36.084L219.908 34.23C219.188 34.05 218.36 33.996 217.73 33.996C214.418 33.996 212.762 35.436 212.762 38.262V39.09L210.458 39.252V40.962H212.762V48H215.21V40.962H218.522L218.648 39.09H215.21V38.046C215.21 36.48 216.02 35.94 217.874 35.94C218.288 35.94 218.954 35.976 219.728 36.084ZM229.351 47.514L229.423 45.75C228.253 46.146 227.227 46.272 226.399 46.272C224.419 46.272 223.177 45.426 223.141 43.842H229.261C229.765 40.602 228.145 38.694 225.499 38.694C222.601 38.694 220.729 40.602 220.729 43.374C220.729 46.038 222.313 48.198 226.057 48.18C227.155 48.18 228.325 47.964 229.351 47.514ZM223.159 42.33C223.231 40.98 224.185 40.386 225.175 40.386C226.327 40.386 227.083 41.088 227.029 42.294L223.159 42.33ZM240.396 48.054L240.486 46.596C239.082 46.668 239.1 46.128 239.1 45.3V42.276C239.1 39.774 237.912 38.712 235.248 38.712C234.186 38.712 232.728 39.018 231.774 39.594L231.936 41.304C233.178 40.746 234.168 40.602 234.96 40.602C236.238 40.602 236.724 41.16 236.724 42.204V42.528C232.296 42.546 231.126 44.184 231.126 45.66C231.126 47.28 232.386 48.198 234.114 48.198C235.194 48.198 236.166 47.892 237.048 47.118C237.426 48.018 238.236 48.18 239.046 48.18C239.514 48.18 239.892 48.126 240.396 48.054ZM236.724 44.094V45.84C236.13 46.236 235.464 46.434 234.852 46.434C233.826 46.434 233.358 46.002 233.358 45.408C233.358 44.778 234.06 43.986 236.724 44.094ZM249.857 47.694L249.875 45.894C249.029 46.11 248.417 46.146 247.967 46.146C246.941 46.146 246.005 45.84 246.005 44.688V40.962H249.389L249.497 39.09H246.005V37.074L244.007 37.092L243.665 39.09L241.739 39.288V40.962H243.557V44.958C243.557 47.532 245.303 48.162 247.409 48.162C248.075 48.162 249.011 48.018 249.857 47.694ZM255.448 48.18C256.492 48.18 257.482 47.856 258.292 46.848L258.364 48.09L260.56 47.91V38.766L258.112 38.982V45.336C257.482 45.894 256.852 46.11 256.294 46.11C255.232 46.11 254.836 45.228 254.836 43.842V38.766L252.388 38.982V44.382C252.388 46.596 253.252 48.18 255.448 48.18ZM271.029 40.998L271.227 38.874C270.777 38.766 270.255 38.712 269.895 38.712C268.833 38.712 267.735 38.964 266.853 40.35L266.799 38.784L264.567 39.018H262.443V40.854H264.567V48H267.015V42.024C267.843 41.124 268.815 40.89 269.679 40.89C270.129 40.89 270.543 40.926 271.029 40.998ZM281.516 47.514L281.588 45.75C280.418 46.146 279.392 46.272 278.564 46.272C276.584 46.272 275.342 45.426 275.306 43.842H281.426C281.93 40.602 280.31 38.694 277.664 38.694C274.766 38.694 272.894 40.602 272.894 43.374C272.894 46.038 274.478 48.198 278.222 48.18C279.32 48.18 280.49 47.964 281.516 47.514ZM275.324 42.33C275.396 40.98 276.35 40.386 277.34 40.386C278.492 40.386 279.248 41.088 279.194 42.294L275.324 42.33ZM291.715 45.12C291.715 43.932 291.175 43.032 289.015 42.6L287.989 42.384C286.567 42.096 286.261 41.844 286.261 41.394C286.261 40.944 286.711 40.53 288.223 40.53C289.015 40.53 289.897 40.656 290.995 40.944L291.157 39.18C290.257 38.856 289.105 38.694 288.169 38.694C285.037 38.694 283.831 40.188 283.831 41.574C283.831 42.726 284.479 43.716 286.459 44.13L287.449 44.328C288.997 44.652 289.195 44.94 289.195 45.354C289.195 45.84 288.691 46.308 287.071 46.308C286.189 46.308 285.253 46.146 283.903 45.696L283.939 47.55C284.983 47.964 286.207 48.162 287.197 48.162C290.599 48.162 291.715 46.524 291.715 45.12ZM313.229 43.176C313.229 40.278 311.573 38.694 309.485 38.694C308.513 38.694 307.541 39 306.785 39.954C306.821 39.648 306.875 39.18 306.875 38.514V34.014L304.427 34.194V45.876C304.427 46.74 304.355 47.208 304.301 47.604C305.507 48 307.073 48.198 307.973 48.198C311.465 48.198 313.229 46.164 313.229 43.176ZM310.727 43.518C310.727 45.3 309.809 46.308 308.351 46.308C307.883 46.308 307.343 46.236 306.821 46.074C306.875 45.786 306.875 45.552 306.875 45.174V41.484C307.469 40.926 308.135 40.692 308.729 40.692C309.791 40.692 310.727 41.61 310.727 43.518ZM323.86 48.054L323.95 46.596C322.546 46.668 322.564 46.128 322.564 45.3V42.276C322.564 39.774 321.376 38.712 318.712 38.712C317.65 38.712 316.192 39.018 315.238 39.594L315.4 41.304C316.642 40.746 317.632 40.602 318.424 40.602C319.702 40.602 320.188 41.16 320.188 42.204V42.528C315.76 42.546 314.59 44.184 314.59 45.66C314.59 47.28 315.85 48.198 317.578 48.198C318.658 48.198 319.63 47.892 320.512 47.118C320.89 48.018 321.7 48.18 322.51 48.18C322.978 48.18 323.356 48.126 323.86 48.054ZM320.188 44.094V45.84C319.594 46.236 318.928 46.434 318.316 46.434C317.29 46.434 316.822 46.002 316.822 45.408C316.822 44.778 317.524 43.986 320.188 44.094ZM333.447 45.12C333.447 43.932 332.907 43.032 330.747 42.6L329.721 42.384C328.299 42.096 327.993 41.844 327.993 41.394C327.993 40.944 328.443 40.53 329.955 40.53C330.747 40.53 331.629 40.656 332.727 40.944L332.889 39.18C331.989 38.856 330.837 38.694 329.901 38.694C326.769 38.694 325.563 40.188 325.563 41.574C325.563 42.726 326.211 43.716 328.191 44.13L329.181 44.328C330.729 44.652 330.927 44.94 330.927 45.354C330.927 45.84 330.423 46.308 328.803 46.308C327.921 46.308 326.985 46.146 325.635 45.696L325.671 47.55C326.715 47.964 327.939 48.162 328.929 48.162C332.331 48.162 333.447 46.524 333.447 45.12ZM344.114 47.514L344.186 45.75C343.016 46.146 341.99 46.272 341.162 46.272C339.182 46.272 337.94 45.426 337.904 43.842H344.024C344.528 40.602 342.908 38.694 340.262 38.694C337.364 38.694 335.492 40.602 335.492 43.374C335.492 46.038 337.076 48.198 340.82 48.18C341.918 48.18 343.088 47.964 344.114 47.514ZM337.922 42.33C337.994 40.98 338.948 40.386 339.938 40.386C341.09 40.386 341.846 41.088 341.792 42.294L337.922 42.33ZM352.423 48.09L354.637 47.91V33.996L352.189 34.194V38.874C351.721 38.748 351.217 38.712 350.767 38.712C347.617 38.712 345.799 40.728 345.799 43.626C345.799 46.614 347.455 48.198 349.543 48.198C350.515 48.198 351.451 47.892 352.315 46.974L352.423 48.09ZM352.189 40.818V45.39C351.577 45.966 350.929 46.2 350.299 46.2C349.237 46.2 348.301 45.282 348.301 43.302C348.301 41.592 349.219 40.602 350.749 40.602C351.109 40.602 351.613 40.638 352.189 40.818ZM375.899 43.23C375.899 40.224 373.955 38.694 371.399 38.694C368.843 38.694 366.611 40.26 366.611 43.482C366.611 46.776 369.059 48.18 371.201 48.18C373.613 48.18 375.899 46.65 375.899 43.23ZM373.397 43.5C373.397 45.372 372.497 46.272 371.363 46.272H371.255C370.085 46.272 369.113 45.228 369.113 43.338C369.113 41.214 370.229 40.602 371.219 40.602C372.515 40.602 373.397 41.628 373.397 43.5ZM383.344 48H385.792V42.51C385.792 40.296 384.946 38.694 382.732 38.694C381.688 38.694 380.716 39.018 379.906 40.026L379.834 38.784L377.638 38.982V48H380.068V41.538C380.716 40.98 381.31 40.782 381.886 40.782C382.966 40.782 383.344 41.646 383.344 43.032V48ZM41.198 71.694L41.216 69.894C40.37 70.11 39.758 70.146 39.308 70.146C38.282 70.146 37.346 69.84 37.346 68.688V64.962H40.73L40.838 63.09H37.346V61.074L35.348 61.092L35.006 63.09L33.08 63.288V64.962H34.898V68.958C34.898 71.532 36.644 72.162 38.75 72.162C39.416 72.162 40.352 72.018 41.198 71.694ZM43.783 72H46.213V65.538C46.861 64.98 47.473 64.782 48.031 64.782C49.111 64.782 49.489 65.646 49.489 67.032V72H51.937V66.51C51.937 64.296 51.091 62.694 48.877 62.694C47.833 62.694 46.879 63.036 46.141 63.918C46.195 63.522 46.213 63.072 46.213 62.442V58.014L43.783 58.194V72ZM62.4239 71.514L62.4959 69.75C61.3259 70.146 60.2999 70.272 59.4719 70.272C57.4919 70.272 56.2499 69.426 56.2139 67.842H62.3339C62.8379 64.602 61.2179 62.694 58.5719 62.694C55.6739 62.694 53.8019 64.602 53.8019 67.374C53.8019 70.038 55.3859 72.198 59.1299 72.18C60.2279 72.18 61.3979 71.964 62.4239 71.514ZM56.2319 66.33C56.3039 64.98 57.2579 64.386 58.2479 64.386C59.3999 64.386 60.1559 65.088 60.1019 66.294L56.2319 66.33ZM78.4839 72.18C82.1919 72.18 83.3979 70.002 83.3979 68.31C83.3979 66.924 82.8399 65.736 80.4819 64.71L79.6179 64.314C78.0339 63.612 77.7819 63.108 77.7819 62.55C77.7819 61.83 78.3579 61.128 79.9239 61.128C80.5719 61.128 81.4539 61.236 82.6419 61.578L82.8399 59.508C81.7599 59.148 80.6079 59.04 79.7439 59.04C76.5399 59.04 75.0459 60.894 75.0279 62.784C75.0099 64.206 75.6759 65.412 78.0699 66.474L78.9519 66.852C80.3379 67.482 80.5179 68.04 80.5179 68.58C80.5179 69.21 80.1219 70.038 78.4119 70.038C77.5839 70.038 76.4499 69.84 74.9019 69.336L74.9559 71.532C76.1079 72 77.4579 72.18 78.4839 72.18ZM94.2088 67.23C94.2088 64.224 92.2648 62.694 89.7088 62.694C87.1528 62.694 84.9208 64.26 84.9208 67.482C84.9208 70.776 87.3688 72.18 89.5108 72.18C91.9228 72.18 94.2088 70.65 94.2088 67.23ZM91.7068 67.5C91.7068 69.372 90.8068 70.272 89.6728 70.272H89.5648C88.3948 70.272 87.4228 69.228 87.4228 67.338C87.4228 65.214 88.5388 64.602 89.5288 64.602C90.8248 64.602 91.7068 65.628 91.7068 67.5ZM103.958 71.622L103.994 69.66C102.896 70.02 102.086 70.146 101.42 70.146C99.7998 70.146 98.3418 69.462 98.3418 67.248C98.3418 65.286 99.6918 64.71 101.294 64.71C101.816 64.71 102.572 64.764 103.616 65.052L103.814 63.108C102.95 62.802 101.87 62.694 101.06 62.694C98.2698 62.694 95.8218 64.008 95.8218 67.518C95.8218 70.65 97.9998 72.18 101.006 72.18C101.798 72.18 102.95 72.054 103.958 71.622ZM111.907 59.796C111.907 58.914 111.331 58.302 110.449 58.302C109.531 58.302 108.955 58.914 108.955 59.742C108.955 60.624 109.549 61.254 110.413 61.254C111.313 61.254 111.907 60.642 111.907 59.796ZM105.859 72H114.787V70.146H111.655V62.856L109.207 63.018H106.309V64.854H109.207V70.146H105.859V72ZM125.508 67.23C125.508 64.224 123.564 62.694 121.008 62.694C118.452 62.694 116.22 64.26 116.22 67.482C116.22 70.776 118.668 72.18 120.81 72.18C123.222 72.18 125.508 70.65 125.508 67.23ZM123.006 67.5C123.006 69.372 122.106 70.272 120.972 70.272H120.864C119.694 70.272 118.722 69.228 118.722 67.338C118.722 65.214 119.838 64.602 120.828 64.602C122.124 64.602 123.006 65.628 123.006 67.5ZM135.257 71.622L135.293 69.66C134.195 70.02 133.385 70.146 132.719 70.146C131.099 70.146 129.641 69.462 129.641 67.248C129.641 65.286 130.991 64.71 132.593 64.71C133.115 64.71 133.871 64.764 134.915 65.052L135.113 63.108C134.249 62.802 133.169 62.694 132.359 62.694C129.569 62.694 127.121 64.008 127.121 67.518C127.121 70.65 129.299 72.18 132.305 72.18C133.097 72.18 134.249 72.054 135.257 71.622ZM145.834 64.998L146.032 62.874C145.582 62.766 145.06 62.712 144.7 62.712C143.638 62.712 142.54 62.964 141.658 64.35L141.604 62.784L139.372 63.018H137.248V64.854H139.372V72H141.82V66.024C142.648 65.124 143.62 64.89 144.484 64.89C144.934 64.89 145.348 64.926 145.834 64.998ZM156.933 72.054L157.023 70.596C155.619 70.668 155.637 70.128 155.637 69.3V66.276C155.637 63.774 154.449 62.712 151.785 62.712C150.723 62.712 149.265 63.018 148.311 63.594L148.473 65.304C149.715 64.746 150.705 64.602 151.497 64.602C152.775 64.602 153.261 65.16 153.261 66.204V66.528C148.833 66.546 147.663 68.184 147.663 69.66C147.663 71.28 148.923 72.198 150.651 72.198C151.731 72.198 152.703 71.892 153.585 71.118C153.963 72.018 154.773 72.18 155.583 72.18C156.051 72.18 156.429 72.126 156.933 72.054ZM153.261 68.094V69.84C152.667 70.236 152.001 70.434 151.389 70.434C150.363 70.434 149.895 70.002 149.895 69.408C149.895 68.778 150.597 67.986 153.261 68.094ZM166.556 71.622L166.592 69.66C165.494 70.02 164.684 70.146 164.018 70.146C162.398 70.146 160.94 69.462 160.94 67.248C160.94 65.286 162.29 64.71 163.892 64.71C164.414 64.71 165.17 64.764 166.214 65.052L166.412 63.108C165.548 62.802 164.468 62.694 163.658 62.694C160.868 62.694 158.42 64.008 158.42 67.518C158.42 70.65 160.598 72.18 163.604 72.18C164.396 72.18 165.548 72.054 166.556 71.622ZM177.907 62.874H175.495C175.189 65.538 174.703 68.31 173.371 70.524C172.075 67.482 170.635 62.874 170.635 62.874H167.881C167.881 62.874 169.699 68.22 171.751 72.63C171.049 73.386 169.987 74.052 168.025 74.718L168.907 76.698C170.689 76.14 172.201 75.402 173.461 74.178C176.359 71.442 177.493 66.528 177.907 62.874ZM196.469 72H198.755V66.726C198.755 65.232 198.737 62.694 196.703 62.694C195.947 62.694 195.245 63.072 194.615 64.17C194.453 63.216 193.913 62.694 193.157 62.694C192.509 62.694 191.699 63.018 191.177 64.026L191.087 62.784L189.089 62.982V72H191.375V65.43C191.645 64.944 191.915 64.782 192.185 64.782C192.797 64.782 192.923 65.718 192.923 66.546V72H194.903V67.104C194.903 66.564 194.903 65.916 194.867 65.448C195.155 64.944 195.443 64.782 195.731 64.782C196.235 64.782 196.469 65.358 196.469 66.384V72ZM208.972 67.23C208.972 64.224 207.028 62.694 204.472 62.694C201.916 62.694 199.684 64.26 199.684 67.482C199.684 70.776 202.132 72.18 204.274 72.18C206.686 72.18 208.972 70.65 208.972 67.23ZM206.47 67.5C206.47 69.372 205.57 70.272 204.436 70.272H204.328C203.158 70.272 202.186 69.228 202.186 67.338C202.186 65.214 203.302 64.602 204.292 64.602C205.588 64.602 206.47 65.628 206.47 67.5ZM216.794 72.09L219.008 71.91V57.996L216.56 58.194V62.874C216.092 62.748 215.588 62.712 215.138 62.712C211.988 62.712 210.17 64.728 210.17 67.626C210.17 70.614 211.826 72.198 213.914 72.198C214.886 72.198 215.822 71.892 216.686 70.974L216.794 72.09ZM216.56 64.818V69.39C215.948 69.966 215.3 70.2 214.67 70.2C213.608 70.2 212.672 69.282 212.672 67.302C212.672 65.592 213.59 64.602 215.12 64.602C215.48 64.602 215.984 64.638 216.56 64.818ZM229.351 71.514L229.423 69.75C228.253 70.146 227.227 70.272 226.399 70.272C224.419 70.272 223.177 69.426 223.141 67.842H229.261C229.765 64.602 228.145 62.694 225.499 62.694C222.601 62.694 220.729 64.602 220.729 67.374C220.729 70.038 222.313 72.198 226.057 72.18C227.155 72.18 228.325 71.964 229.351 71.514ZM223.159 66.33C223.231 64.98 224.185 64.386 225.175 64.386C226.327 64.386 227.083 65.088 227.029 66.294L223.159 66.33ZM231.054 72H239.982V70.146H236.85V58.014L234.402 58.194H231.504V60.03H234.402V70.146H231.054V72Z" fill="#303031"/>
<rect x="32" y="190" width="63" height="32" rx="16" fill="#71A894"/>
<path d="M44.336 212.16C46.912 212.16 48.24 210.512 48.24 208.688C48.24 206.912 47.008 205.152 43.264 204.768L43.744 202.192L48.176 201.936L48.368 200.368L42.416 200.72L41.424 206.032C45.264 206.144 46.416 207.504 46.416 208.768C46.416 209.872 45.664 210.688 44.208 210.688C43.424 210.688 42.592 210.48 41.504 209.856V211.408C42.528 211.968 43.424 212.16 44.336 212.16ZM58.7235 212H60.4835L61.3635 208.976H65.1075L66.0675 212H67.9875L64.2115 200.608L62.2275 200.672L58.7235 212ZM61.7155 207.6L62.8035 203.872C63.0275 203.12 63.1075 202.784 63.1715 202.432H63.2035C63.2515 202.784 63.3315 203.104 63.5715 203.872L64.7555 207.6H61.7155ZM76.7013 207.2V200.64H75.0373V207.168C75.0373 208.832 74.6533 210.656 72.7333 210.656C70.7173 210.656 70.3013 208.848 70.3013 207.04V200.64H68.5573V207.232C68.5573 210.224 69.6613 212.176 72.5893 212.176C75.3093 212.176 76.7013 210.208 76.7013 207.2ZM86.055 202.112L86.151 200.64H77.735V202.112H80.999V212H82.759V202.112H86.055Z" fill="white"/>
</g>
<defs>
<filter id="filter0_d_59_11" x="0" y="0" width="443" height="256" filterUnits="userSpaceOnUse" color-interpolation-filters="sRGB">
<feFlood flood-opacity="0" result="BackgroundImageFix"/>
<feColorMatrix in="SourceAlpha" type="matrix" values="0 0 0 0 0 0 0 0 0 0 0 0 0 0 0 0 0 0 127 0" result="hardAlpha"/>
<feOffset dy="2"/>
<feGaussianBlur stdDeviation="4"/>
<feColorMatrix type="matrix" values="0 0 0 0 0 0 0 0 0 0 0 0 0 0 0 0 0 0 0.1 0"/>
<feBlend mode="normal" in2="BackgroundImageFix" result="effect1_dropShadow_59_11"/>
<feBlend mode="normal" in="SourceGraphic" in2="effect1_dropShadow_59_11" result="shape"/>
</filter>
</defs>
</svg>
