<svg width="443" height="232" viewBox="0 0 443 232" fill="none" xmlns="http://www.w3.org/2000/svg">
<g filter="url(#filter0_d_59_20)">
<rect x="8" y="6" width="427" height="216" rx="16" fill="white"/>
<path d="M40.464 87.36L40.544 85.808C39.408 86.448 38.544 86.64 37.872 86.64C35.824 86.64 34.688 84.8 34.688 82.24C34.688 79.888 35.488 77.984 37.712 77.984C38.432 77.984 39.168 78.16 40.176 78.608L40.32 77.12C39.408 76.64 38.48 76.48 37.776 76.48C34.416 76.48 32.88 79.024 32.88 82.352C32.88 85.648 34.608 88.16 37.744 88.16C38.528 88.16 39.456 87.936 40.464 87.36ZM49.6578 81.424L49.8178 79.952C49.3698 79.84 48.8738 79.792 48.4898 79.792C47.5138 79.792 46.5858 80.048 45.8018 81.232L45.7858 79.872L44.2498 80.032H42.1698V81.312H44.2498V88H45.8978V82.528C46.6818 81.52 47.5298 81.264 48.3298 81.264C48.7778 81.264 49.1618 81.312 49.6578 81.424ZM58.9475 87.552L59.0115 86.304C57.9395 86.704 57.0595 86.832 56.3235 86.832C54.3875 86.832 53.1075 85.856 53.1235 84.064H58.8995C59.2035 81.328 57.7635 79.776 55.5715 79.776C53.1235 79.776 51.5075 81.408 51.5075 83.872C51.5075 86.384 53.0755 88.192 56.1315 88.16C57.1235 88.144 58.0835 87.952 58.9475 87.552ZM53.1555 82.976C53.2515 81.632 54.2595 80.96 55.3315 80.96C56.5315 80.96 57.3635 81.696 57.3315 82.96L53.1555 82.976ZM68.7813 88.032L68.8453 87.024C67.4853 87.104 67.5013 86.624 67.5013 85.744V82.784C67.5013 80.752 66.4933 79.792 64.2533 79.792C63.3573 79.792 62.1893 80.032 61.3413 80.544L61.4533 81.76C62.4933 81.264 63.3413 81.12 64.0773 81.12C65.4853 81.12 65.8853 81.776 65.8853 82.864V83.264C61.9013 83.232 60.7813 84.704 60.7813 86C60.7813 87.376 61.9013 88.176 63.4533 88.176C64.4453 88.176 65.3413 87.904 66.0933 87.184C66.3173 87.904 66.9573 88.144 67.7413 88.144C68.0933 88.144 68.4133 88.112 68.7813 88.032ZM65.8853 84.4V86.208C65.2453 86.704 64.5573 86.928 63.8853 86.928C62.8613 86.928 62.3333 86.496 62.3333 85.84C62.3333 85.136 63.1973 84.272 65.8853 84.4ZM77.111 87.776L77.127 86.512C76.375 86.72 75.799 86.784 75.383 86.784C74.455 86.784 73.511 86.48 73.511 85.296V81.424H76.663L76.759 80.128H73.511V78.448L72.183 78.464L71.895 80.128L70.231 80.288V81.424H71.863V85.472C71.863 87.568 73.303 88.144 75.111 88.144C75.639 88.144 76.407 88.048 77.111 87.776ZM86.7688 87.552L86.8328 86.304C85.7608 86.704 84.8808 86.832 84.1448 86.832C82.2088 86.832 80.9288 85.856 80.9448 84.064H86.7208C87.0248 81.328 85.5848 79.776 83.3928 79.776C80.9448 79.776 79.3288 81.408 79.3288 83.872C79.3288 86.384 80.8968 88.192 83.9528 88.16C84.9448 88.144 85.9048 87.952 86.7688 87.552ZM80.9768 82.976C81.0728 81.632 82.0808 80.96 83.1528 80.96C84.3528 80.96 85.1848 81.696 85.1528 82.96L80.9768 82.976ZM105.876 88.032L105.94 87.024C104.58 87.104 104.596 86.624 104.596 85.744V82.784C104.596 80.752 103.588 79.792 101.348 79.792C100.452 79.792 99.2843 80.032 98.4363 80.544L98.5483 81.76C99.5883 81.264 100.436 81.12 101.172 81.12C102.58 81.12 102.98 81.776 102.98 82.864V83.264C98.9963 83.232 97.8763 84.704 97.8763 86C97.8763 87.376 98.9963 88.176 100.548 88.176C101.54 88.176 102.436 87.904 103.188 87.184C103.412 87.904 104.052 88.144 104.836 88.144C105.188 88.144 105.508 88.112 105.876 88.032ZM102.98 84.4V86.208C102.34 86.704 101.652 86.928 100.98 86.928C99.9563 86.928 99.4283 86.496 99.4283 85.84C99.4283 85.136 100.292 84.272 102.98 84.4ZM123.592 85.552C123.592 84.528 123.096 83.728 121.176 83.36L120.168 83.152C118.808 82.88 118.504 82.592 118.504 82.096C118.504 81.568 119.048 81.072 120.52 81.072C121.24 81.072 122.104 81.2 123.032 81.488L123.144 80.24C122.36 79.936 121.384 79.792 120.504 79.792C117.848 79.792 116.856 81.072 116.856 82.208C116.856 83.232 117.448 84.032 119.176 84.368L120.152 84.576C121.672 84.88 121.88 85.216 121.88 85.68C121.88 86.256 121.288 86.848 119.736 86.848C118.872 86.848 118.008 86.688 116.84 86.24L116.888 87.552C117.768 87.952 118.824 88.144 119.784 88.144C122.616 88.144 123.592 86.752 123.592 85.552ZM133.138 87.552L133.202 86.304C132.13 86.704 131.25 86.832 130.514 86.832C128.578 86.832 127.298 85.856 127.314 84.064H133.09C133.394 81.328 131.954 79.776 129.762 79.776C127.314 79.776 125.698 81.408 125.698 83.872C125.698 86.384 127.266 88.192 130.322 88.16C131.314 88.144 132.274 87.952 133.138 87.552ZM127.346 82.976C127.442 81.632 128.45 80.96 129.522 80.96C130.722 80.96 131.554 81.696 131.522 82.96L127.346 82.976ZM142.395 81.424L142.555 79.952C142.107 79.84 141.611 79.792 141.227 79.792C140.251 79.792 139.323 80.048 138.539 81.232L138.523 79.872L136.987 80.032H134.907V81.312H136.987V88H138.635V82.528C139.419 81.52 140.267 81.264 141.067 81.264C141.515 81.264 141.899 81.312 142.395 81.424ZM149.157 77.216C149.157 76.576 148.741 76.112 148.117 76.112C147.445 76.112 147.029 76.576 147.029 77.152C147.029 77.792 147.461 78.256 148.069 78.256C148.709 78.256 149.157 77.824 149.157 77.216ZM144.085 88H151.877V86.704H148.901V79.92L147.269 80.032H144.501V81.312H147.269V86.704H144.085V88ZM160.959 87.552L161.023 86.304C159.951 86.704 159.071 86.832 158.335 86.832C156.399 86.832 155.119 85.856 155.135 84.064H160.911C161.215 81.328 159.775 79.776 157.583 79.776C155.135 79.776 153.519 81.408 153.519 83.872C153.519 86.384 155.087 88.192 158.143 88.16C159.135 88.144 160.095 87.952 160.959 87.552ZM155.167 82.976C155.263 81.632 156.271 80.96 157.343 80.96C158.543 80.96 159.375 81.696 159.343 82.96L155.167 82.976ZM169.961 85.552C169.961 84.528 169.465 83.728 167.545 83.36L166.537 83.152C165.177 82.88 164.873 82.592 164.873 82.096C164.873 81.568 165.417 81.072 166.889 81.072C167.609 81.072 168.473 81.2 169.401 81.488L169.513 80.24C168.729 79.936 167.753 79.792 166.873 79.792C164.217 79.792 163.225 81.072 163.225 82.208C163.225 83.232 163.817 84.032 165.545 84.368L166.521 84.576C168.041 84.88 168.249 85.216 168.249 85.68C168.249 86.256 167.657 86.848 166.105 86.848C165.241 86.848 164.377 86.688 163.209 86.24L163.257 87.552C164.137 87.952 165.193 88.144 166.153 88.144C168.985 88.144 169.961 86.752 169.961 85.552ZM189.196 83.792C189.196 81.248 187.58 79.776 185.308 79.776C182.956 79.776 181.148 81.28 181.148 83.952C181.148 86.672 183.02 88.16 185.132 88.16C187.308 88.16 189.196 86.672 189.196 83.792ZM187.5 83.936C187.5 85.744 186.572 86.848 185.26 86.848H185.148C183.772 86.848 182.844 85.584 182.844 83.856C182.844 81.984 183.852 81.104 185.164 81.104C186.636 81.104 187.5 82.24 187.5 83.936ZM198.806 77.088L198.918 75.824C198.262 75.648 197.558 75.6 197.014 75.6C194.342 75.6 192.886 76.816 192.886 79.2V80.128L190.838 80.272V81.424H192.886V88H194.534V81.424H197.702L197.798 80.128H194.534V79.072C194.534 77.488 195.366 76.944 197.094 76.944C197.462 76.944 198.086 76.976 198.806 77.088ZM213.929 87.968L217.289 79.936H215.609L213.001 86.416L210.441 79.936H208.697L211.977 88.032L213.929 87.968ZM223.347 77.216C223.347 76.576 222.931 76.112 222.307 76.112C221.635 76.112 221.219 76.576 221.219 77.152C221.219 77.792 221.651 78.256 222.259 78.256C222.899 78.256 223.347 77.824 223.347 77.216ZM218.275 88H226.067V86.704H223.091V79.92L221.459 80.032H218.691V81.312H221.459V86.704H218.275V88ZM233.613 88.08L235.117 87.936V75.632L233.469 75.776V79.984C233.021 79.856 232.509 79.792 232.013 79.792C229.261 79.792 227.629 81.536 227.629 84.16C227.629 86.8 229.149 88.176 231.037 88.176C231.949 88.176 232.829 87.888 233.549 87.056L233.613 88.08ZM233.469 81.36V85.888C232.813 86.576 232.125 86.8 231.453 86.8C230.365 86.8 229.309 85.936 229.309 83.952C229.309 82.112 230.349 81.104 231.965 81.104C232.381 81.104 232.925 81.168 233.469 81.36ZM244.423 87.552L244.487 86.304C243.415 86.704 242.535 86.832 241.799 86.832C239.863 86.832 238.583 85.856 238.599 84.064H244.375C244.679 81.328 243.239 79.776 241.047 79.776C238.599 79.776 236.983 81.408 236.983 83.872C236.983 86.384 238.551 88.192 241.607 88.16C242.599 88.144 243.559 87.952 244.423 87.552ZM238.631 82.976C238.727 81.632 239.735 80.96 240.807 80.96C242.007 80.96 242.839 81.696 242.807 82.96L238.631 82.976ZM254.112 83.792C254.112 81.248 252.496 79.776 250.224 79.776C247.872 79.776 246.064 81.28 246.064 83.952C246.064 86.672 247.936 88.16 250.048 88.16C252.224 88.16 254.112 86.672 254.112 83.792ZM252.416 83.936C252.416 85.744 251.488 86.848 250.176 86.848H250.064C248.688 86.848 247.76 85.584 247.76 83.856C247.76 81.984 248.768 81.104 250.08 81.104C251.552 81.104 252.416 82.24 252.416 83.936ZM271.86 87.776L271.876 86.512C271.124 86.72 270.548 86.784 270.132 86.784C269.204 86.784 268.26 86.48 268.26 85.296V81.424H271.412L271.508 80.128H268.26V78.448L266.932 78.464L266.644 80.128L264.98 80.288V81.424H266.612V85.472C266.612 87.568 268.052 88.144 269.86 88.144C270.388 88.144 271.156 88.048 271.86 87.776ZM277.277 88.16C278.237 88.16 279.085 87.872 279.837 87.04L279.869 88.08L281.373 87.936V79.872L279.725 80.016V85.904C279.085 86.512 278.397 86.752 277.757 86.752C276.637 86.752 276.093 85.984 276.093 84.48V79.872L274.461 80.016V84.816C274.461 86.88 275.357 88.16 277.277 88.16ZM290.407 87.776L290.423 86.512C289.671 86.72 289.095 86.784 288.679 86.784C287.751 86.784 286.807 86.48 286.807 85.296V81.424H289.959L290.055 80.128H286.807V78.448L285.479 78.464L285.191 80.128L283.527 80.288V81.424H285.159V85.472C285.159 87.568 286.599 88.144 288.407 88.144C288.935 88.144 289.703 88.048 290.407 87.776ZM300.481 83.792C300.481 81.248 298.865 79.776 296.593 79.776C294.241 79.776 292.433 81.28 292.433 83.952C292.433 86.672 294.305 88.16 296.417 88.16C298.593 88.16 300.481 86.672 300.481 83.792ZM298.785 83.936C298.785 85.744 297.857 86.848 296.545 86.848H296.433C295.057 86.848 294.129 85.584 294.129 83.856C294.129 81.984 295.137 81.104 296.449 81.104C297.921 81.104 298.785 82.24 298.785 83.936ZM309.323 81.424L309.483 79.952C309.035 79.84 308.539 79.792 308.155 79.792C307.179 79.792 306.251 80.048 305.467 81.232L305.451 79.872L303.915 80.032H301.835V81.312H303.915V88H305.563V82.528C306.347 81.52 307.195 81.264 307.995 81.264C308.443 81.264 308.827 81.312 309.323 81.424ZM316.084 77.216C316.084 76.576 315.668 76.112 315.044 76.112C314.372 76.112 313.956 76.576 313.956 77.152C313.956 77.792 314.388 78.256 314.996 78.256C315.636 78.256 316.084 77.824 316.084 77.216ZM311.012 88H318.804V86.704H315.828V79.92L314.196 80.032H311.428V81.312H314.196V86.704H311.012V88ZM328.446 88.032L328.51 87.024C327.15 87.104 327.166 86.624 327.166 85.744V82.784C327.166 80.752 326.158 79.792 323.918 79.792C323.022 79.792 321.854 80.032 321.006 80.544L321.118 81.76C322.158 81.264 323.006 81.12 323.742 81.12C325.15 81.12 325.55 81.776 325.55 82.864V83.264C321.566 83.232 320.446 84.704 320.446 86C320.446 87.376 321.566 88.176 323.118 88.176C324.11 88.176 325.006 87.904 325.758 87.184C325.982 87.904 326.622 88.144 327.406 88.144C327.758 88.144 328.078 88.112 328.446 88.032ZM325.55 84.4V86.208C324.91 86.704 324.222 86.928 323.55 86.928C322.526 86.928 321.998 86.496 321.998 85.84C321.998 85.136 322.862 84.272 325.55 84.4ZM329.56 88H337.352V86.704H334.376V75.648L332.744 75.776H329.976V77.056H332.744V86.704H329.56V88ZM346.162 85.552C346.162 84.528 345.666 83.728 343.746 83.36L342.738 83.152C341.378 82.88 341.074 82.592 341.074 82.096C341.074 81.568 341.618 81.072 343.09 81.072C343.81 81.072 344.674 81.2 345.602 81.488L345.714 80.24C344.93 79.936 343.954 79.792 343.074 79.792C340.418 79.792 339.426 81.072 339.426 82.208C339.426 83.232 340.018 84.032 341.746 84.368L342.722 84.576C344.242 84.88 344.45 85.216 344.45 85.68C344.45 86.256 343.858 86.848 342.306 86.848C341.442 86.848 340.578 86.688 339.41 86.24L339.458 87.552C340.338 87.952 341.394 88.144 342.354 88.144C345.186 88.144 346.162 86.752 346.162 85.552ZM364.597 87.776L364.613 86.512C363.861 86.72 363.285 86.784 362.869 86.784C361.941 86.784 360.997 86.48 360.997 85.296V81.424H364.149L364.245 80.128H360.997V78.448L359.669 78.464L359.381 80.128L357.717 80.288V81.424H359.349V85.472C359.349 87.568 360.789 88.144 362.597 88.144C363.125 88.144 363.893 88.048 364.597 87.776ZM367.215 88H368.863V82.048C369.487 81.44 370.175 81.2 370.815 81.2C371.951 81.2 372.479 81.968 372.479 83.472V88H374.127V83.136C374.127 81.072 373.231 79.792 371.295 79.792C370.335 79.792 369.503 80.08 368.799 80.848C368.847 80.544 368.863 80.192 368.863 79.632V75.648L367.215 75.776V88ZM384.089 88.032L384.153 87.024C382.793 87.104 382.809 86.624 382.809 85.744V82.784C382.809 80.752 381.801 79.792 379.561 79.792C378.665 79.792 377.497 80.032 376.649 80.544L376.761 81.76C377.801 81.264 378.649 81.12 379.385 81.12C380.793 81.12 381.193 81.776 381.193 82.864V83.264C377.209 83.232 376.089 84.704 376.089 86C376.089 87.376 377.209 88.176 378.761 88.176C379.753 88.176 380.649 87.904 381.401 87.184C381.625 87.904 382.265 88.144 383.049 88.144C383.401 88.144 383.721 88.112 384.089 88.032ZM381.193 84.4V86.208C380.553 86.704 379.865 86.928 379.193 86.928C378.169 86.928 377.641 86.496 377.641 85.84C377.641 85.136 378.505 84.272 381.193 84.4ZM392.418 87.776L392.434 86.512C391.682 86.72 391.106 86.784 390.69 86.784C389.762 86.784 388.818 86.48 388.818 85.296V81.424H391.97L392.066 80.128H388.818V78.448L387.49 78.464L387.202 80.128L385.538 80.288V81.424H387.17V85.472C387.17 87.568 388.61 88.144 390.418 88.144C390.946 88.144 391.714 88.048 392.418 87.776ZM40.224 111.632L40.256 110.272C39.264 110.656 38.512 110.752 37.904 110.752C36.192 110.752 34.88 109.856 34.88 107.84C34.88 105.904 36.112 105.168 37.76 105.168C38.32 105.168 39.04 105.232 39.952 105.536L40.096 104.176C39.296 103.888 38.368 103.792 37.68 103.792C35.088 103.792 33.184 105.136 33.184 108.048C33.184 110.576 34.848 112.144 37.68 112.144C38.368 112.144 39.376 112.016 40.224 111.632ZM50.0898 107.792C50.0898 105.248 48.4738 103.776 46.2018 103.776C43.8498 103.776 42.0418 105.28 42.0418 107.952C42.0418 110.672 43.9138 112.16 46.0258 112.16C48.2018 112.16 50.0898 110.672 50.0898 107.792ZM48.3938 107.936C48.3938 109.744 47.4658 110.848 46.1538 110.848H46.0418C44.6658 110.848 43.7378 109.584 43.7378 107.856C43.7378 105.984 44.7458 105.104 46.0578 105.104C47.5298 105.104 48.3938 106.24 48.3938 107.936ZM56.2755 111.968L59.6355 103.936H57.9555L55.3475 110.416L52.7875 103.936H51.0435L54.3235 112.032L56.2755 111.968ZM68.2213 111.552L68.2853 110.304C67.2133 110.704 66.3333 110.832 65.5973 110.832C63.6613 110.832 62.3813 109.856 62.3973 108.064H68.1733C68.4773 105.328 67.0373 103.776 64.8453 103.776C62.3973 103.776 60.7813 105.408 60.7813 107.872C60.7813 110.384 62.3493 112.192 65.4053 112.16C66.3973 112.144 67.3573 111.952 68.2213 111.552ZM62.4293 106.976C62.5253 105.632 63.5333 104.96 64.6053 104.96C65.8053 104.96 66.6373 105.696 66.6053 106.96L62.4293 106.976ZM77.479 105.424L77.639 103.952C77.191 103.84 76.695 103.792 76.311 103.792C75.335 103.792 74.407 104.048 73.623 105.232L73.607 103.872L72.071 104.032H69.991V105.312H72.071V112H73.719V106.528C74.503 105.52 75.351 105.264 76.151 105.264C76.599 105.264 76.983 105.312 77.479 105.424ZM96.0425 111.552L96.1065 110.304C95.0345 110.704 94.1545 110.832 93.4185 110.832C91.4825 110.832 90.2025 109.856 90.2185 108.064H95.9945C96.2985 105.328 94.8585 103.776 92.6665 103.776C90.2185 103.776 88.6025 105.408 88.6025 107.872C88.6025 110.384 90.1705 112.192 93.2265 112.16C94.2185 112.144 95.1785 111.952 96.0425 111.552ZM90.2505 106.976C90.3465 105.632 91.3545 104.96 92.4265 104.96C93.6265 104.96 94.4585 105.696 94.4265 106.96L90.2505 106.976ZM102.644 111.968L106.004 103.936H104.324L101.716 110.416L99.1563 103.936H97.4123L100.692 112.032L102.644 111.968ZM114.59 111.552L114.654 110.304C113.582 110.704 112.702 110.832 111.966 110.832C110.03 110.832 108.75 109.856 108.766 108.064H114.542C114.846 105.328 113.406 103.776 111.214 103.776C108.766 103.776 107.15 105.408 107.15 107.872C107.15 110.384 108.718 112.192 111.774 112.16C112.766 112.144 113.726 111.952 114.59 111.552ZM108.798 106.976C108.894 105.632 109.902 104.96 110.974 104.96C112.174 104.96 113.006 105.696 112.974 106.96L108.798 106.976ZM123.848 105.424L124.008 103.952C123.56 103.84 123.064 103.792 122.68 103.792C121.704 103.792 120.776 104.048 119.992 105.232L119.976 103.872L118.44 104.032H116.36V105.312H118.44V112H120.088V106.528C120.872 105.52 121.72 105.264 122.52 105.264C122.968 105.264 123.352 105.312 123.848 105.424ZM133.666 103.936H132.034C131.666 106.512 131.058 109.12 129.762 111.264C128.418 108.272 126.946 103.936 126.946 103.936H125.09C125.09 103.936 126.85 108.8 128.69 112.704C128.002 113.504 126.994 114.192 125.218 114.832L125.81 116.192C127.506 115.6 128.914 114.784 129.954 113.6C132.21 111.104 133.25 107.072 133.666 103.936ZM142.027 111.776L142.043 110.512C141.291 110.72 140.715 110.784 140.299 110.784C139.371 110.784 138.427 110.48 138.427 109.296V105.424H141.579L141.675 104.128H138.427V102.448L137.099 102.464L136.811 104.128L135.147 104.288V105.424H136.779V109.472C136.779 111.568 138.219 112.144 140.027 112.144C140.555 112.144 141.323 112.048 142.027 111.776ZM144.645 112H146.293V106.048C146.917 105.44 147.605 105.2 148.245 105.2C149.381 105.2 149.909 105.968 149.909 107.472V112H151.557V107.136C151.557 105.072 150.661 103.792 148.725 103.792C147.765 103.792 146.933 104.08 146.229 104.848C146.277 104.544 146.293 104.192 146.293 103.632V99.648L144.645 99.776V112ZM158.431 101.216C158.431 100.576 158.015 100.112 157.391 100.112C156.719 100.112 156.303 100.576 156.303 101.152C156.303 101.792 156.735 102.256 157.343 102.256C157.983 102.256 158.431 101.824 158.431 101.216ZM153.359 112H161.151V110.704H158.175V103.92L156.543 104.032H153.775V105.312H156.543V110.704H153.359V112ZM168.457 112H170.105V107.136C170.105 105.072 169.209 103.792 167.273 103.792C166.313 103.792 165.465 104.08 164.729 104.912L164.681 103.872L163.193 104.016V112H164.841V106.048C165.465 105.44 166.137 105.2 166.793 105.2C167.929 105.2 168.457 105.968 168.457 107.472V112ZM180.226 105.392L180.306 104.256H177.538C176.994 103.936 176.29 103.76 175.506 103.76C173.49 103.76 172.066 105.104 172.066 106.896C172.066 108.304 172.786 109.248 173.794 109.68C173.282 110.016 172.978 110.512 172.978 111.008C172.978 111.424 173.17 111.776 173.554 112.064C171.954 112.368 171.378 113.216 171.378 114.112C171.378 115.136 172.418 116.352 175.058 116.352C178.562 116.352 179.938 114.4 179.938 113.232C179.938 111.824 178.834 111.344 177.074 111.296L176.162 111.28C174.866 111.248 174.434 110.896 174.434 110.464C174.434 110.288 174.514 110.096 174.674 109.936C174.914 110 175.202 110.032 175.474 110.032C177.682 110.032 178.962 108.608 178.962 106.896C178.962 106.336 178.818 105.792 178.53 105.392H180.226ZM177.426 106.896C177.426 108.08 176.69 108.912 175.474 108.912C174.578 108.912 173.634 108.32 173.634 106.912C173.634 105.648 174.37 104.848 175.538 104.848C176.45 104.848 177.426 105.472 177.426 106.896ZM178.402 113.568C178.402 114.224 177.618 115.2 175.346 115.2C173.586 115.2 172.85 114.528 172.85 113.856C172.85 113.296 173.282 112.752 174.45 112.496C174.786 112.624 175.234 112.688 175.794 112.704L176.658 112.736C177.938 112.752 178.402 113.008 178.402 113.568ZM198.806 101.088L198.918 99.824C198.262 99.648 197.558 99.6 197.014 99.6C194.342 99.6 192.886 100.816 192.886 103.2V104.128L190.838 104.272V105.424H192.886V112H194.534V105.424H197.702L197.798 104.128H194.534V103.072C194.534 101.488 195.366 100.944 197.094 100.944C197.462 100.944 198.086 100.976 198.806 101.088ZM207.312 105.424L207.472 103.952C207.024 103.84 206.528 103.792 206.144 103.792C205.168 103.792 204.24 104.048 203.456 105.232L203.44 103.872L201.904 104.032H199.824V105.312H201.904V112H203.552V106.528C204.336 105.52 205.184 105.264 205.984 105.264C206.432 105.264 206.816 105.312 207.312 105.424ZM217.017 107.792C217.017 105.248 215.401 103.776 213.129 103.776C210.777 103.776 208.969 105.28 208.969 107.952C208.969 110.672 210.841 112.16 212.953 112.16C215.129 112.16 217.017 110.672 217.017 107.792ZM215.321 107.936C215.321 109.744 214.393 110.848 213.081 110.848H212.969C211.593 110.848 210.665 109.584 210.665 107.856C210.665 105.984 211.673 105.104 212.985 105.104C214.457 105.104 215.321 106.24 215.321 107.936ZM224.883 112H226.451V107.168C226.451 105.696 226.243 103.792 224.579 103.792C223.891 103.792 223.267 104.144 222.691 105.072C222.499 104.256 221.987 103.792 221.299 103.792C220.691 103.792 220.051 104.08 219.571 104.912L219.507 103.872L218.131 104.016V112H219.699V106C220.019 105.408 220.371 105.2 220.691 105.2C221.539 105.2 221.587 106.576 221.587 107.344V112H222.995V107.504C222.995 106.976 222.979 106.464 222.931 106.048C223.283 105.408 223.635 105.2 223.971 105.2C224.643 105.2 224.883 105.968 224.883 107.136V112ZM244.151 109.552C244.151 108.528 243.655 107.728 241.735 107.36L240.727 107.152C239.367 106.88 239.063 106.592 239.063 106.096C239.063 105.568 239.607 105.072 241.079 105.072C241.799 105.072 242.663 105.2 243.591 105.488L243.703 104.24C242.919 103.936 241.943 103.792 241.063 103.792C238.407 103.792 237.415 105.072 237.415 106.208C237.415 107.232 238.007 108.032 239.735 108.368L240.711 108.576C242.231 108.88 242.439 109.216 242.439 109.68C242.439 110.256 241.847 110.848 240.295 110.848C239.431 110.848 238.567 110.688 237.399 110.24L237.447 111.552C238.327 111.952 239.383 112.144 240.343 112.144C243.175 112.144 244.151 110.752 244.151 109.552ZM253.312 111.776L253.328 110.512C252.576 110.72 252 110.784 251.584 110.784C250.656 110.784 249.712 110.48 249.712 109.296V105.424H252.864L252.96 104.128H249.712V102.448L248.384 102.464L248.096 104.128L246.432 104.288V105.424H248.064V109.472C248.064 111.568 249.504 112.144 251.312 112.144C251.84 112.144 252.608 112.048 253.312 111.776ZM263.53 112.032L263.594 111.024C262.234 111.104 262.25 110.624 262.25 109.744V106.784C262.25 104.752 261.242 103.792 259.002 103.792C258.106 103.792 256.938 104.032 256.09 104.544L256.202 105.76C257.242 105.264 258.09 105.12 258.826 105.12C260.234 105.12 260.634 105.776 260.634 106.864V107.264C256.65 107.232 255.53 108.704 255.53 110C255.53 111.376 256.65 112.176 258.202 112.176C259.194 112.176 260.09 111.904 260.842 111.184C261.066 111.904 261.706 112.144 262.49 112.144C262.842 112.144 263.162 112.112 263.53 112.032ZM260.634 108.4V110.208C259.994 110.704 259.306 110.928 258.634 110.928C257.61 110.928 257.082 110.496 257.082 109.84C257.082 109.136 257.946 108.272 260.634 108.4ZM272.228 105.424L272.388 103.952C271.94 103.84 271.444 103.792 271.06 103.792C270.084 103.792 269.156 104.048 268.372 105.232L268.356 103.872L266.82 104.032H264.74V105.312H266.82V112H268.468V106.528C269.252 105.52 270.1 105.264 270.9 105.264C271.348 105.264 271.732 105.312 272.228 105.424ZM281.133 111.776L281.149 110.512C280.397 110.72 279.821 110.784 279.405 110.784C278.477 110.784 277.533 110.48 277.533 109.296V105.424H280.685L280.781 104.128H277.533V102.448L276.205 102.464L275.917 104.128L274.253 104.288V105.424H275.885V109.472C275.885 111.568 277.325 112.144 279.133 112.144C279.661 112.144 280.429 112.048 281.133 111.776ZM299.681 111.776L299.697 110.512C298.945 110.72 298.369 110.784 297.953 110.784C297.025 110.784 296.081 110.48 296.081 109.296V105.424H299.233L299.329 104.128H296.081V102.448L294.753 102.464L294.465 104.128L292.801 104.288V105.424H294.433V109.472C294.433 111.568 295.873 112.144 297.681 112.144C298.209 112.144 298.977 112.048 299.681 111.776ZM309.755 107.792C309.755 105.248 308.139 103.776 305.867 103.776C303.515 103.776 301.707 105.28 301.707 107.952C301.707 110.672 303.579 112.16 305.691 112.16C307.867 112.16 309.755 110.672 309.755 107.792ZM308.059 107.936C308.059 109.744 307.131 110.848 305.819 110.848H305.707C304.331 110.848 303.403 109.584 303.403 107.856C303.403 105.984 304.411 105.104 305.723 105.104C307.195 105.104 308.059 106.24 308.059 107.936ZM328.638 101.088L328.75 99.824C328.094 99.648 327.39 99.6 326.846 99.6C324.174 99.6 322.718 100.816 322.718 103.2V104.128L320.67 104.272V105.424H322.718V112H324.366V105.424H327.534L327.63 104.128H324.366V103.072C324.366 101.488 325.198 100.944 326.926 100.944C327.294 100.944 327.918 100.976 328.638 101.088ZM334.632 101.216C334.632 100.576 334.216 100.112 333.592 100.112C332.92 100.112 332.504 100.576 332.504 101.152C332.504 101.792 332.936 102.256 333.544 102.256C334.184 102.256 334.632 101.824 334.632 101.216ZM329.56 112H337.352V110.704H334.376V103.92L332.744 104.032H329.976V105.312H332.744V110.704H329.56V112ZM344.658 112H346.306V107.136C346.306 105.072 345.41 103.792 343.474 103.792C342.514 103.792 341.666 104.08 340.93 104.912L340.882 103.872L339.394 104.016V112H341.042V106.048C341.666 105.44 342.338 105.2 342.994 105.2C344.13 105.2 344.658 105.968 344.658 107.472V112ZM353.179 101.216C353.179 100.576 352.763 100.112 352.139 100.112C351.467 100.112 351.051 100.576 351.051 101.152C351.051 101.792 351.483 102.256 352.091 102.256C352.731 102.256 353.179 101.824 353.179 101.216ZM348.107 112H355.899V110.704H352.923V103.92L351.291 104.032H348.523V105.312H351.291V110.704H348.107V112ZM364.709 109.552C364.709 108.528 364.213 107.728 362.293 107.36L361.285 107.152C359.925 106.88 359.621 106.592 359.621 106.096C359.621 105.568 360.165 105.072 361.637 105.072C362.357 105.072 363.221 105.2 364.149 105.488L364.261 104.24C363.477 103.936 362.501 103.792 361.621 103.792C358.965 103.792 357.973 105.072 357.973 106.208C357.973 107.232 358.565 108.032 360.293 108.368L361.269 108.576C362.789 108.88 362.997 109.216 362.997 109.68C362.997 110.256 362.405 110.848 360.853 110.848C359.989 110.848 359.125 110.688 357.957 110.24L358.005 111.552C358.885 111.952 359.941 112.144 360.901 112.144C363.733 112.144 364.709 110.752 364.709 109.552ZM367.215 112H368.863V106.048C369.487 105.44 370.175 105.2 370.815 105.2C371.951 105.2 372.479 105.968 372.479 107.472V112H374.127V107.136C374.127 105.072 373.231 103.792 371.295 103.792C370.335 103.792 369.503 104.08 368.799 104.848C368.847 104.544 368.863 104.192 368.863 103.632V99.648L367.215 99.776V112ZM393.218 107.792C393.218 105.248 391.602 103.776 389.33 103.776C386.978 103.776 385.17 105.28 385.17 107.952C385.17 110.672 387.042 112.16 389.154 112.16C391.33 112.16 393.218 110.672 393.218 107.792ZM391.522 107.936C391.522 109.744 390.594 110.848 389.282 110.848H389.17C387.794 110.848 386.866 109.584 386.866 107.856C386.866 105.984 387.874 105.104 389.186 105.104C390.658 105.104 391.522 106.24 391.522 107.936ZM400.3 112H401.948V107.136C401.948 105.072 401.052 103.792 399.116 103.792C398.156 103.792 397.308 104.08 396.572 104.912L396.524 103.872L395.036 104.016V112H396.684V106.048C397.308 105.44 397.98 105.2 398.636 105.2C399.772 105.2 400.3 105.968 400.3 107.472V112ZM36.16 136.16C37.12 136.16 37.968 135.872 38.72 135.04L38.752 136.08L40.256 135.936V127.872L38.608 128.016V133.904C37.968 134.512 37.28 134.752 36.64 134.752C35.52 134.752 34.976 133.984 34.976 132.48V127.872L33.344 128.016V132.816C33.344 134.88 34.24 136.16 36.16 136.16ZM49.4018 133.552C49.4018 132.528 48.9058 131.728 46.9858 131.36L45.9778 131.152C44.6178 130.88 44.3138 130.592 44.3138 130.096C44.3138 129.568 44.8578 129.072 46.3298 129.072C47.0498 129.072 47.9138 129.2 48.8418 129.488L48.9538 128.24C48.1698 127.936 47.1938 127.792 46.3138 127.792C43.6578 127.792 42.6658 129.072 42.6658 130.208C42.6658 131.232 43.2578 132.032 44.9858 132.368L45.9618 132.576C47.4818 132.88 47.6898 133.216 47.6898 133.68C47.6898 134.256 47.0978 134.848 45.5458 134.848C44.6818 134.848 43.8178 134.688 42.6498 134.24L42.6978 135.552C43.5778 135.952 44.6338 136.144 45.5938 136.144C48.4258 136.144 49.4018 134.752 49.4018 133.552ZM56.4195 125.216C56.4195 124.576 56.0035 124.112 55.3795 124.112C54.7075 124.112 54.2915 124.576 54.2915 125.152C54.2915 125.792 54.7235 126.256 55.3315 126.256C55.9715 126.256 56.4195 125.824 56.4195 125.216ZM51.3475 136H59.1395V134.704H56.1635V127.92L54.5315 128.032H51.7635V129.312H54.5315V134.704H51.3475V136ZM66.4453 136H68.0933V131.136C68.0933 129.072 67.1973 127.792 65.2613 127.792C64.3013 127.792 63.4533 128.08 62.7173 128.912L62.6693 127.872L61.1813 128.016V136H62.8293V130.048C63.4533 129.44 64.1253 129.2 64.7813 129.2C65.9173 129.2 66.4453 129.968 66.4453 131.472V136ZM78.215 129.392L78.295 128.256H75.527C74.983 127.936 74.279 127.76 73.495 127.76C71.479 127.76 70.055 129.104 70.055 130.896C70.055 132.304 70.775 133.248 71.783 133.68C71.271 134.016 70.967 134.512 70.967 135.008C70.967 135.424 71.159 135.776 71.543 136.064C69.943 136.368 69.367 137.216 69.367 138.112C69.367 139.136 70.407 140.352 73.047 140.352C76.551 140.352 77.927 138.4 77.927 137.232C77.927 135.824 76.823 135.344 75.063 135.296L74.151 135.28C72.855 135.248 72.423 134.896 72.423 134.464C72.423 134.288 72.503 134.096 72.663 133.936C72.903 134 73.191 134.032 73.463 134.032C75.671 134.032 76.951 132.608 76.951 130.896C76.951 130.336 76.807 129.792 76.519 129.392H78.215ZM75.415 130.896C75.415 132.08 74.679 132.912 73.463 132.912C72.567 132.912 71.623 132.32 71.623 130.912C71.623 129.648 72.359 128.848 73.527 128.848C74.439 128.848 75.415 129.472 75.415 130.896ZM76.391 137.568C76.391 138.224 75.607 139.2 73.335 139.2C71.575 139.2 70.839 138.528 70.839 137.856C70.839 137.296 71.271 136.752 72.439 136.496C72.775 136.624 73.223 136.688 73.783 136.704L74.647 136.736C75.927 136.752 76.391 137.008 76.391 137.568ZM96.8585 130.144C96.8585 126.736 95.5945 124.464 92.5065 124.464C89.9945 124.464 88.0265 126.736 88.0265 130.192C88.0265 133.744 89.6745 136.176 92.3465 136.176C95.3065 136.176 96.8585 133.488 96.8585 130.144ZM95.0505 130.304C95.0505 132.736 94.3145 134.672 92.4425 134.672H92.3945C90.7465 134.672 89.8185 132.848 89.8185 130.032C89.8185 127.696 90.8265 125.968 92.3625 125.968C94.3145 125.968 95.0505 127.84 95.0505 130.304ZM98.1483 140H99.7963V136.016C100.18 136.128 100.66 136.176 101.124 136.176C104.036 136.176 105.636 134.432 105.636 131.76C105.636 129.152 104.116 127.792 102.228 127.792C101.316 127.792 100.388 128.096 99.7003 128.96L99.6523 127.872L98.1483 128.016V140ZM101.332 134.88C100.852 134.88 100.308 134.8 99.7963 134.592V130.064C100.468 129.392 101.156 129.168 101.812 129.168C102.9 129.168 103.956 130.032 103.956 131.984C103.956 133.856 102.932 134.88 101.332 134.88ZM114.59 135.552L114.654 134.304C113.582 134.704 112.702 134.832 111.966 134.832C110.03 134.832 108.75 133.856 108.766 132.064H114.542C114.846 129.328 113.406 127.776 111.214 127.776C108.766 127.776 107.15 129.408 107.15 131.872C107.15 134.384 108.718 136.192 111.774 136.16C112.766 136.144 113.726 135.952 114.59 135.552ZM108.798 130.976C108.894 129.632 109.902 128.96 110.974 128.96C112.174 128.96 113.006 129.696 112.974 130.96L108.798 130.976ZM122.088 136H123.736V131.136C123.736 129.072 122.84 127.792 120.904 127.792C119.944 127.792 119.096 128.08 118.36 128.912L118.312 127.872L116.824 128.016V136H118.472V130.048C119.096 129.44 119.768 129.2 120.424 129.2C121.56 129.2 122.088 129.968 122.088 131.472V136ZM135.563 136H142.107L142.235 134.528H137.307V130.944H141.579V129.52H137.307V126.112H141.851V124.64H135.563V136ZM149.909 136H151.557V131.136C151.557 129.072 150.661 127.792 148.725 127.792C147.765 127.792 146.917 128.08 146.181 128.912L146.133 127.872L144.645 128.016V136H146.293V130.048C146.917 129.44 147.589 129.2 148.245 129.2C149.381 129.2 149.909 129.968 149.909 131.472V136ZM160.575 135.776L160.591 134.512C159.839 134.72 159.263 134.784 158.847 134.784C157.919 134.784 156.975 134.48 156.975 133.296V129.424H160.127L160.223 128.128H156.975V126.448L155.647 126.464L155.359 128.128L153.695 128.288V129.424H155.327V133.472C155.327 135.568 156.767 136.144 158.575 136.144C159.103 136.144 159.871 136.048 160.575 135.776ZM170.233 135.552L170.297 134.304C169.225 134.704 168.345 134.832 167.609 134.832C165.673 134.832 164.393 133.856 164.409 132.064H170.185C170.489 129.328 169.049 127.776 166.857 127.776C164.409 127.776 162.793 129.408 162.793 131.872C162.793 134.384 164.361 136.192 167.417 136.16C168.409 136.144 169.369 135.952 170.233 135.552ZM164.441 130.976C164.537 129.632 165.545 128.96 166.617 128.96C167.817 128.96 168.649 129.696 168.617 130.96L164.441 130.976ZM179.49 129.424L179.65 127.952C179.202 127.84 178.706 127.792 178.322 127.792C177.346 127.792 176.418 128.048 175.634 129.232L175.618 127.872L174.082 128.032H172.002V129.312H174.082V136H175.73V130.528C176.514 129.52 177.362 129.264 178.162 129.264C178.61 129.264 178.994 129.312 179.49 129.424ZM181.612 140H183.26V136.016C183.644 136.128 184.124 136.176 184.588 136.176C187.5 136.176 189.1 134.432 189.1 131.76C189.1 129.152 187.58 127.792 185.692 127.792C184.78 127.792 183.852 128.096 183.164 128.96L183.116 127.872L181.612 128.016V140ZM184.796 134.88C184.316 134.88 183.772 134.8 183.26 134.592V130.064C183.932 129.392 184.62 129.168 185.276 129.168C186.364 129.168 187.42 130.032 187.42 131.984C187.42 133.856 186.396 134.88 184.796 134.88ZM198.038 129.424L198.198 127.952C197.75 127.84 197.254 127.792 196.87 127.792C195.894 127.792 194.966 128.048 194.182 129.232L194.166 127.872L192.63 128.032H190.55V129.312H192.63V136H194.278V130.528C195.062 129.52 195.91 129.264 196.71 129.264C197.158 129.264 197.542 129.312 198.038 129.424ZM204.8 125.216C204.8 124.576 204.384 124.112 203.76 124.112C203.088 124.112 202.672 124.576 202.672 125.152C202.672 125.792 203.104 126.256 203.712 126.256C204.352 126.256 204.8 125.824 204.8 125.216ZM199.728 136H207.52V134.704H204.544V127.92L202.912 128.032H200.144V129.312H202.912V134.704H199.728V136ZM216.329 133.552C216.329 132.528 215.833 131.728 213.913 131.36L212.905 131.152C211.545 130.88 211.241 130.592 211.241 130.096C211.241 129.568 211.785 129.072 213.257 129.072C213.977 129.072 214.841 129.2 215.769 129.488L215.881 128.24C215.097 127.936 214.121 127.792 213.241 127.792C210.585 127.792 209.593 129.072 209.593 130.208C209.593 131.232 210.185 132.032 211.913 132.368L212.889 132.576C214.409 132.88 214.617 133.216 214.617 133.68C214.617 134.256 214.025 134.848 212.473 134.848C211.609 134.848 210.745 134.688 209.577 134.24L209.625 135.552C210.505 135.952 211.561 136.144 212.521 136.144C215.353 136.144 216.329 134.752 216.329 133.552ZM225.875 135.552L225.939 134.304C224.867 134.704 223.987 134.832 223.251 134.832C221.315 134.832 220.035 133.856 220.051 132.064H225.827C226.131 129.328 224.691 127.776 222.499 127.776C220.051 127.776 218.435 129.408 218.435 131.872C218.435 134.384 220.003 136.192 223.059 136.16C224.051 136.144 225.011 135.952 225.875 135.552ZM220.083 130.976C220.179 129.632 221.187 128.96 222.259 128.96C223.459 128.96 224.291 129.696 224.259 130.96L220.083 130.976ZM232.685 135.056C232.685 134.336 232.253 133.888 231.581 133.888C230.861 133.888 230.413 134.336 230.413 134.992C230.413 135.712 230.861 136.16 231.517 136.16C232.221 136.16 232.685 135.728 232.685 135.056Z" fill="#303031"/>
<path d="M271.718 188H273.702L274.518 185.168H278.006L278.854 188H281.046L277.398 176.608L275.126 176.672L271.718 188ZM274.87 183.632L275.846 180.128C276.054 179.392 276.134 179.072 276.182 178.672H276.214C276.278 179.072 276.358 179.392 276.566 180.128L277.654 183.632H274.87ZM281.999 192H283.871V188.032C284.223 188.128 284.655 188.176 285.055 188.176C288.047 188.176 289.647 186.4 289.647 183.744C289.647 181.152 288.143 179.76 286.255 179.76C285.359 179.76 284.463 180.048 283.759 180.944L283.695 179.84L281.999 180V192ZM285.327 186.704C284.863 186.704 284.351 186.64 283.871 186.464V182.128C284.479 181.52 285.135 181.312 285.743 181.312C286.751 181.312 287.711 182.16 287.711 184C287.711 185.744 286.783 186.704 285.327 186.704ZM291.273 192H293.145V188.032C293.497 188.128 293.929 188.176 294.329 188.176C297.321 188.176 298.921 186.4 298.921 183.744C298.921 181.152 297.417 179.76 295.529 179.76C294.633 179.76 293.737 180.048 293.033 180.944L292.969 179.84L291.273 180V192ZM294.601 186.704C294.137 186.704 293.625 186.64 293.145 186.464V182.128C293.753 181.52 294.409 181.312 295.017 181.312C296.025 181.312 296.985 182.16 296.985 184C296.985 185.744 296.057 186.704 294.601 186.704ZM300.163 188H308.019V186.544H305.139V175.616L303.251 175.76H300.579V177.184H303.251V186.544H300.163V188ZM317.693 179.92H315.837C315.501 182.4 314.973 184.944 313.725 187.024C312.477 184.144 311.069 179.92 311.069 179.92H308.957C308.957 179.92 310.669 184.72 312.493 188.64C311.837 189.392 310.845 190.032 309.085 190.656L309.773 192.176C311.421 191.632 312.797 190.88 313.869 189.744C316.269 187.28 317.293 183.104 317.693 179.92ZM335.984 183.744C335.984 181.152 334.48 179.76 332.624 179.76C331.728 179.76 330.832 180.048 330.16 180.896C330.192 180.688 330.224 180.304 330.224 179.68V175.616L328.352 175.76V186.112C328.352 186.944 328.272 187.392 328.24 187.664C329.264 188 330.544 188.176 331.408 188.176C334.4 188.176 335.984 186.4 335.984 183.744ZM334.064 184C334.064 185.744 333.12 186.704 331.68 186.704C331.216 186.704 330.688 186.64 330.192 186.48C330.224 186.224 330.224 185.968 330.224 185.6V182.128C330.832 181.52 331.472 181.312 332.08 181.312C333.104 181.312 334.064 182.16 334.064 184ZM345.514 179.92H343.658C343.322 182.4 342.794 184.944 341.546 187.024C340.298 184.144 338.89 179.92 338.89 179.92H336.778C336.778 179.92 338.49 184.72 340.314 188.64C339.658 189.392 338.666 190.032 336.906 190.656L337.594 192.176C339.242 191.632 340.618 190.88 341.69 189.744C344.09 187.28 345.114 183.104 345.514 179.92ZM355.453 188H357.165L357.325 180.992C357.341 180.208 357.357 179.552 357.341 179.088H357.373C357.501 179.744 357.645 180.384 357.821 181.024L358.957 184.8H360.589L361.661 181.056C361.853 180.256 361.981 179.648 362.077 179.088H362.109C362.125 179.632 362.157 180.304 362.173 181.008L362.365 188H364.221L363.901 176.64H361.389L359.805 182.496L358.237 176.64H355.709L355.453 188ZM373.303 188.048L373.383 186.912C372.071 186.976 372.071 186.496 372.071 185.68V182.832C372.071 180.72 371.063 179.776 368.759 179.776C367.831 179.776 366.615 180.016 365.767 180.528L365.895 181.888C366.967 181.392 367.831 181.248 368.551 181.248C369.831 181.248 370.247 181.84 370.247 182.848V183.216C366.279 183.2 365.207 184.656 365.207 185.968C365.207 187.376 366.311 188.176 367.863 188.176C368.839 188.176 369.735 187.904 370.503 187.2C370.775 187.952 371.431 188.16 372.199 188.16C372.567 188.16 372.903 188.112 373.303 188.048ZM370.247 184.448V186.144C369.655 186.576 369.015 186.8 368.391 186.8C367.431 186.8 366.951 186.368 366.951 185.776C366.951 185.136 367.703 184.352 370.247 184.448ZM382.609 179.92H380.753C380.417 182.4 379.889 184.944 378.641 187.024C377.393 184.144 375.985 179.92 375.985 179.92H373.873C373.873 179.92 375.585 184.72 377.409 188.64C376.753 189.392 375.761 190.032 374.001 190.656L374.689 192.176C376.337 191.632 377.713 190.88 378.785 189.744C381.185 187.28 382.209 183.104 382.609 179.92ZM400.628 188L400.772 186.336H395.844L397.252 184.944C399.7 182.576 400.212 181.12 400.212 179.888C400.212 177.936 398.724 176.48 396.356 176.48C395.412 176.48 394.356 176.704 393.38 177.264L393.508 178.832C394.5 178.288 395.284 178.128 395.988 178.128C397.284 178.128 398.18 178.816 398.18 180.048C398.18 180.864 397.86 181.888 395.572 184.24L393.38 186.496V188H400.628ZM410.462 182.224C410.462 178.176 408.75 176.48 406.318 176.48C403.758 176.48 401.966 178.368 401.966 182.416C401.966 186.464 403.662 188.16 406.094 188.16C408.654 188.16 410.462 186.272 410.462 182.224ZM408.526 182.352C408.526 185.52 407.534 186.528 406.174 186.528C404.734 186.528 403.902 185.12 403.902 182.288C403.902 179.12 404.878 178.112 406.254 178.112C407.694 178.112 408.526 179.52 408.526 182.352Z" fill="#303031"/>
<path d="M42.17 37.38L42.314 35.22H32.612V37.38H36.068V48H38.66V37.38H42.17ZM46.789 48.18C47.833 48.18 48.823 47.856 49.633 46.848L49.705 48.09L51.901 47.91V38.766L49.453 38.982V45.336C48.823 45.894 48.193 46.11 47.635 46.11C46.573 46.11 46.177 45.228 46.177 43.842V38.766L43.729 38.982V44.382C43.729 46.596 44.593 48.18 46.789 48.18ZM62.0639 47.694L62.0819 45.894C61.2359 46.11 60.6239 46.146 60.1739 46.146C59.1479 46.146 58.2119 45.84 58.2119 44.688V40.962H61.5959L61.7039 39.09H58.2119V37.074L56.2139 37.092L55.8719 39.09L53.9459 39.288V40.962H55.7639V44.958C55.7639 47.532 57.5099 48.162 59.6159 48.162C60.2819 48.162 61.2179 48.018 62.0639 47.694ZM73.3429 43.23C73.3429 40.224 71.3989 38.694 68.8429 38.694C66.2869 38.694 64.0549 40.26 64.0549 43.482C64.0549 46.776 66.5029 48.18 68.6449 48.18C71.0569 48.18 73.3429 46.65 73.3429 43.23ZM70.8409 43.5C70.8409 45.372 69.9409 46.272 68.8069 46.272H68.6989C67.5289 46.272 66.5569 45.228 66.5569 43.338C66.5569 41.214 67.6729 40.602 68.6629 40.602C69.9589 40.602 70.8409 41.628 70.8409 43.5ZM83.2359 40.998L83.4339 38.874C82.9839 38.766 82.4619 38.712 82.1019 38.712C81.0399 38.712 79.9419 38.964 79.0599 40.35L79.0059 38.784L76.7739 39.018H74.6499V40.854H76.7739V48H79.2219V42.024C80.0499 41.124 81.0219 40.89 81.8859 40.89C82.3359 40.89 82.7499 40.926 83.2359 40.998ZM91.0408 35.796C91.0408 34.914 90.4648 34.302 89.5828 34.302C88.6648 34.302 88.0888 34.914 88.0888 35.742C88.0888 36.624 88.6828 37.254 89.5468 37.254C90.4468 37.254 91.0408 36.642 91.0408 35.796ZM84.9928 48H93.9208V46.146H90.7888V38.856L88.3408 39.018H85.4428V40.854H88.3408V46.146H84.9928V48ZM104.768 48.054L104.858 46.596C103.454 46.668 103.472 46.128 103.472 45.3V42.276C103.472 39.774 102.284 38.712 99.6198 38.712C98.5578 38.712 97.0998 39.018 96.1458 39.594L96.3078 41.304C97.5498 40.746 98.5398 40.602 99.3318 40.602C100.61 40.602 101.096 41.16 101.096 42.204V42.528C96.6678 42.546 95.4978 44.184 95.4978 45.66C95.4978 47.28 96.7578 48.198 98.4858 48.198C99.5658 48.198 100.538 47.892 101.42 47.118C101.798 48.018 102.608 48.18 103.418 48.18C103.886 48.18 104.264 48.126 104.768 48.054ZM101.096 44.094V45.84C100.502 46.236 99.8358 46.434 99.2238 46.434C98.1978 46.434 97.7298 46.002 97.7298 45.408C97.7298 44.778 98.4318 43.986 101.096 44.094ZM105.859 48H114.787V46.146H111.655V34.014L109.207 34.194H106.309V36.03H109.207V46.146H105.859V48ZM132.719 47.964L136.283 38.874H133.853L131.297 45.714L128.831 38.874H126.257L129.713 48.036L132.719 47.964ZM143.206 35.796C143.206 34.914 142.63 34.302 141.748 34.302C140.83 34.302 140.254 34.914 140.254 35.742C140.254 36.624 140.848 37.254 141.712 37.254C142.612 37.254 143.206 36.642 143.206 35.796ZM137.158 48H146.086V46.146H142.954V38.856L140.506 39.018H137.608V40.854H140.506V46.146H137.158V48ZM154.197 48.09L156.411 47.91V33.996L153.963 34.194V38.874C153.495 38.748 152.991 38.712 152.541 38.712C149.391 38.712 147.573 40.728 147.573 43.626C147.573 46.614 149.229 48.198 151.317 48.198C152.289 48.198 153.225 47.892 154.089 46.974L154.197 48.09ZM153.963 40.818V45.39C153.351 45.966 152.703 46.2 152.073 46.2C151.011 46.2 150.075 45.282 150.075 43.302C150.075 41.592 150.993 40.602 152.523 40.602C152.883 40.602 153.387 40.638 153.963 40.818ZM166.754 47.514L166.826 45.75C165.656 46.146 164.63 46.272 163.802 46.272C161.822 46.272 160.58 45.426 160.544 43.842H166.664C167.168 40.602 165.548 38.694 162.902 38.694C160.004 38.694 158.132 40.602 158.132 43.374C158.132 46.038 159.716 48.198 163.46 48.18C164.558 48.18 165.728 47.964 166.754 47.514ZM160.562 42.33C160.634 40.98 161.588 40.386 162.578 40.386C163.73 40.386 164.486 41.088 164.432 42.294L160.562 42.33ZM177.673 43.23C177.673 40.224 175.729 38.694 173.173 38.694C170.617 38.694 168.385 40.26 168.385 43.482C168.385 46.776 170.833 48.18 172.975 48.18C175.387 48.18 177.673 46.65 177.673 43.23ZM175.171 43.5C175.171 45.372 174.271 46.272 173.137 46.272H173.029C171.859 46.272 170.887 45.228 170.887 43.338C170.887 41.214 172.003 40.602 172.993 40.602C174.289 40.602 175.171 41.628 175.171 43.5ZM197.819 45.12C197.819 43.932 197.279 43.032 195.119 42.6L194.093 42.384C192.671 42.096 192.365 41.844 192.365 41.394C192.365 40.944 192.815 40.53 194.327 40.53C195.119 40.53 196.001 40.656 197.099 40.944L197.261 39.18C196.361 38.856 195.209 38.694 194.273 38.694C191.141 38.694 189.935 40.188 189.935 41.574C189.935 42.726 190.583 43.716 192.563 44.13L193.553 44.328C195.101 44.652 195.299 44.94 195.299 45.354C195.299 45.84 194.795 46.308 193.175 46.308C192.293 46.308 191.357 46.146 190.007 45.696L190.043 47.55C191.087 47.964 192.311 48.162 193.301 48.162C196.703 48.162 197.819 46.524 197.819 45.12ZM208.486 47.514L208.558 45.75C207.388 46.146 206.362 46.272 205.534 46.272C203.554 46.272 202.312 45.426 202.276 43.842H208.396C208.9 40.602 207.28 38.694 204.634 38.694C201.736 38.694 199.864 40.602 199.864 43.374C199.864 46.038 201.448 48.198 205.192 48.18C206.29 48.18 207.46 47.964 208.486 47.514ZM202.294 42.33C202.366 40.98 203.32 40.386 204.31 40.386C205.462 40.386 206.218 41.088 206.164 42.294L202.294 42.33ZM218.864 40.998L219.062 38.874C218.612 38.766 218.09 38.712 217.73 38.712C216.668 38.712 215.57 38.964 214.688 40.35L214.634 38.784L212.402 39.018H210.278V40.854H212.402V48H214.85V42.024C215.678 41.124 216.65 40.89 217.514 40.89C217.964 40.89 218.378 40.926 218.864 40.998ZM226.669 35.796C226.669 34.914 226.093 34.302 225.211 34.302C224.293 34.302 223.717 34.914 223.717 35.742C223.717 36.624 224.311 37.254 225.175 37.254C226.075 37.254 226.669 36.642 226.669 35.796ZM220.621 48H229.549V46.146H226.417V38.856L223.969 39.018H221.071V40.854H223.969V46.146H220.621V48ZM239.784 47.514L239.856 45.75C238.686 46.146 237.66 46.272 236.832 46.272C234.852 46.272 233.61 45.426 233.574 43.842H239.694C240.198 40.602 238.578 38.694 235.932 38.694C233.034 38.694 231.162 40.602 231.162 43.374C231.162 46.038 232.746 48.198 236.49 48.18C237.588 48.18 238.758 47.964 239.784 47.514ZM233.592 42.33C233.664 40.98 234.618 40.386 235.608 40.386C236.76 40.386 237.516 41.088 237.462 42.294L233.592 42.33ZM249.983 45.12C249.983 43.932 249.443 43.032 247.283 42.6L246.257 42.384C244.835 42.096 244.529 41.844 244.529 41.394C244.529 40.944 244.979 40.53 246.491 40.53C247.283 40.53 248.165 40.656 249.263 40.944L249.425 39.18C248.525 38.856 247.373 38.694 246.437 38.694C243.305 38.694 242.099 40.188 242.099 41.574C242.099 42.726 242.747 43.716 244.727 44.13L245.717 44.328C247.265 44.652 247.463 44.94 247.463 45.354C247.463 45.84 246.959 46.308 245.339 46.308C244.457 46.308 243.521 46.146 242.171 45.696L242.207 47.55C243.251 47.964 244.475 48.162 245.465 48.162C248.867 48.162 249.983 46.524 249.983 45.12Z" fill="#303031"/>
<rect x="32" y="166" width="72" height="32" rx="16" fill="#71A894"/>
<path d="M45.776 188H47.456V185.312H48.88L49.008 183.888H47.456V176.64H45.632L40.512 184.048V185.312H45.776V188ZM42.288 183.888L45.792 178.8H45.824C45.808 178.944 45.776 179.392 45.776 180.016V183.888H42.288ZM58.2818 182.224C58.2818 178.176 56.5858 176.48 54.2018 176.48C51.6418 176.48 49.8658 178.4 49.8658 182.416C49.8658 186.464 51.5778 188.16 53.9618 188.16C56.5218 188.16 58.2818 186.24 58.2818 182.224ZM56.5698 182.352C56.5698 185.584 55.4978 186.704 54.0258 186.704C52.5218 186.704 51.5938 185.232 51.5938 182.288C51.5938 179.056 52.6498 177.936 54.1218 177.936C55.6418 177.936 56.5698 179.408 56.5698 182.352ZM67.9973 188H69.7573L70.6373 184.976H74.3813L75.3413 188H77.2613L73.4853 176.608L71.5013 176.672L67.9973 188ZM70.9893 183.6L72.0773 179.872C72.3013 179.12 72.3813 178.784 72.4453 178.432H72.4773C72.5253 178.784 72.6053 179.104 72.8453 179.872L74.0293 183.6H70.9893ZM85.975 183.2V176.64H84.311V183.168C84.311 184.832 83.927 186.656 82.007 186.656C79.991 186.656 79.575 184.848 79.575 183.04V176.64H77.831V183.232C77.831 186.224 78.935 188.176 81.863 188.176C84.583 188.176 85.975 186.208 85.975 183.2ZM95.3288 178.112L95.4248 176.64H87.0088V178.112H90.2728V188H92.0328V178.112H95.3288Z" fill="white"/>
</g>
<defs>
<filter id="filter0_d_59_20" x="0" y="0" width="443" height="232" filterUnits="userSpaceOnUse" color-interpolation-filters="sRGB">
<feFlood flood-opacity="0" result="BackgroundImageFix"/>
<feColorMatrix in="SourceAlpha" type="matrix" values="0 0 0 0 0 0 0 0 0 0 0 0 0 0 0 0 0 0 127 0" result="hardAlpha"/>
<feOffset dy="2"/>
<feGaussianBlur stdDeviation="4"/>
<feColorMatrix type="matrix" values="0 0 0 0 0 0 0 0 0 0 0 0 0 0 0 0 0 0 0.1 0"/>
<feBlend mode="normal" in2="BackgroundImageFix" result="effect1_dropShadow_59_20"/>
<feBlend mode="normal" in="SourceGraphic" in2="effect1_dropShadow_59_20" result="shape"/>
</filter>
</defs>
</svg>
