<svg width="443" height="232" viewBox="0 0 443 232" fill="none" xmlns="http://www.w3.org/2000/svg">
<g filter="url(#filter0_d_59_14)">
<rect x="8" y="6" width="427" height="216" rx="16" fill="white"/>
<path d="M41.392 88.08L41.616 86.816C40.672 86.656 40.16 86.4 39.136 84.8L38.048 83.136C39.376 82.48 39.856 81.312 39.856 80.144C39.856 77.584 37.728 76.64 35.472 76.64H32.736V88H34.48V83.728H36.336L37.456 85.504C38.88 87.904 39.664 88.096 41.392 88.08ZM38.048 80.288C38.048 81.504 37.232 82.416 36.032 82.416C35.392 82.416 34.48 82.384 34.48 82.384V78.08H35.44C36.784 78.08 38.048 78.688 38.048 80.288ZM49.6738 87.552L49.7378 86.304C48.6658 86.704 47.7858 86.832 47.0498 86.832C45.1138 86.832 43.8338 85.856 43.8498 84.064H49.6258C49.9298 81.328 48.4898 79.776 46.2978 79.776C43.8498 79.776 42.2338 81.408 42.2338 83.872C42.2338 86.384 43.8018 88.192 46.8578 88.16C47.8498 88.144 48.8098 87.952 49.6738 87.552ZM43.8818 82.976C43.9778 81.632 44.9858 80.96 46.0578 80.96C47.2578 80.96 48.0898 81.696 48.0578 82.96L43.8818 82.976ZM56.2755 87.968L59.6355 79.936H57.9555L55.3475 86.416L52.7875 79.936H51.0435L54.3235 88.032L56.2755 87.968ZM65.6933 77.216C65.6933 76.576 65.2773 76.112 64.6533 76.112C63.9813 76.112 63.5653 76.576 63.5653 77.152C63.5653 77.792 63.9973 78.256 64.6053 78.256C65.2453 78.256 65.6933 77.824 65.6933 77.216ZM60.6213 88H68.4133V86.704H65.4373V79.92L63.8053 80.032H61.0373V81.312H63.8053V86.704H60.6213V88ZM77.495 87.552L77.559 86.304C76.487 86.704 75.607 86.832 74.871 86.832C72.935 86.832 71.655 85.856 71.671 84.064H77.447C77.751 81.328 76.311 79.776 74.119 79.776C71.671 79.776 70.055 81.408 70.055 83.872C70.055 86.384 71.623 88.192 74.679 88.16C75.671 88.144 76.631 87.952 77.495 87.552ZM71.703 82.976C71.799 81.632 72.807 80.96 73.879 80.96C75.079 80.96 75.911 81.696 75.879 82.96L71.703 82.976ZM80.0648 88.032L81.9528 87.968L83.1848 83.12L84.3048 88.032L86.2088 87.968L87.9208 79.936H86.4008L85.1688 86.416H85.1368L83.9848 81.44H82.4328L81.2168 86.416H81.1848L80.0008 79.936H78.4168L80.0648 88.032ZM105.732 83.792C105.732 81.248 104.116 79.776 101.844 79.776C99.4923 79.776 97.6843 81.28 97.6843 83.952C97.6843 86.672 99.5563 88.16 101.668 88.16C103.844 88.16 105.732 86.672 105.732 83.792ZM104.036 83.936C104.036 85.744 103.108 86.848 101.796 86.848H101.684C100.308 86.848 99.3803 85.584 99.3803 83.856C99.3803 81.984 100.388 81.104 101.7 81.104C103.172 81.104 104.036 82.24 104.036 83.936ZM110.35 88.16C111.31 88.16 112.158 87.872 112.91 87.04L112.942 88.08L114.446 87.936V79.872L112.798 80.016V85.904C112.158 86.512 111.47 86.752 110.83 86.752C109.71 86.752 109.166 85.984 109.166 84.48V79.872L107.534 80.016V84.816C107.534 86.88 108.43 88.16 110.35 88.16ZM123.848 81.424L124.008 79.952C123.56 79.84 123.064 79.792 122.68 79.792C121.704 79.792 120.776 80.048 119.992 81.232L119.976 79.872L118.44 80.032H116.36V81.312H118.44V88H120.088V82.528C120.872 81.52 121.72 81.264 122.52 81.264C122.968 81.264 123.352 81.312 123.848 81.424ZM142.235 87.632L142.267 86.272C141.275 86.656 140.523 86.752 139.915 86.752C138.203 86.752 136.891 85.856 136.891 83.84C136.891 81.904 138.123 81.168 139.771 81.168C140.331 81.168 141.051 81.232 141.963 81.536L142.107 80.176C141.307 79.888 140.379 79.792 139.691 79.792C137.099 79.792 135.195 81.136 135.195 84.048C135.195 86.576 136.859 88.144 139.691 88.144C140.379 88.144 141.387 88.016 142.235 87.632ZM152.101 83.792C152.101 81.248 150.485 79.776 148.213 79.776C145.861 79.776 144.053 81.28 144.053 83.952C144.053 86.672 145.925 88.16 148.037 88.16C150.213 88.16 152.101 86.672 152.101 83.792ZM150.405 83.936C150.405 85.744 149.477 86.848 148.165 86.848H148.053C146.677 86.848 145.749 85.584 145.749 83.856C145.749 81.984 146.757 81.104 148.069 81.104C149.541 81.104 150.405 82.24 150.405 83.936ZM159.967 88H161.535V83.168C161.535 81.696 161.327 79.792 159.663 79.792C158.975 79.792 158.351 80.144 157.775 81.072C157.583 80.256 157.071 79.792 156.383 79.792C155.775 79.792 155.135 80.08 154.655 80.912L154.591 79.872L153.215 80.016V88H154.783V82C155.103 81.408 155.455 81.2 155.775 81.2C156.623 81.2 156.671 82.576 156.671 83.344V88H158.079V83.504C158.079 82.976 158.063 82.464 158.015 82.048C158.367 81.408 158.719 81.2 159.055 81.2C159.727 81.2 159.967 81.968 159.967 83.136V88ZM169.241 88H170.809V83.168C170.809 81.696 170.601 79.792 168.937 79.792C168.249 79.792 167.625 80.144 167.049 81.072C166.857 80.256 166.345 79.792 165.657 79.792C165.049 79.792 164.409 80.08 163.929 80.912L163.865 79.872L162.489 80.016V88H164.057V82C164.377 81.408 164.729 81.2 165.049 81.2C165.897 81.2 165.945 82.576 165.945 83.344V88H167.353V83.504C167.353 82.976 167.337 82.464 167.289 82.048C167.641 81.408 167.993 81.2 168.329 81.2C169.001 81.2 169.241 81.968 169.241 83.136V88ZM175.266 88.16C176.226 88.16 177.074 87.872 177.826 87.04L177.858 88.08L179.362 87.936V79.872L177.714 80.016V85.904C177.074 86.512 176.386 86.752 175.746 86.752C174.626 86.752 174.082 85.984 174.082 84.48V79.872L172.45 80.016V84.816C172.45 86.88 173.346 88.16 175.266 88.16ZM187.004 88H188.652V83.136C188.652 81.072 187.756 79.792 185.82 79.792C184.86 79.792 184.012 80.08 183.276 80.912L183.228 79.872L181.74 80.016V88H183.388V82.048C184.012 81.44 184.684 81.2 185.34 81.2C186.476 81.2 187.004 81.968 187.004 83.472V88ZM195.526 77.216C195.526 76.576 195.11 76.112 194.486 76.112C193.814 76.112 193.398 76.576 193.398 77.152C193.398 77.792 193.83 78.256 194.438 78.256C195.078 78.256 195.526 77.824 195.526 77.216ZM190.454 88H198.246V86.704H195.27V79.92L193.638 80.032H190.87V81.312H193.638V86.704H190.454V88ZM206.944 87.776L206.96 86.512C206.208 86.72 205.632 86.784 205.216 86.784C204.288 86.784 203.344 86.48 203.344 85.296V81.424H206.496L206.592 80.128H203.344V78.448L202.016 78.464L201.728 80.128L200.064 80.288V81.424H201.696V85.472C201.696 87.568 203.136 88.144 204.944 88.144C205.472 88.144 206.24 88.048 206.944 87.776ZM217.129 79.936H215.497C215.129 82.512 214.521 85.12 213.225 87.264C211.881 84.272 210.409 79.936 210.409 79.936H208.553C208.553 79.936 210.313 84.8 212.153 88.704C211.465 89.504 210.457 90.192 208.681 90.832L209.273 92.192C210.969 91.6 212.377 90.784 213.417 89.6C215.673 87.104 216.713 83.072 217.129 79.936ZM234.973 87.632L235.005 86.272C234.013 86.656 233.261 86.752 232.653 86.752C230.941 86.752 229.629 85.856 229.629 83.84C229.629 81.904 230.861 81.168 232.509 81.168C233.069 81.168 233.789 81.232 234.701 81.536L234.845 80.176C234.045 79.888 233.117 79.792 232.429 79.792C229.837 79.792 227.933 81.136 227.933 84.048C227.933 86.576 229.597 88.144 232.429 88.144C233.117 88.144 234.125 88.016 234.973 87.632ZM237.383 88H239.031V82.048C239.655 81.44 240.343 81.2 240.983 81.2C242.119 81.2 242.647 81.968 242.647 83.472V88H244.295V83.136C244.295 81.072 243.399 79.792 241.463 79.792C240.503 79.792 239.671 80.08 238.967 80.848C239.015 80.544 239.031 80.192 239.031 79.632V75.648L237.383 75.776V88ZM254.256 88.032L254.32 87.024C252.96 87.104 252.976 86.624 252.976 85.744V82.784C252.976 80.752 251.968 79.792 249.728 79.792C248.832 79.792 247.664 80.032 246.816 80.544L246.928 81.76C247.968 81.264 248.816 81.12 249.552 81.12C250.96 81.12 251.36 81.776 251.36 82.864V83.264C247.376 83.232 246.256 84.704 246.256 86C246.256 87.376 247.376 88.176 248.928 88.176C249.92 88.176 250.816 87.904 251.568 87.184C251.792 87.904 252.432 88.144 253.216 88.144C253.568 88.144 253.888 88.112 254.256 88.032ZM251.36 84.4V86.208C250.72 86.704 250.032 86.928 249.36 86.928C248.336 86.928 247.808 86.496 247.808 85.84C247.808 85.136 248.672 84.272 251.36 84.4ZM262.586 87.776L262.602 86.512C261.85 86.72 261.274 86.784 260.858 86.784C259.93 86.784 258.986 86.48 258.986 85.296V81.424H262.138L262.234 80.128H258.986V78.448L257.658 78.464L257.37 80.128L255.706 80.288V81.424H257.338V85.472C257.338 87.568 258.778 88.144 260.586 88.144C261.114 88.144 261.882 88.048 262.586 87.776ZM282.269 77.088L282.381 75.824C281.725 75.648 281.021 75.6 280.477 75.6C277.805 75.6 276.349 76.816 276.349 79.2V80.128L274.301 80.272V81.424H276.349V88H277.997V81.424H281.165L281.261 80.128H277.997V79.072C277.997 77.488 278.829 76.944 280.557 76.944C280.925 76.944 281.549 76.976 282.269 77.088ZM291.207 83.792C291.207 81.248 289.591 79.776 287.319 79.776C284.967 79.776 283.159 81.28 283.159 83.952C283.159 86.672 285.031 88.16 287.143 88.16C289.319 88.16 291.207 86.672 291.207 83.792ZM289.511 83.936C289.511 85.744 288.583 86.848 287.271 86.848H287.159C285.783 86.848 284.855 85.584 284.855 83.856C284.855 81.984 285.863 81.104 287.175 81.104C288.647 81.104 289.511 82.24 289.511 83.936ZM300.049 81.424L300.209 79.952C299.761 79.84 299.265 79.792 298.881 79.792C297.905 79.792 296.977 80.048 296.193 81.232L296.177 79.872L294.641 80.032H292.561V81.312H294.641V88H296.289V82.528C297.073 81.52 297.921 81.264 298.721 81.264C299.169 81.264 299.553 81.312 300.049 81.424ZM318.228 87.776L318.244 86.512C317.492 86.72 316.916 86.784 316.5 86.784C315.572 86.784 314.628 86.48 314.628 85.296V81.424H317.78L317.876 80.128H314.628V78.448L313.3 78.464L313.012 80.128L311.348 80.288V81.424H312.98V85.472C312.98 87.568 314.42 88.144 316.228 88.144C316.756 88.144 317.524 88.048 318.228 87.776ZM320.846 88H322.494V82.048C323.118 81.44 323.806 81.2 324.446 81.2C325.582 81.2 326.11 81.968 326.11 83.472V88H327.758V83.136C327.758 81.072 326.862 79.792 324.926 79.792C323.966 79.792 323.134 80.08 322.43 80.848C322.478 80.544 322.494 80.192 322.494 79.632V75.648L320.846 75.776V88ZM337.16 87.552L337.224 86.304C336.152 86.704 335.272 86.832 334.536 86.832C332.6 86.832 331.32 85.856 331.336 84.064H337.112C337.416 81.328 335.976 79.776 333.784 79.776C331.336 79.776 329.72 81.408 329.72 83.872C329.72 86.384 331.288 88.192 334.344 88.16C335.336 88.144 336.296 87.952 337.16 87.552ZM331.368 82.976C331.464 81.632 332.472 80.96 333.544 80.96C334.744 80.96 335.576 81.696 335.544 82.96L331.368 82.976ZM354.715 88H356.283V83.168C356.283 81.696 356.075 79.792 354.411 79.792C353.723 79.792 353.099 80.144 352.523 81.072C352.331 80.256 351.819 79.792 351.131 79.792C350.523 79.792 349.883 80.08 349.403 80.912L349.339 79.872L347.963 80.016V88H349.531V82C349.851 81.408 350.203 81.2 350.523 81.2C351.371 81.2 351.419 82.576 351.419 83.344V88H352.827V83.504C352.827 82.976 352.811 82.464 352.763 82.048C353.115 81.408 353.467 81.2 353.803 81.2C354.475 81.2 354.715 81.968 354.715 83.136V88ZM365.397 83.792C365.397 81.248 363.781 79.776 361.509 79.776C359.157 79.776 357.349 81.28 357.349 83.952C357.349 86.672 359.221 88.16 361.333 88.16C363.509 88.16 365.397 86.672 365.397 83.792ZM363.701 83.936C363.701 85.744 362.773 86.848 361.461 86.848H361.349C359.973 86.848 359.045 85.584 359.045 83.856C359.045 81.984 360.053 81.104 361.365 81.104C362.837 81.104 363.701 82.24 363.701 83.936ZM373.983 85.552C373.983 84.528 373.487 83.728 371.567 83.36L370.559 83.152C369.199 82.88 368.895 82.592 368.895 82.096C368.895 81.568 369.439 81.072 370.911 81.072C371.631 81.072 372.495 81.2 373.423 81.488L373.535 80.24C372.751 79.936 371.775 79.792 370.895 79.792C368.239 79.792 367.247 81.072 367.247 82.208C367.247 83.232 367.839 84.032 369.567 84.368L370.543 84.576C372.063 84.88 372.271 85.216 372.271 85.68C372.271 86.256 371.679 86.848 370.127 86.848C369.263 86.848 368.399 86.688 367.231 86.24L367.279 87.552C368.159 87.952 369.215 88.144 370.175 88.144C373.007 88.144 373.983 86.752 373.983 85.552ZM383.145 87.776L383.161 86.512C382.409 86.72 381.833 86.784 381.417 86.784C380.489 86.784 379.545 86.48 379.545 85.296V81.424H382.697L382.793 80.128H379.545V78.448L378.217 78.464L377.929 80.128L376.265 80.288V81.424H377.897V85.472C377.897 87.568 379.337 88.144 381.145 88.144C381.673 88.144 382.441 88.048 383.145 87.776ZM41.152 101.088L41.264 99.824C40.608 99.648 39.904 99.6 39.36 99.6C36.688 99.6 35.232 100.816 35.232 103.2V104.128L33.184 104.272V105.424H35.232V112H36.88V105.424H40.048L40.144 104.128H36.88V103.072C36.88 101.488 37.712 100.944 39.44 100.944C39.808 100.944 40.432 100.976 41.152 101.088ZM49.6578 105.424L49.8178 103.952C49.3698 103.84 48.8738 103.792 48.4898 103.792C47.5138 103.792 46.5858 104.048 45.8018 105.232L45.7858 103.872L44.2498 104.032H42.1698V105.312H44.2498V112H45.8978V106.528C46.6818 105.52 47.5298 105.264 48.3298 105.264C48.7778 105.264 49.1618 105.312 49.6578 105.424ZM58.9475 111.552L59.0115 110.304C57.9395 110.704 57.0595 110.832 56.3235 110.832C54.3875 110.832 53.1075 109.856 53.1235 108.064H58.8995C59.2035 105.328 57.7635 103.776 55.5715 103.776C53.1235 103.776 51.5075 105.408 51.5075 107.872C51.5075 110.384 53.0755 112.192 56.1315 112.16C57.1235 112.144 58.0835 111.952 58.9475 111.552ZM53.1555 106.976C53.2515 105.632 54.2595 104.96 55.3315 104.96C56.5315 104.96 57.3635 105.696 57.3315 106.96L53.1555 106.976ZM66.5413 116H68.1893V104.112C66.8293 103.84 65.9173 103.776 65.3413 103.776C62.3653 103.776 60.7013 105.504 60.7013 108.16C60.7013 110.816 62.2373 112.176 64.1093 112.176C65.0213 112.176 65.9013 111.888 66.6053 111.072C66.6053 111.216 66.5413 111.584 66.5413 112.128V116ZM64.5253 110.8C63.4693 110.8 62.3813 109.952 62.3813 107.968C62.3813 106.032 63.4533 105.088 65.1493 105.088C65.5173 105.088 66.0453 105.136 66.5413 105.28V109.888C65.8853 110.576 65.1973 110.8 64.5253 110.8ZM73.255 112.16C74.215 112.16 75.063 111.872 75.815 111.04L75.847 112.08L77.351 111.936V103.872L75.703 104.016V109.904C75.063 110.512 74.375 110.752 73.735 110.752C72.615 110.752 72.071 109.984 72.071 108.48V103.872L70.439 104.016V108.816C70.439 110.88 71.335 112.16 73.255 112.16ZM86.7688 111.552L86.8328 110.304C85.7608 110.704 84.8808 110.832 84.1448 110.832C82.2088 110.832 80.9288 109.856 80.9448 108.064H86.7208C87.0248 105.328 85.5848 103.776 83.3928 103.776C80.9448 103.776 79.3288 105.408 79.3288 107.872C79.3288 110.384 80.8968 112.192 83.9528 112.16C84.9448 112.144 85.9048 111.952 86.7688 111.552ZM80.9768 106.976C81.0728 105.632 82.0808 104.96 83.1528 104.96C84.3528 104.96 85.1848 105.696 85.1528 106.96L80.9768 106.976ZM94.2665 112H95.9145V107.136C95.9145 105.072 95.0185 103.792 93.0825 103.792C92.1225 103.792 91.2745 104.08 90.5385 104.912L90.4905 103.872L89.0025 104.016V112H90.6505V106.048C91.2745 105.44 91.9465 105.2 92.6025 105.2C93.7385 105.2 94.2665 105.968 94.2665 107.472V112ZM104.932 111.776L104.948 110.512C104.196 110.72 103.62 110.784 103.204 110.784C102.276 110.784 101.332 110.48 101.332 109.296V105.424H104.484L104.58 104.128H101.332V102.448L100.004 102.464L99.7163 104.128L98.0523 104.288V105.424H99.6843V109.472C99.6843 111.568 101.124 112.144 102.932 112.144C103.46 112.144 104.228 112.048 104.932 111.776ZM106.99 112H114.782V110.704H111.806V99.648L110.174 99.776H107.406V101.056H110.174V110.704H106.99V112ZM124.392 103.936H122.76C122.392 106.512 121.784 109.12 120.488 111.264C119.144 108.272 117.672 103.936 117.672 103.936H115.816C115.816 103.936 117.576 108.8 119.416 112.704C118.728 113.504 117.72 114.192 115.944 114.832L116.536 116.192C118.232 115.6 119.64 114.784 120.68 113.6C122.936 111.104 123.976 107.072 124.392 103.936ZM142.971 112.032L143.035 111.024C141.675 111.104 141.691 110.624 141.691 109.744V106.784C141.691 104.752 140.683 103.792 138.443 103.792C137.547 103.792 136.379 104.032 135.531 104.544L135.643 105.76C136.683 105.264 137.531 105.12 138.267 105.12C139.675 105.12 140.075 105.776 140.075 106.864V107.264C136.091 107.232 134.971 108.704 134.971 110C134.971 111.376 136.091 112.176 137.643 112.176C138.635 112.176 139.531 111.904 140.283 111.184C140.507 111.904 141.147 112.144 141.931 112.144C142.283 112.144 142.603 112.112 142.971 112.032ZM140.075 108.4V110.208C139.435 110.704 138.747 110.928 138.075 110.928C137.051 110.928 136.523 110.496 136.523 109.84C136.523 109.136 137.387 108.272 140.075 108.4ZM151.413 109.552C151.413 108.528 150.917 107.728 148.997 107.36L147.989 107.152C146.629 106.88 146.325 106.592 146.325 106.096C146.325 105.568 146.869 105.072 148.341 105.072C149.061 105.072 149.925 105.2 150.853 105.488L150.965 104.24C150.181 103.936 149.205 103.792 148.325 103.792C145.669 103.792 144.677 105.072 144.677 106.208C144.677 107.232 145.269 108.032 146.997 108.368L147.973 108.576C149.493 108.88 149.701 109.216 149.701 109.68C149.701 110.256 149.109 110.848 147.557 110.848C146.693 110.848 145.829 110.688 144.661 110.24L144.709 111.552C145.589 111.952 146.645 112.144 147.605 112.144C150.437 112.144 151.413 110.752 151.413 109.552ZM153.935 112H155.583V99.648L153.935 99.776V112ZM159.423 112H161.487L157.775 107.664L161.295 103.936H159.327L155.871 107.744L159.423 112ZM170.233 111.552L170.297 110.304C169.225 110.704 168.345 110.832 167.609 110.832C165.673 110.832 164.393 109.856 164.409 108.064H170.185C170.489 105.328 169.049 103.776 166.857 103.776C164.409 103.776 162.793 105.408 162.793 107.872C162.793 110.384 164.361 112.192 167.417 112.16C168.409 112.144 169.369 111.952 170.233 111.552ZM164.441 106.976C164.537 105.632 165.545 104.96 166.617 104.96C167.817 104.96 168.649 105.696 168.617 106.96L164.441 106.976ZM177.97 112.08L179.474 111.936V99.632L177.826 99.776V103.984C177.378 103.856 176.866 103.792 176.37 103.792C173.618 103.792 171.986 105.536 171.986 108.16C171.986 110.8 173.506 112.176 175.394 112.176C176.306 112.176 177.186 111.888 177.906 111.056L177.97 112.08ZM177.826 105.36V109.888C177.17 110.576 176.482 110.8 175.81 110.8C174.722 110.8 173.666 109.936 173.666 107.952C173.666 106.112 174.706 105.104 176.322 105.104C176.738 105.104 177.282 105.168 177.826 105.36ZM196.374 116H198.022V104.112C196.662 103.84 195.75 103.776 195.174 103.776C192.198 103.776 190.534 105.504 190.534 108.16C190.534 110.816 192.07 112.176 193.942 112.176C194.854 112.176 195.734 111.888 196.438 111.072C196.438 111.216 196.374 111.584 196.374 112.128V116ZM194.358 110.8C193.302 110.8 192.214 109.952 192.214 107.968C192.214 106.032 193.286 105.088 194.982 105.088C195.35 105.088 195.878 105.136 196.374 105.28V109.888C195.718 110.576 195.03 110.8 194.358 110.8ZM203.088 112.16C204.048 112.16 204.896 111.872 205.648 111.04L205.68 112.08L207.184 111.936V103.872L205.536 104.016V109.904C204.896 110.512 204.208 110.752 203.568 110.752C202.448 110.752 201.904 109.984 201.904 108.48V103.872L200.272 104.016V108.816C200.272 110.88 201.168 112.16 203.088 112.16ZM216.601 111.552L216.665 110.304C215.593 110.704 214.713 110.832 213.977 110.832C212.041 110.832 210.761 109.856 210.777 108.064H216.553C216.857 105.328 215.417 103.776 213.225 103.776C210.777 103.776 209.161 105.408 209.161 107.872C209.161 110.384 210.729 112.192 213.785 112.16C214.777 112.144 215.737 111.952 216.601 111.552ZM210.809 106.976C210.905 105.632 211.913 104.96 212.985 104.96C214.185 104.96 215.017 105.696 214.985 106.96L210.809 106.976ZM225.603 109.552C225.603 108.528 225.107 107.728 223.187 107.36L222.179 107.152C220.819 106.88 220.515 106.592 220.515 106.096C220.515 105.568 221.059 105.072 222.531 105.072C223.251 105.072 224.115 105.2 225.043 105.488L225.155 104.24C224.371 103.936 223.395 103.792 222.515 103.792C219.859 103.792 218.867 105.072 218.867 106.208C218.867 107.232 219.459 108.032 221.187 108.368L222.163 108.576C223.683 108.88 223.891 109.216 223.891 109.68C223.891 110.256 223.299 110.848 221.747 110.848C220.883 110.848 220.019 110.688 218.851 110.24L218.899 111.552C219.779 111.952 220.835 112.144 221.795 112.144C224.627 112.144 225.603 110.752 225.603 109.552ZM234.765 111.776L234.781 110.512C234.029 110.72 233.453 110.784 233.037 110.784C232.109 110.784 231.165 110.48 231.165 109.296V105.424H234.317L234.413 104.128H231.165V102.448L229.837 102.464L229.549 104.128L227.885 104.288V105.424H229.517V109.472C229.517 111.568 230.957 112.144 232.765 112.144C233.293 112.144 234.061 112.048 234.765 111.776ZM241.895 101.216C241.895 100.576 241.479 100.112 240.855 100.112C240.183 100.112 239.767 100.576 239.767 101.152C239.767 101.792 240.199 102.256 240.807 102.256C241.447 102.256 241.895 101.824 241.895 101.216ZM236.823 112H244.615V110.704H241.639V103.92L240.007 104.032H237.239V105.312H240.007V110.704H236.823V112ZM254.112 107.792C254.112 105.248 252.496 103.776 250.224 103.776C247.872 103.776 246.064 105.28 246.064 107.952C246.064 110.672 247.936 112.16 250.048 112.16C252.224 112.16 254.112 110.672 254.112 107.792ZM252.416 107.936C252.416 109.744 251.488 110.848 250.176 110.848H250.064C248.688 110.848 247.76 109.584 247.76 107.856C247.76 105.984 248.768 105.104 250.08 105.104C251.552 105.104 252.416 106.24 252.416 107.936ZM261.194 112H262.842V107.136C262.842 105.072 261.946 103.792 260.01 103.792C259.05 103.792 258.202 104.08 257.466 104.912L257.418 103.872L255.93 104.016V112H257.578V106.048C258.202 105.44 258.874 105.2 259.53 105.2C260.666 105.2 261.194 105.968 261.194 107.472V112ZM271.972 109.552C271.972 108.528 271.476 107.728 269.556 107.36L268.548 107.152C267.188 106.88 266.884 106.592 266.884 106.096C266.884 105.568 267.428 105.072 268.9 105.072C269.62 105.072 270.484 105.2 271.412 105.488L271.524 104.24C270.74 103.936 269.764 103.792 268.884 103.792C266.228 103.792 265.236 105.072 265.236 106.208C265.236 107.232 265.828 108.032 267.556 108.368L268.532 108.576C270.052 108.88 270.26 109.216 270.26 109.68C270.26 110.256 269.668 110.848 268.116 110.848C267.252 110.848 266.388 110.688 265.22 110.24L265.268 111.552C266.148 111.952 267.204 112.144 268.164 112.144C270.996 112.144 271.972 110.752 271.972 109.552ZM291.351 112.032L291.415 111.024C290.055 111.104 290.071 110.624 290.071 109.744V106.784C290.071 104.752 289.063 103.792 286.823 103.792C285.927 103.792 284.759 104.032 283.911 104.544L284.023 105.76C285.063 105.264 285.911 105.12 286.647 105.12C288.055 105.12 288.455 105.776 288.455 106.864V107.264C284.471 107.232 283.351 108.704 283.351 110C283.351 111.376 284.471 112.176 286.023 112.176C287.015 112.176 287.911 111.904 288.663 111.184C288.887 111.904 289.527 112.144 290.311 112.144C290.663 112.144 290.983 112.112 291.351 112.032ZM288.455 108.4V110.208C287.815 110.704 287.127 110.928 286.455 110.928C285.431 110.928 284.903 110.496 284.903 109.84C284.903 109.136 285.767 108.272 288.455 108.4ZM298.289 112H299.937V107.136C299.937 105.072 299.041 103.792 297.105 103.792C296.145 103.792 295.297 104.08 294.561 104.912L294.513 103.872L293.025 104.016V112H294.673V106.048C295.297 105.44 295.969 105.2 296.625 105.2C297.761 105.2 298.289 105.968 298.289 107.472V112ZM307.803 112.08L309.307 111.936V99.632L307.659 99.776V103.984C307.211 103.856 306.699 103.792 306.203 103.792C303.451 103.792 301.819 105.536 301.819 108.16C301.819 110.8 303.339 112.176 305.227 112.176C306.139 112.176 307.019 111.888 307.739 111.056L307.803 112.08ZM307.659 105.36V109.888C307.003 110.576 306.315 110.8 305.643 110.8C304.555 110.8 303.499 109.936 303.499 107.952C303.499 106.112 304.539 105.104 306.155 105.104C306.571 105.104 307.115 105.168 307.659 105.36ZM326.35 112.08L327.854 111.936V99.632L326.206 99.776V103.984C325.758 103.856 325.246 103.792 324.75 103.792C321.998 103.792 320.366 105.536 320.366 108.16C320.366 110.8 321.886 112.176 323.774 112.176C324.686 112.176 325.566 111.888 326.286 111.056L326.35 112.08ZM326.206 105.36V109.888C325.55 110.576 324.862 110.8 324.19 110.8C323.102 110.8 322.046 109.936 322.046 107.952C322.046 106.112 323.086 105.104 324.702 105.104C325.118 105.104 325.662 105.168 326.206 105.36ZM337.576 107.792C337.576 105.248 335.96 103.776 333.688 103.776C331.336 103.776 329.528 105.28 329.528 107.952C329.528 110.672 331.4 112.16 333.512 112.16C335.688 112.16 337.576 110.672 337.576 107.792ZM335.88 107.936C335.88 109.744 334.952 110.848 333.64 110.848H333.528C332.152 110.848 331.224 109.584 331.224 107.856C331.224 105.984 332.232 105.104 333.544 105.104C335.016 105.104 335.88 106.24 335.88 107.936ZM346.258 111.632L346.29 110.272C345.298 110.656 344.546 110.752 343.938 110.752C342.226 110.752 340.914 109.856 340.914 107.84C340.914 105.904 342.146 105.168 343.794 105.168C344.354 105.168 345.074 105.232 345.986 105.536L346.13 104.176C345.33 103.888 344.402 103.792 343.714 103.792C341.122 103.792 339.218 105.136 339.218 108.048C339.218 110.576 340.882 112.144 343.714 112.144C344.402 112.144 345.41 112.016 346.258 111.632ZM351.467 112.16C352.427 112.16 353.275 111.872 354.027 111.04L354.059 112.08L355.563 111.936V103.872L353.915 104.016V109.904C353.275 110.512 352.587 110.752 351.947 110.752C350.827 110.752 350.283 109.984 350.283 108.48V103.872L348.651 104.016V108.816C348.651 110.88 349.547 112.16 351.467 112.16ZM363.989 112H365.557V107.168C365.557 105.696 365.349 103.792 363.685 103.792C362.997 103.792 362.373 104.144 361.797 105.072C361.605 104.256 361.093 103.792 360.405 103.792C359.797 103.792 359.157 104.08 358.677 104.912L358.613 103.872L357.237 104.016V112H358.805V106C359.125 105.408 359.477 105.2 359.797 105.2C360.645 105.2 360.693 106.576 360.693 107.344V112H362.101V107.504C362.101 106.976 362.085 106.464 362.037 106.048C362.389 105.408 362.741 105.2 363.077 105.2C363.749 105.2 363.989 105.968 363.989 107.136V112ZM374.255 111.552L374.319 110.304C373.247 110.704 372.367 110.832 371.631 110.832C369.695 110.832 368.415 109.856 368.431 108.064H374.207C374.511 105.328 373.071 103.776 370.879 103.776C368.431 103.776 366.815 105.408 366.815 107.872C366.815 110.384 368.383 112.192 371.439 112.16C372.431 112.144 373.391 111.952 374.255 111.552ZM368.463 106.976C368.559 105.632 369.567 104.96 370.639 104.96C371.839 104.96 372.671 105.696 372.639 106.96L368.463 106.976ZM381.753 112H383.401V107.136C383.401 105.072 382.505 103.792 380.569 103.792C379.609 103.792 378.761 104.08 378.025 104.912L377.977 103.872L376.489 104.016V112H378.137V106.048C378.761 105.44 379.433 105.2 380.089 105.2C381.225 105.2 381.753 105.968 381.753 107.472V112ZM392.418 111.776L392.434 110.512C391.682 110.72 391.106 110.784 390.69 110.784C389.762 110.784 388.818 110.48 388.818 109.296V105.424H391.97L392.066 104.128H388.818V102.448L387.49 102.464L387.202 104.128L385.538 104.288V105.424H387.17V109.472C387.17 111.568 388.61 112.144 390.418 112.144C390.946 112.144 391.714 112.048 392.418 111.776ZM40.96 136.032L41.024 135.024C39.664 135.104 39.68 134.624 39.68 133.744V130.784C39.68 128.752 38.672 127.792 36.432 127.792C35.536 127.792 34.368 128.032 33.52 128.544L33.632 129.76C34.672 129.264 35.52 129.12 36.256 129.12C37.664 129.12 38.064 129.776 38.064 130.864V131.264C34.08 131.232 32.96 132.704 32.96 134C32.96 135.376 34.08 136.176 35.632 136.176C36.624 136.176 37.52 135.904 38.272 135.184C38.496 135.904 39.136 136.144 39.92 136.144C40.272 136.144 40.592 136.112 40.96 136.032ZM38.064 132.4V134.208C37.424 134.704 36.736 134.928 36.064 134.928C35.04 134.928 34.512 134.496 34.512 133.84C34.512 133.136 35.376 132.272 38.064 132.4ZM47.8978 136H49.5458V131.136C49.5458 129.072 48.6498 127.792 46.7138 127.792C45.7538 127.792 44.9058 128.08 44.1698 128.912L44.1218 127.872L42.6338 128.016V136H44.2818V130.048C44.9058 129.44 45.5778 129.2 46.2338 129.2C47.3698 129.2 47.8978 129.968 47.8978 131.472V136ZM58.6755 133.552C58.6755 132.528 58.1795 131.728 56.2595 131.36L55.2515 131.152C53.8915 130.88 53.5875 130.592 53.5875 130.096C53.5875 129.568 54.1315 129.072 55.6035 129.072C56.3235 129.072 57.1875 129.2 58.1155 129.488L58.2275 128.24C57.4435 127.936 56.4675 127.792 55.5875 127.792C52.9315 127.792 51.9395 129.072 51.9395 130.208C51.9395 131.232 52.5315 132.032 54.2595 132.368L55.2355 132.576C56.7555 132.88 56.9635 133.216 56.9635 133.68C56.9635 134.256 56.3715 134.848 54.8195 134.848C53.9555 134.848 53.0915 134.688 51.9235 134.24L51.9715 135.552C52.8515 135.952 53.9075 136.144 54.8675 136.144C57.6995 136.144 58.6755 134.752 58.6755 133.552ZM61.5173 136.032L63.4053 135.968L64.6373 131.12L65.7573 136.032L67.6613 135.968L69.3733 127.936H67.8533L66.6213 134.416H66.5893L65.4373 129.44H63.8853L62.6693 134.416H62.6373L61.4533 127.936H59.8693L61.5173 136.032ZM77.495 135.552L77.559 134.304C76.487 134.704 75.607 134.832 74.871 134.832C72.935 134.832 71.655 133.856 71.671 132.064H77.447C77.751 129.328 76.311 127.776 74.119 127.776C71.671 127.776 70.055 129.408 70.055 131.872C70.055 134.384 71.623 136.192 74.679 136.16C75.671 136.144 76.631 135.952 77.495 135.552ZM71.703 130.976C71.799 129.632 72.807 128.96 73.879 128.96C75.079 128.96 75.911 129.696 75.879 130.96L71.703 130.976ZM86.7528 129.424L86.9128 127.952C86.4648 127.84 85.9688 127.792 85.5848 127.792C84.6088 127.792 83.6808 128.048 82.8968 129.232L82.8808 127.872L81.3448 128.032H79.2648V129.312H81.3448V136H82.9928V130.528C83.7768 129.52 84.6248 129.264 85.4248 129.264C85.8728 129.264 86.2568 129.312 86.7528 129.424ZM95.7705 133.552C95.7705 132.528 95.2745 131.728 93.3545 131.36L92.3465 131.152C90.9865 130.88 90.6825 130.592 90.6825 130.096C90.6825 129.568 91.2265 129.072 92.6985 129.072C93.4185 129.072 94.2825 129.2 95.2105 129.488L95.3225 128.24C94.5385 127.936 93.5625 127.792 92.6825 127.792C90.0265 127.792 89.0345 129.072 89.0345 130.208C89.0345 131.232 89.6265 132.032 91.3545 132.368L92.3305 132.576C93.8505 132.88 94.0585 133.216 94.0585 133.68C94.0585 134.256 93.4665 134.848 91.9145 134.848C91.0505 134.848 90.1865 134.688 89.0185 134.24L89.0665 135.552C89.9465 135.952 91.0025 136.144 91.9625 136.144C94.7945 136.144 95.7705 134.752 95.7705 133.552ZM115.342 125.088L115.454 123.824C114.798 123.648 114.094 123.6 113.55 123.6C110.878 123.6 109.422 124.816 109.422 127.2V128.128L107.374 128.272V129.424H109.422V136H111.07V129.424H114.238L114.334 128.128H111.07V127.072C111.07 125.488 111.902 124.944 113.63 124.944C113.998 124.944 114.622 124.976 115.342 125.088ZM124.28 131.792C124.28 129.248 122.664 127.776 120.392 127.776C118.04 127.776 116.232 129.28 116.232 131.952C116.232 134.672 118.104 136.16 120.216 136.16C122.392 136.16 124.28 134.672 124.28 131.792ZM122.584 131.936C122.584 133.744 121.656 134.848 120.344 134.848H120.232C118.856 134.848 117.928 133.584 117.928 131.856C117.928 129.984 118.936 129.104 120.248 129.104C121.72 129.104 122.584 130.24 122.584 131.936ZM133.122 129.424L133.282 127.952C132.834 127.84 132.338 127.792 131.954 127.792C130.978 127.792 130.05 128.048 129.266 129.232L129.25 127.872L127.714 128.032H125.634V129.312H127.714V136H129.362V130.528C130.146 129.52 130.994 129.264 131.794 129.264C132.242 129.264 132.626 129.312 133.122 129.424ZM152.101 131.792C152.101 129.248 150.485 127.776 148.213 127.776C145.861 127.776 144.053 129.28 144.053 131.952C144.053 134.672 145.925 136.16 148.037 136.16C150.213 136.16 152.101 134.672 152.101 131.792ZM150.405 131.936C150.405 133.744 149.477 134.848 148.165 134.848H148.053C146.677 134.848 145.749 133.584 145.749 131.856C145.749 129.984 146.757 129.104 148.069 129.104C149.541 129.104 150.405 130.24 150.405 131.936ZM156.719 136.16C157.679 136.16 158.527 135.872 159.279 135.04L159.311 136.08L160.815 135.936V127.872L159.167 128.016V133.904C158.527 134.512 157.839 134.752 157.199 134.752C156.079 134.752 155.535 133.984 155.535 132.48V127.872L153.903 128.016V132.816C153.903 134.88 154.799 136.16 156.719 136.16ZM170.217 129.424L170.377 127.952C169.929 127.84 169.433 127.792 169.049 127.792C168.073 127.792 167.145 128.048 166.361 129.232L166.345 127.872L164.809 128.032H162.729V129.312H164.809V136H166.457V130.528C167.241 129.52 168.089 129.264 168.889 129.264C169.337 129.264 169.721 129.312 170.217 129.424ZM181.612 140H183.26V136.016C183.644 136.128 184.124 136.176 184.588 136.176C187.5 136.176 189.1 134.432 189.1 131.76C189.1 129.152 187.58 127.792 185.692 127.792C184.78 127.792 183.852 128.096 183.164 128.96L183.116 127.872L181.612 128.016V140ZM184.796 134.88C184.316 134.88 183.772 134.8 183.26 134.592V130.064C183.932 129.392 184.62 129.168 185.276 129.168C186.364 129.168 187.42 130.032 187.42 131.984C187.42 133.856 186.396 134.88 184.796 134.88ZM198.038 129.424L198.198 127.952C197.75 127.84 197.254 127.792 196.87 127.792C195.894 127.792 194.966 128.048 194.182 129.232L194.166 127.872L192.63 128.032H190.55V129.312H192.63V136H194.278V130.528C195.062 129.52 195.91 129.264 196.71 129.264C197.158 129.264 197.542 129.312 198.038 129.424ZM207.744 131.792C207.744 129.248 206.128 127.776 203.856 127.776C201.504 127.776 199.696 129.28 199.696 131.952C199.696 134.672 201.568 136.16 203.68 136.16C205.856 136.16 207.744 134.672 207.744 131.792ZM206.048 131.936C206.048 133.744 205.12 134.848 203.808 134.848H203.696C202.32 134.848 201.392 133.584 201.392 131.856C201.392 129.984 202.4 129.104 203.712 129.104C205.184 129.104 206.048 130.24 206.048 131.936ZM215.065 136.08L216.569 135.936V123.632L214.921 123.776V127.984C214.473 127.856 213.961 127.792 213.465 127.792C210.713 127.792 209.081 129.536 209.081 132.16C209.081 134.8 210.601 136.176 212.489 136.176C213.401 136.176 214.281 135.888 215.001 135.056L215.065 136.08ZM214.921 129.36V133.888C214.265 134.576 213.577 134.8 212.905 134.8C211.817 134.8 210.761 133.936 210.761 131.952C210.761 130.112 211.801 129.104 213.417 129.104C213.833 129.104 214.377 129.168 214.921 129.36ZM221.635 136.16C222.595 136.16 223.443 135.872 224.195 135.04L224.227 136.08L225.731 135.936V127.872L224.083 128.016V133.904C223.443 134.512 222.755 134.752 222.115 134.752C220.995 134.752 220.451 133.984 220.451 132.48V127.872L218.819 128.016V132.816C218.819 134.88 219.715 136.16 221.635 136.16ZM234.973 135.632L235.005 134.272C234.013 134.656 233.261 134.752 232.653 134.752C230.941 134.752 229.629 133.856 229.629 131.84C229.629 129.904 230.861 129.168 232.509 129.168C233.069 129.168 233.789 129.232 234.701 129.536L234.845 128.176C234.045 127.888 233.117 127.792 232.429 127.792C229.837 127.792 227.933 129.136 227.933 132.048C227.933 134.576 229.597 136.144 232.429 136.144C233.117 136.144 234.125 136.016 234.973 135.632ZM244.039 135.776L244.055 134.512C243.303 134.72 242.727 134.784 242.311 134.784C241.383 134.784 240.439 134.48 240.439 133.296V129.424H243.591L243.687 128.128H240.439V126.448L239.111 126.464L238.823 128.128L237.159 128.288V129.424H238.791V133.472C238.791 135.568 240.231 136.144 242.039 136.144C242.567 136.144 243.335 136.048 244.039 135.776ZM261.434 136.08L262.938 135.936V123.632L261.29 123.776V127.984C260.842 127.856 260.33 127.792 259.834 127.792C257.082 127.792 255.45 129.536 255.45 132.16C255.45 134.8 256.97 136.176 258.858 136.176C259.77 136.176 260.65 135.888 261.37 135.056L261.434 136.08ZM261.29 129.36V133.888C260.634 134.576 259.946 134.8 259.274 134.8C258.186 134.8 257.13 133.936 257.13 131.952C257.13 130.112 258.17 129.104 259.786 129.104C260.202 129.104 260.746 129.168 261.29 129.36ZM272.66 131.792C272.66 129.248 271.044 127.776 268.772 127.776C266.42 127.776 264.612 129.28 264.612 131.952C264.612 134.672 266.484 136.16 268.596 136.16C270.772 136.16 272.66 134.672 272.66 131.792ZM270.964 131.936C270.964 133.744 270.036 134.848 268.724 134.848H268.612C267.236 134.848 266.308 133.584 266.308 131.856C266.308 129.984 267.316 129.104 268.628 129.104C270.1 129.104 270.964 130.24 270.964 131.936ZM281.341 135.632L281.373 134.272C280.381 134.656 279.629 134.752 279.021 134.752C277.309 134.752 275.997 133.856 275.997 131.84C275.997 129.904 277.229 129.168 278.877 129.168C279.437 129.168 280.157 129.232 281.069 129.536L281.213 128.176C280.413 127.888 279.485 127.792 278.797 127.792C276.205 127.792 274.301 129.136 274.301 132.048C274.301 134.576 275.965 136.144 278.797 136.144C279.485 136.144 280.493 136.016 281.341 135.632ZM290.519 133.552C290.519 132.528 290.023 131.728 288.103 131.36L287.095 131.152C285.735 130.88 285.431 130.592 285.431 130.096C285.431 129.568 285.975 129.072 287.447 129.072C288.167 129.072 289.031 129.2 289.959 129.488L290.071 128.24C289.287 127.936 288.311 127.792 287.431 127.792C284.775 127.792 283.783 129.072 283.783 130.208C283.783 131.232 284.375 132.032 286.103 132.368L287.079 132.576C288.599 132.88 288.807 133.216 288.807 133.68C288.807 134.256 288.215 134.848 286.663 134.848C285.799 134.848 284.935 134.688 283.767 134.24L283.815 135.552C284.695 135.952 285.751 136.144 286.711 136.144C289.543 136.144 290.519 134.752 290.519 133.552ZM297.601 135.056C297.601 134.336 297.169 133.888 296.497 133.888C295.777 133.888 295.329 134.336 295.329 134.992C295.329 135.712 295.777 136.16 296.433 136.16C297.137 136.16 297.601 135.728 297.601 135.056Z" fill="#303031"/>
<path d="M271.718 188H273.702L274.518 185.168H278.006L278.854 188H281.046L277.398 176.608L275.126 176.672L271.718 188ZM274.87 183.632L275.846 180.128C276.054 179.392 276.134 179.072 276.182 178.672H276.214C276.278 179.072 276.358 179.392 276.566 180.128L277.654 183.632H274.87ZM281.999 192H283.871V188.032C284.223 188.128 284.655 188.176 285.055 188.176C288.047 188.176 289.647 186.4 289.647 183.744C289.647 181.152 288.143 179.76 286.255 179.76C285.359 179.76 284.463 180.048 283.759 180.944L283.695 179.84L281.999 180V192ZM285.327 186.704C284.863 186.704 284.351 186.64 283.871 186.464V182.128C284.479 181.52 285.135 181.312 285.743 181.312C286.751 181.312 287.711 182.16 287.711 184C287.711 185.744 286.783 186.704 285.327 186.704ZM291.273 192H293.145V188.032C293.497 188.128 293.929 188.176 294.329 188.176C297.321 188.176 298.921 186.4 298.921 183.744C298.921 181.152 297.417 179.76 295.529 179.76C294.633 179.76 293.737 180.048 293.033 180.944L292.969 179.84L291.273 180V192ZM294.601 186.704C294.137 186.704 293.625 186.64 293.145 186.464V182.128C293.753 181.52 294.409 181.312 295.017 181.312C296.025 181.312 296.985 182.16 296.985 184C296.985 185.744 296.057 186.704 294.601 186.704ZM300.163 188H308.019V186.544H305.139V175.616L303.251 175.76H300.579V177.184H303.251V186.544H300.163V188ZM317.693 179.92H315.837C315.501 182.4 314.973 184.944 313.725 187.024C312.477 184.144 311.069 179.92 311.069 179.92H308.957C308.957 179.92 310.669 184.72 312.493 188.64C311.837 189.392 310.845 190.032 309.085 190.656L309.773 192.176C311.421 191.632 312.797 190.88 313.869 189.744C316.269 187.28 317.293 183.104 317.693 179.92ZM335.984 183.744C335.984 181.152 334.48 179.76 332.624 179.76C331.728 179.76 330.832 180.048 330.16 180.896C330.192 180.688 330.224 180.304 330.224 179.68V175.616L328.352 175.76V186.112C328.352 186.944 328.272 187.392 328.24 187.664C329.264 188 330.544 188.176 331.408 188.176C334.4 188.176 335.984 186.4 335.984 183.744ZM334.064 184C334.064 185.744 333.12 186.704 331.68 186.704C331.216 186.704 330.688 186.64 330.192 186.48C330.224 186.224 330.224 185.968 330.224 185.6V182.128C330.832 181.52 331.472 181.312 332.08 181.312C333.104 181.312 334.064 182.16 334.064 184ZM345.514 179.92H343.658C343.322 182.4 342.794 184.944 341.546 187.024C340.298 184.144 338.89 179.92 338.89 179.92H336.778C336.778 179.92 338.49 184.72 340.314 188.64C339.658 189.392 338.666 190.032 336.906 190.656L337.594 192.176C339.242 191.632 340.618 190.88 341.69 189.744C344.09 187.28 345.114 183.104 345.514 179.92ZM355.453 188H357.165L357.325 180.992C357.341 180.208 357.357 179.552 357.341 179.088H357.373C357.501 179.744 357.645 180.384 357.821 181.024L358.957 184.8H360.589L361.661 181.056C361.853 180.256 361.981 179.648 362.077 179.088H362.109C362.125 179.632 362.157 180.304 362.173 181.008L362.365 188H364.221L363.901 176.64H361.389L359.805 182.496L358.237 176.64H355.709L355.453 188ZM373.303 188.048L373.383 186.912C372.071 186.976 372.071 186.496 372.071 185.68V182.832C372.071 180.72 371.063 179.776 368.759 179.776C367.831 179.776 366.615 180.016 365.767 180.528L365.895 181.888C366.967 181.392 367.831 181.248 368.551 181.248C369.831 181.248 370.247 181.84 370.247 182.848V183.216C366.279 183.2 365.207 184.656 365.207 185.968C365.207 187.376 366.311 188.176 367.863 188.176C368.839 188.176 369.735 187.904 370.503 187.2C370.775 187.952 371.431 188.16 372.199 188.16C372.567 188.16 372.903 188.112 373.303 188.048ZM370.247 184.448V186.144C369.655 186.576 369.015 186.8 368.391 186.8C367.431 186.8 366.951 186.368 366.951 185.776C366.951 185.136 367.703 184.352 370.247 184.448ZM382.609 179.92H380.753C380.417 182.4 379.889 184.944 378.641 187.024C377.393 184.144 375.985 179.92 375.985 179.92H373.873C373.873 179.92 375.585 184.72 377.409 188.64C376.753 189.392 375.761 190.032 374.001 190.656L374.689 192.176C376.337 191.632 377.713 190.88 378.785 189.744C381.185 187.28 382.209 183.104 382.609 179.92ZM393.508 188H400.372V186.528L398.004 186.432V176.64H396.276L393.172 177.056L393.3 178.56L396.1 178.272V186.432L393.508 186.528V188ZM410.238 184.944C410.238 184 409.79 182.864 407.854 182C409.278 181.328 409.918 180.336 409.918 179.28C409.918 177.712 408.59 176.48 406.286 176.48C403.822 176.48 402.382 177.888 402.382 179.568C402.382 180.336 402.75 181.472 404.318 182.304C402.83 183.04 402.174 184 402.174 185.136C402.174 186.848 403.742 188.16 406.11 188.16C408.958 188.16 410.238 186.416 410.238 184.944ZM408.062 179.408C408.062 180.096 407.63 180.848 406.318 181.376C404.782 180.736 404.382 180.064 404.382 179.408C404.382 178.56 405.054 177.92 406.206 177.92C407.358 177.92 408.062 178.576 408.062 179.408ZM408.206 185.136C408.206 185.904 407.486 186.688 406.206 186.688C404.846 186.688 404.062 185.888 404.062 184.96C404.062 184.24 404.462 183.536 405.774 182.944C407.71 183.616 408.206 184.416 408.206 185.136Z" fill="#303031"/>
<path d="M42.224 42.474V35.22H39.74V42.546C39.74 44.346 39.29 45.966 37.562 45.966C35.654 45.966 35.186 44.31 35.186 42.384V35.22H32.594V42.582C32.594 46.182 34.07 48.198 37.364 48.198C40.532 48.198 42.224 45.966 42.224 42.474ZM43.603 52.5H46.051V48.054C46.393 48.144 46.807 48.198 47.185 48.198C50.659 48.198 52.423 46.164 52.423 43.176C52.423 40.278 50.767 38.694 48.679 38.694C47.689 38.694 46.699 39 45.889 40.044L45.817 38.784L43.603 38.982V52.5ZM47.545 46.308C47.077 46.308 46.537 46.236 46.051 46.056V41.484C46.663 40.926 47.311 40.692 47.923 40.692C48.985 40.692 49.921 41.61 49.921 43.518C49.921 45.3 49.003 46.308 47.545 46.308ZM60.2999 48.09L62.5139 47.91V33.996L60.0659 34.194V38.874C59.5979 38.748 59.0939 38.712 58.6439 38.712C55.4939 38.712 53.6759 40.728 53.6759 43.626C53.6759 46.614 55.3319 48.198 57.4199 48.198C58.3919 48.198 59.3279 47.892 60.1919 46.974L60.2999 48.09ZM60.0659 40.818V45.39C59.4539 45.966 58.8059 46.2 58.1759 46.2C57.1139 46.2 56.1779 45.282 56.1779 43.302C56.1779 41.592 57.0959 40.602 58.6259 40.602C58.9859 40.602 59.4899 40.638 60.0659 40.818ZM73.4689 48.054L73.5589 46.596C72.1549 46.668 72.1729 46.128 72.1729 45.3V42.276C72.1729 39.774 70.9849 38.712 68.3209 38.712C67.2589 38.712 65.8009 39.018 64.8469 39.594L65.0089 41.304C66.2509 40.746 67.2409 40.602 68.0329 40.602C69.3109 40.602 69.7969 41.16 69.7969 42.204V42.528C65.3689 42.546 64.1989 44.184 64.1989 45.66C64.1989 47.28 65.4589 48.198 67.1869 48.198C68.2669 48.198 69.2389 47.892 70.1209 47.118C70.4989 48.018 71.3089 48.18 72.1189 48.18C72.5869 48.18 72.9649 48.126 73.4689 48.054ZM69.7969 44.094V45.84C69.2029 46.236 68.5369 46.434 67.9249 46.434C66.8989 46.434 66.4309 46.002 66.4309 45.408C66.4309 44.778 67.1329 43.986 69.7969 44.094ZM82.9299 47.694L82.9479 45.894C82.1019 46.11 81.4899 46.146 81.0399 46.146C80.0139 46.146 79.0779 45.84 79.0779 44.688V40.962H82.4619L82.5699 39.09H79.0779V37.074L77.0799 37.092L76.7379 39.09L74.8119 39.288V40.962H76.6299V44.958C76.6299 47.532 78.3759 48.162 80.4819 48.162C81.1479 48.162 82.0839 48.018 82.9299 47.694ZM93.7228 47.514L93.7948 45.75C92.6248 46.146 91.5988 46.272 90.7708 46.272C88.7908 46.272 87.5488 45.426 87.5128 43.842H93.6328C94.1368 40.602 92.5168 38.694 89.8708 38.694C86.9728 38.694 85.1008 40.602 85.1008 43.374C85.1008 46.038 86.6848 48.198 90.4288 48.18C91.5268 48.18 92.6968 47.964 93.7228 47.514ZM87.5308 42.33C87.6028 40.98 88.5568 40.386 89.5468 40.386C90.6988 40.386 91.4548 41.088 91.4008 42.294L87.5308 42.33ZM112.465 48.09L114.679 47.91V33.996L112.231 34.194V38.874C111.763 38.748 111.259 38.712 110.809 38.712C107.659 38.712 105.841 40.728 105.841 43.626C105.841 46.614 107.497 48.198 109.585 48.198C110.557 48.198 111.493 47.892 112.357 46.974L112.465 48.09ZM112.231 40.818V45.39C111.619 45.966 110.971 46.2 110.341 46.2C109.279 46.2 108.343 45.282 108.343 43.302C108.343 41.592 109.261 40.602 110.791 40.602C111.151 40.602 111.655 40.638 112.231 40.818ZM125.508 43.23C125.508 40.224 123.564 38.694 121.008 38.694C118.452 38.694 116.22 40.26 116.22 43.482C116.22 46.776 118.668 48.18 120.81 48.18C123.222 48.18 125.508 46.65 125.508 43.23ZM123.006 43.5C123.006 45.372 122.106 46.272 120.972 46.272H120.864C119.694 46.272 118.722 45.228 118.722 43.338C118.722 41.214 119.838 40.602 120.828 40.602C122.124 40.602 123.006 41.628 123.006 43.5ZM135.257 47.622L135.293 45.66C134.195 46.02 133.385 46.146 132.719 46.146C131.099 46.146 129.641 45.462 129.641 43.248C129.641 41.286 130.991 40.71 132.593 40.71C133.115 40.71 133.871 40.764 134.915 41.052L135.113 39.108C134.249 38.802 133.169 38.694 132.359 38.694C129.569 38.694 127.121 40.008 127.121 43.518C127.121 46.65 129.299 48.18 132.305 48.18C133.097 48.18 134.249 48.054 135.257 47.622ZM140.686 48.18C141.73 48.18 142.72 47.856 143.53 46.848L143.602 48.09L145.798 47.91V38.766L143.35 38.982V45.336C142.72 45.894 142.09 46.11 141.532 46.11C140.47 46.11 140.074 45.228 140.074 43.842V38.766L137.626 38.982V44.382C137.626 46.596 138.49 48.18 140.686 48.18ZM154.737 48H157.023V42.726C157.023 41.232 157.005 38.694 154.971 38.694C154.215 38.694 153.513 39.072 152.883 40.17C152.721 39.216 152.181 38.694 151.425 38.694C150.777 38.694 149.967 39.018 149.445 40.026L149.355 38.784L147.357 38.982V48H149.643V41.43C149.913 40.944 150.183 40.782 150.453 40.782C151.065 40.782 151.191 41.718 151.191 42.546V48H153.171V43.104C153.171 42.564 153.171 41.916 153.135 41.448C153.423 40.944 153.711 40.782 153.999 40.782C154.503 40.782 154.737 41.358 154.737 42.384V48ZM166.754 47.514L166.826 45.75C165.656 46.146 164.63 46.272 163.802 46.272C161.822 46.272 160.58 45.426 160.544 43.842H166.664C167.168 40.602 165.548 38.694 162.902 38.694C160.004 38.694 158.132 40.602 158.132 43.374C158.132 46.038 159.716 48.198 163.46 48.18C164.558 48.18 165.728 47.964 166.754 47.514ZM160.562 42.33C160.634 40.98 161.588 40.386 162.578 40.386C163.73 40.386 164.486 41.088 164.432 42.294L160.562 42.33ZM174.685 48H177.133V42.51C177.133 40.296 176.287 38.694 174.073 38.694C173.029 38.694 172.057 39.018 171.247 40.026L171.175 38.784L168.979 38.982V48H171.409V41.538C172.057 40.98 172.651 40.782 173.227 40.782C174.307 40.782 174.685 41.646 174.685 43.032V48ZM187.26 47.694L187.278 45.894C186.432 46.11 185.82 46.146 185.37 46.146C184.344 46.146 183.408 45.84 183.408 44.688V40.962H186.792L186.9 39.09H183.408V37.074L181.41 37.092L181.068 39.09L179.142 39.288V40.962H180.96V44.958C180.96 47.532 182.706 48.162 184.812 48.162C185.478 48.162 186.414 48.018 187.26 47.694ZM198.665 48.054L198.755 46.596C197.351 46.668 197.369 46.128 197.369 45.3V42.276C197.369 39.774 196.181 38.712 193.517 38.712C192.455 38.712 190.997 39.018 190.043 39.594L190.205 41.304C191.447 40.746 192.437 40.602 193.229 40.602C194.507 40.602 194.993 41.16 194.993 42.204V42.528C190.565 42.546 189.395 44.184 189.395 45.66C189.395 47.28 190.655 48.198 192.383 48.198C193.463 48.198 194.435 47.892 195.317 47.118C195.695 48.018 196.505 48.18 197.315 48.18C197.783 48.18 198.161 48.126 198.665 48.054ZM194.993 44.094V45.84C194.399 46.236 193.733 46.434 193.121 46.434C192.095 46.434 191.627 46.002 191.627 45.408C191.627 44.778 192.329 43.986 194.993 44.094ZM208.126 47.694L208.144 45.894C207.298 46.11 206.686 46.146 206.236 46.146C205.21 46.146 204.274 45.84 204.274 44.688V40.962H207.658L207.766 39.09H204.274V37.074L202.276 37.092L201.934 39.09L200.008 39.288V40.962H201.826V44.958C201.826 47.532 203.572 48.162 205.678 48.162C206.344 48.162 207.28 48.018 208.126 47.694ZM216.236 35.796C216.236 34.914 215.66 34.302 214.778 34.302C213.86 34.302 213.284 34.914 213.284 35.742C213.284 36.624 213.878 37.254 214.742 37.254C215.642 37.254 216.236 36.642 216.236 35.796ZM210.188 48H219.116V46.146H215.984V38.856L213.536 39.018H210.638V40.854H213.536V46.146H210.188V48ZM229.837 43.23C229.837 40.224 227.893 38.694 225.337 38.694C222.781 38.694 220.549 40.26 220.549 43.482C220.549 46.776 222.997 48.18 225.139 48.18C227.551 48.18 229.837 46.65 229.837 43.23ZM227.335 43.5C227.335 45.372 226.435 46.272 225.301 46.272H225.193C224.023 46.272 223.051 45.228 223.051 43.338C223.051 41.214 224.167 40.602 225.157 40.602C226.453 40.602 227.335 41.628 227.335 43.5ZM237.282 48H239.73V42.51C239.73 40.296 238.884 38.694 236.67 38.694C235.626 38.694 234.654 39.018 233.844 40.026L233.772 38.784L231.576 38.982V48H234.006V41.538C234.654 40.98 235.248 40.782 235.824 40.782C236.904 40.782 237.282 41.646 237.282 43.032V48ZM252.712 48.036L255.52 47.964L256.528 43.014L257.32 48.036L260.182 47.964L261.802 38.874H259.642L258.562 45.894H258.526L257.662 40.62H255.466L254.476 45.894H254.44L253.432 38.874H251.2L252.712 48.036ZM268.401 35.796C268.401 34.914 267.825 34.302 266.943 34.302C266.025 34.302 265.449 34.914 265.449 35.742C265.449 36.624 266.043 37.254 266.907 37.254C267.807 37.254 268.401 36.642 268.401 35.796ZM262.353 48H271.281V46.146H268.149V38.856L265.701 39.018H262.803V40.854H265.701V46.146H262.353V48ZM281.156 47.694L281.174 45.894C280.328 46.11 279.716 46.146 279.266 46.146C278.24 46.146 277.304 45.84 277.304 44.688V40.962H280.688L280.796 39.09H277.304V37.074L275.306 37.092L274.964 39.09L273.038 39.288V40.962H274.856V44.958C274.856 47.532 276.602 48.162 278.708 48.162C279.374 48.162 280.31 48.018 281.156 47.694ZM283.741 48H286.171V41.538C286.819 40.98 287.431 40.782 287.989 40.782C289.069 40.782 289.447 41.646 289.447 43.032V48H291.895V42.51C291.895 40.296 291.049 38.694 288.835 38.694C287.791 38.694 286.837 39.036 286.099 39.918C286.153 39.522 286.171 39.072 286.171 38.442V34.014L283.741 34.194V48ZM305.039 48H307.631V43.104H312.167V40.98H307.631V37.362H312.383V35.22H305.039V48ZM313.798 48H316.39L317.164 45.102H320.746L321.538 48H324.4L320.476 35.184L317.47 35.256L313.798 48ZM317.596 43.122L318.532 39.54C318.73 38.73 318.82 38.352 318.874 37.866H318.91C318.982 38.352 319.054 38.712 319.27 39.522L320.314 43.122H317.596ZM334.635 41.358C334.635 37.398 333.159 35.04 329.613 35.04C326.823 35.04 324.429 37.416 324.429 41.466C324.429 45.318 326.031 47.874 328.929 48.144C330.063 50.538 331.737 51.87 334.275 51.87C334.725 51.87 335.193 51.816 335.643 51.69L335.787 49.872C335.553 49.908 335.301 49.926 334.977 49.926C333.357 49.926 332.241 49.062 331.539 47.73C333.573 46.812 334.635 44.4 334.635 41.358ZM331.971 41.556C331.971 44.274 331.197 46.02 329.559 46.02H329.523C327.903 46.02 327.075 44.31 327.075 41.304C327.075 38.892 328.029 37.218 329.451 37.218C331.215 37.218 331.971 38.964 331.971 41.556ZM343.88 45.12C343.88 43.932 343.34 43.032 341.18 42.6L340.154 42.384C338.732 42.096 338.426 41.844 338.426 41.394C338.426 40.944 338.876 40.53 340.388 40.53C341.18 40.53 342.062 40.656 343.16 40.944L343.322 39.18C342.422 38.856 341.27 38.694 340.334 38.694C337.202 38.694 335.996 40.188 335.996 41.574C335.996 42.726 336.644 43.716 338.624 44.13L339.614 44.328C341.162 44.652 341.36 44.94 341.36 45.354C341.36 45.84 340.856 46.308 339.236 46.308C338.354 46.308 337.418 46.146 336.068 45.696L336.104 47.55C337.148 47.964 338.372 48.162 339.362 48.162C342.764 48.162 343.88 46.524 343.88 45.12Z" fill="#303031"/>
<rect x="32" y="166" width="72" height="32" rx="16" fill="#71A894"/>
<path d="M41.456 188H48.112V186.688L45.744 186.608V176.64H44.224L41.104 177.072L41.232 178.4L44.064 178.096V186.608L41.456 186.688V188ZM58.2818 182.224C58.2818 178.176 56.5858 176.48 54.2018 176.48C51.6418 176.48 49.8658 178.4 49.8658 182.416C49.8658 186.464 51.5778 188.16 53.9618 188.16C56.5218 188.16 58.2818 186.24 58.2818 182.224ZM56.5698 182.352C56.5698 185.584 55.4978 186.704 54.0258 186.704C52.5218 186.704 51.5938 185.232 51.5938 182.288C51.5938 179.056 52.6498 177.936 54.1218 177.936C55.6418 177.936 56.5698 179.408 56.5698 182.352ZM67.9973 188H69.7573L70.6373 184.976H74.3813L75.3413 188H77.2613L73.4853 176.608L71.5013 176.672L67.9973 188ZM70.9893 183.6L72.0773 179.872C72.3013 179.12 72.3813 178.784 72.4453 178.432H72.4773C72.5253 178.784 72.6053 179.104 72.8453 179.872L74.0293 183.6H70.9893ZM85.975 183.2V176.64H84.311V183.168C84.311 184.832 83.927 186.656 82.007 186.656C79.991 186.656 79.575 184.848 79.575 183.04V176.64H77.831V183.232C77.831 186.224 78.935 188.176 81.863 188.176C84.583 188.176 85.975 186.208 85.975 183.2ZM95.3288 178.112L95.4248 176.64H87.0088V178.112H90.2728V188H92.0328V178.112H95.3288Z" fill="white"/>
</g>
<defs>
<filter id="filter0_d_59_14" x="0" y="0" width="443" height="232" filterUnits="userSpaceOnUse" color-interpolation-filters="sRGB">
<feFlood flood-opacity="0" result="BackgroundImageFix"/>
<feColorMatrix in="SourceAlpha" type="matrix" values="0 0 0 0 0 0 0 0 0 0 0 0 0 0 0 0 0 0 127 0" result="hardAlpha"/>
<feOffset dy="2"/>
<feGaussianBlur stdDeviation="4"/>
<feColorMatrix type="matrix" values="0 0 0 0 0 0 0 0 0 0 0 0 0 0 0 0 0 0 0.1 0"/>
<feBlend mode="normal" in2="BackgroundImageFix" result="effect1_dropShadow_59_14"/>
<feBlend mode="normal" in="SourceGraphic" in2="effect1_dropShadow_59_14" result="shape"/>
</filter>
</defs>
</svg>
